<svg id="Layer_1" data-name="Layer 1" xmlns="http://www.w3.org/2000/svg" viewBox="0 0 28.35 28.35"><defs><style>.cls-1{fill:#484551;}</style></defs><g id="_0Ht96i.tif" data-name="0Ht96i.tif"><path class="cls-1" d="M15,14.12l4.53,9.76c-1.63,1.11-6.05,1.32-8.21.37Zm-3.37,10a11.06,11.06,0,0,0,7.59-.34L17.4,19.8a6.76,6.76,0,0,1-4.24.14Z"/><path class="cls-1" d="M14.61,13.24,4.5,9.58a11.19,11.19,0,0,1,5.57-6.09Zm-9.8-3.8L8.94,11a6.75,6.75,0,0,1,2.89-3.11L10,3.83A10.91,10.91,0,0,0,4.81,9.44Z"/><path class="cls-1" d="M11.13,4.69a9.65,9.65,0,0,1,7-.32L15,13ZM16.56,8l1.26-3.5a9.51,9.51,0,0,0-6.4.28L13,8.13A5.73,5.73,0,0,1,16.56,8Z"/><path class="cls-1" d="M6.88,17.63,14.71,14l-3,8.12A9,9,0,0,1,6.88,17.63Zm4.73,4.11,1.17-3.21a5.53,5.53,0,0,1-2.46-2.25L7.19,17.72A8.67,8.67,0,0,0,11.61,21.74Z"/><path class="cls-1" d="M23.36,16.49l-7.87-2.88,7.59-3.52A8.74,8.74,0,0,1,23.36,16.49ZM23,10.4l-3,1.4A5,5,0,0,1,20.09,15l3.13,1.14A8.49,8.49,0,0,0,23,10.4Z"/><path class="cls-1" d="M18.29,20.29,15.37,14l0,0,6.5,2.39A7.28,7.28,0,0,1,18.29,20.29Zm-1-2.78L18.42,20a7,7,0,0,0,3.16-3.46l-2.51-.93A4.39,4.39,0,0,1,17.28,17.51Z"/><path class="cls-1" d="M17.51,7.36a6.48,6.48,0,0,1,3.56,3.25l-5.72,2.66Zm.15.3-.81,2.23a4.27,4.27,0,0,1,1.75,1.62l2.17-1A6.3,6.3,0,0,0,17.66,7.66Z"/><path class="cls-1" d="M8.91,16.27a6.47,6.47,0,0,1-.22-4.76l5.86,2.12Zm-.08-4.45A6.23,6.23,0,0,0,9,15.93l2.08-1A4.11,4.11,0,0,1,11,12.63Z"/></g></svg>