<svg id="Layer_1" data-name="Layer 1" xmlns="http://www.w3.org/2000/svg" viewBox="0 0 28.35 28.35"><defs><style>.cls-1{fill:#484551;}</style></defs><path class="cls-1" d="M18.05,6.92c3.89.54,5.05,5.35,2.54,8.16-1.76,2.14-4.21,3.6-5.71,5.92a.85.85,0,0,1-.69.44.83.83,0,0,1-.71-.42,17.55,17.55,0,0,0-2.55-2.79c-2-1.79-4.31-3.53-4.52-6.37l0-1.08A4.54,4.54,0,0,1,10.3,6.92l.14,0,.86,0a4.38,4.38,0,0,1,2.87,1.49,4.61,4.61,0,0,1,3-1.51ZM7.41,11.81c.45,3.73,4.95,5.58,6.76,8.45,2-3.21,6.82-4.93,6.77-9.07A3.54,3.54,0,0,0,17.82,7.9h-.59a3.57,3.57,0,0,0-2.52,1.43c-.08.11-.36.43-.45.54-.91-.81-1.67-1.86-3-1.93l-.15,0h-.59A3.55,3.55,0,0,0,7.41,11Z"/></svg>