<svg id="Layer_1" data-name="Layer 1" xmlns="http://www.w3.org/2000/svg" viewBox="0 0 28.35 28.35"><defs><style>.cls-1{fill:#484551;}</style></defs><g id="qNjwi6.tif"><path class="cls-1" d="M4.26,3.63V3.15a.83.83,0,0,1,.82-.84c.52,0,1,0,1.57,0a.81.81,0,0,1,.81.86v.44H9.11c0-.15,0-.3,0-.44a.83.83,0,0,1,.82-.86c.52,0,1,0,1.55,0a.82.82,0,0,1,.83.87V3.6H16V3.18a.82.82,0,0,1,.81-.87c.52,0,1,0,1.55,0a.82.82,0,0,1,.84.89v.41h1.65V3.18a.82.82,0,0,1,.81-.87c.52,0,1.05,0,1.57,0a.83.83,0,0,1,.82.86v.46h1.6c.22,0,.36.12.35.36a.57.57,0,0,0,0,.13v21.4c0,.44-.05.49-.48.49H2.8c-.42,0-.49-.07-.49-.49V4.14c0-.43.08-.51.51-.51Zm-1.33.59V8.84H13.86V4.22H12.15c-.36,0-.44-.08-.44-.44V3.23c0-.22-.09-.33-.31-.33H10a.28.28,0,0,0-.31.31v.68c0,.22-.11.33-.34.33H7.22a.31.31,0,0,1-.35-.33V3.21c0-.2-.09-.31-.3-.31H5.17c-.22,0-.31.11-.31.33v.55c0,.38-.07.44-.45.44ZM14.49,8.85H25.42V4.22H23.84c-.24,0-.35-.1-.35-.35s0-.45,0-.67a.26.26,0,0,0-.29-.3H21.76a.25.25,0,0,0-.27.29c0,.23,0,.46,0,.7a.29.29,0,0,1-.31.33H19a.3.3,0,0,1-.33-.33V3.25c0-.28-.06-.35-.33-.35H17.23c-.59,0-.59,0-.59.59s0,.73-.72.73H14.49Zm-11.57,11h11V15H2.92Zm11.57,0H25.42V15H14.49Zm4.63.62H9.25V25.4h9.87ZM9.24,14.33h9.88V9.48H9.24ZM8.62,25.41V20.46H2.92v4.95Zm11.12,0h5.68V20.46H19.74Zm-11.13-11V9.48H2.93v4.87Zm11.13,0h5.68V9.48H19.74Z"/></g></svg>