<svg id="Layer_1" data-name="Layer 1" xmlns="http://www.w3.org/2000/svg" viewBox="0 0 28.35 28.35"><defs><style>.cls-1{fill:#484551;}</style></defs><path class="cls-1" d="M14.17.93A13.24,13.24,0,1,1,.93,14.17,13.24,13.24,0,0,1,14.17.93m0-.93A14.18,14.18,0,1,0,28.34,14.17,14.19,14.19,0,0,0,14.17,0Z"/><path class="cls-1" d="M11.11,7.52a4.26,4.26,0,0,1,3.58,2.05l.65,1,.88-.83a2.83,2.83,0,0,1,2-.81,3.19,3.19,0,0,1,3,3.34,3.93,3.93,0,0,1-.09.84L20.9,14l.86.29a3.28,3.28,0,0,1,2.12,3.18,3.19,3.19,0,0,1-3,3.34H7.47a3.2,3.2,0,0,1-3-3.34A3.36,3.36,0,0,1,6.3,14.42L7,14.09l-.16-.78a5.58,5.58,0,0,1-.1-1,4.59,4.59,0,0,1,4.36-4.78m0-1A5.58,5.58,0,0,0,5.75,12.3a6,6,0,0,0,.12,1.21,4.37,4.37,0,0,0-2.42,4,4.19,4.19,0,0,0,4,4.34H20.86a4.19,4.19,0,0,0,4-4.34,4.31,4.31,0,0,0-2.8-4.13,4.59,4.59,0,0,0,.12-1.06,4.19,4.19,0,0,0-4-4.34A3.84,3.84,0,0,0,15.54,9a5.27,5.27,0,0,0-4.43-2.52Z"/></svg>