<svg id="Layer_1" data-name="Layer 1" xmlns="http://www.w3.org/2000/svg" viewBox="0 0 28.35 28.35"><defs><style>.cls-1{fill:#484551;}</style></defs><path class="cls-1" d="M14.17.93A13.24,13.24,0,1,1,.93,14.17,13.24,13.24,0,0,1,14.17.93m0-.93A14.18,14.18,0,1,0,28.35,14.17,14.19,14.19,0,0,0,14.17,0Z"/><g id="_1ydOiS.tif" data-name="1ydOiS.tif"><path class="cls-1" d="M16.58,9.25l3.53-.31a4,4,0,0,1,.17-.58,5.88,5.88,0,0,1,.35-.51L18.88,5.23c-.5.12-.83,0-1-.39A.73.73,0,0,1,18.15,4a.72.72,0,0,1,.91.09c.29.3.29.64,0,1.06l1.81,2.66a1.37,1.37,0,0,1,1.29,0,1.29,1.29,0,0,1,.64.82,1.32,1.32,0,0,1-.93,1.62,1.34,1.34,0,0,1-1.67-1.05l-3.56.31a2,2,0,0,1-2.7,1.87l-1.36,2.82A3.1,3.1,0,0,1,14,16l1.41-.38a2.44,2.44,0,1,1,3.64,1.54L20,18.73a1.93,1.93,0,0,1,1.63,0,1.87,1.87,0,0,1,1,1,1.93,1.93,0,0,1-3.43,1.74,2,2,0,0,1,.62-2.66l-.88-1.62a2.45,2.45,0,0,1-3.39-1.46l-1.37.41a3,3,0,0,1-1.48,3.33A3,3,0,0,1,9,19.06L7.71,20.35c.39.77.3,1.4-.26,1.78A1.26,1.26,0,0,1,5.84,22a1.23,1.23,0,0,1,0-1.64,1.26,1.26,0,0,1,1.72-.14l1.34-1.29A3,3,0,0,1,10.06,14c-.11-.33-.22-.65-.31-1s-.15-.48-.54-.46a1.07,1.07,0,0,1-1.08-.84,1.12,1.12,0,0,1,.36-1.26c.09-.09.07-.15,0-.24-.46-.77-.91-1.54-1.36-2.32A.2.2,0,0,0,6.9,7.8a.83.83,0,0,1-.39-1.61.83.83,0,0,1,.94.4.82.82,0,0,1-.13,1l-.1.09,1.51,2.58a1.23,1.23,0,1,1,1,2.24l.47,1.42a3.16,3.16,0,0,1,2.12.14l1.36-2.83A1.91,1.91,0,0,1,12.77,10a1.78,1.78,0,0,1,.11-1.18,2,2,0,0,1,2-1.17A2,2,0,0,1,16.58,9.25Zm4.21,13a1.72,1.72,0,1,0-1.72-1.72A1.73,1.73,0,0,0,20.79,22.2ZM16.37,9.54a1.72,1.72,0,1,0-3.44,0,1.73,1.73,0,0,0,1.73,1.72A1.71,1.71,0,0,0,16.37,9.54Zm5.09.52a1.12,1.12,0,0,0,1.12-1.12,1.14,1.14,0,0,0-1.12-1.12A1.16,1.16,0,0,0,20.34,9,1.1,1.1,0,0,0,21.46,10.06ZM6.08,7a.62.62,0,0,0,.61.63A.63.63,0,0,0,7.32,7,.62.62,0,0,0,6.08,7Z"/></g></svg>