<svg id="Layer_1" data-name="Layer 1" xmlns="http://www.w3.org/2000/svg" viewBox="0 0 28.35 42.52"><defs><style>.cls-1{fill:#484551;}</style></defs><path class="cls-1" d="M24.51,18.68a2.55,2.55,0,0,0,0,.39c0,.12,0,.24,0,.37v.62a13.23,13.23,0,0,1-4.41,20.13A12.44,12.44,0,0,1,17,41.29a12.89,12.89,0,0,1-2.79.3,13.07,13.07,0,0,1-2.08-.17A11.32,11.32,0,0,1,10.26,41,13.23,13.23,0,0,1,5.6,18.26c.3-.25.61-.49.93-.71a6.24,6.24,0,0,1,.68-.46,9.88,9.88,0,0,1,1.1-.61,13.22,13.22,0,0,1,12.24.27l.31-.89a14.09,14.09,0,0,0-11.93-.68,11.67,11.67,0,0,0-1.19.54,12.48,12.48,0,0,0-1.22.71c-.32.2-.63.42-.93.65A14.17,14.17,0,1,0,28.35,28.35,14,14,0,0,0,24.51,18.68Z"/><path class="cls-1" d="M24.49,37.33c0-.1,0-.2,0-.3v-.38a13,13,0,0,1-4.4,3.54.49.49,0,0,1,0,.12l0,.71.65-.31a12,12,0,0,0,2.31-1.43,4.15,4.15,0,0,0,1.39-1.51l0-.1v-.11C24.5,37.48,24.49,37.4,24.49,37.33Z"/><path class="cls-1" d="M24.45,18.08a1.72,1.72,0,0,0-.07-.21l-2.06-6.11-1.46,4.1-.31.89-.33.92a1.14,1.14,0,0,0-.16.8s0,.09,0,.14q0,10.5,0,21c0,.18,0,.36,0,.55a13,13,0,0,0,4.4-3.54c0-5.52,0-11.06,0-16.59v-.62c0-.13,0-.25,0-.37a2.55,2.55,0,0,1,0-.39h0c0-.1,0-.2,0-.3Zm-3.08-.84.32-.89.61-1.72,1,2.86.11.33-1.15,0-1.07,0Zm2.19,2.36v.33q0,8.55,0,17.1c0,.12,0,.23,0,.34v.1a3.88,3.88,0,0,1-1.06,1.08,13.4,13.4,0,0,1-1.5,1q0-10.49,0-20.93a1.79,1.79,0,0,0,0-.23v0l1.79,0,.75,0a.17.17,0,0,1,0,.08,4.68,4.68,0,0,0,0,.65.34.34,0,0,1,0,.1v.49Z"/><path class="cls-1" d="M10.27,30.64v-.58a2.83,2.83,0,0,0-.07-.84l-.09-.35h-2V17.57a.64.64,0,0,1,.05-.38l.24-.38-.25-.17.17-.16.21-.21a1.13,1.13,0,0,0,.43-1s0-.09,0-.13c-.09-.9-.18-1.79-.26-2.71l-.15-1.54H7.45c-.52,0-1,0-1.5,0a.77.77,0,0,0-.83.8c0,.25,0,.51,0,.77a15.59,15.59,0,0,1-.21,2,2.06,2.06,0,0,0,.73,2.21v.4c0,.36,0,.7,0,1.05v.13q0,5.31,0,10.61H3.72l-.1.33a2.89,2.89,0,0,0-.05,1.23l0,.27h0l-.11.1V37l.08.13a10.69,10.69,0,0,0,3.23,3l.25.15a9.46,9.46,0,0,0,2.6,1.24l.58.14V31.47a1.53,1.53,0,0,0-.14-.77Zm-5.83.74H4.5a.89.89,0,0,0,1-.86l0-.36L5.24,30A1.93,1.93,0,0,0,4.56,30h-.1V29.8H6.52v-.46q0-5.6,0-11.22c0-.19,0-.38,0-.57,0-.37,0-.74,0-1.09v-.25l-.19-.14a1.17,1.17,0,0,1-.56-1.41A13.88,13.88,0,0,0,6,12.54c0-.22,0-.45,0-.68H7.67l.06.7c.09.95.19,1.9.29,2.84,0,0,0,.05-.14.18l-.14.13-.42.41-.16.18v.27a1,1,0,0,0,0,.42s0,.06,0,.09a1.49,1.49,0,0,0,0,.5V29.8H9.32V30H9.17a2,2,0,0,0-.59,0l-.3.09,0,.31a.78.78,0,0,0,.15.64.86.86,0,0,0,.71.26h.23v9.09a11.13,11.13,0,0,1-1.76-.94l-.24-.15a9.69,9.69,0,0,1-2.88-2.62Z"/><path class="cls-1" d="M16.42,30.1a4.24,4.24,0,0,0,.4-7.44l-.73-.51V25.6a6.8,6.8,0,0,0-.73.57c-.27.21-.53.42-.8.59l-.18-.15a11.77,11.77,0,0,0-1.12-.85.43.43,0,0,1-.23-.48c0-.51,0-1,0-1.52v-.35a.67.67,0,0,0-1.16-.57,4.33,4.33,0,0,0-1.61,4.29,4.45,4.45,0,0,0,2.48,3.1.55.55,0,0,0,0,.18c0,1.64-.15,3.29-.26,4.9-.05.54-.08,1.07-.11,1.59-.08,1.2-.14,2.4-.22,3.59l-.05.93,0,.52.26.14a2.16,2.16,0,0,0,1,.19,2,2,0,0,1,.34,0,6.73,6.73,0,0,0,.8.05,10.91,10.91,0,0,0,2.12-.25l.43-.08,0-.42c0-.1,0-.2-.05-.3v0a3.26,3.26,0,0,1-.05-.52c0-.68-.05-1.38-.09-2,0-.38-.06-.77-.08-1.16l0-.47c0-.57,0-1.13-.09-1.69l-.12-1.89c-.07-1.06-.15-2.13-.22-3.2C16.28,30.18,16.28,30.18,16.42,30.1Zm-.85,3.46c0,.63.09,1.26.13,1.89s.06,1.11.09,1.67l0,.48c0,.39,0,.79.08,1.18,0,.65.1,1.32.08,2a4.38,4.38,0,0,0,0,.52,7.67,7.67,0,0,1-2.2.1,3.24,3.24,0,0,0-.44,0H13l.05-.79c.07-1.19.15-2.38.22-3.57,0-.53.07-1.06.11-1.59.11-1.62.22-3.28.26-5a1.15,1.15,0,0,1,0-.22c0-.06,0-.11,0-.17l.07-.38-.35-.14a3.53,3.53,0,0,1-2.27-2.61,3.34,3.34,0,0,1,.92-3c0,.46,0,.93,0,1.38a1.35,1.35,0,0,0,.66,1.3,10.34,10.34,0,0,1,1,.78c.14.12.3.24.44.37l.24.18.27-.14A8.17,8.17,0,0,0,16,26.89c.24-.2.46-.38.71-.55a.9.9,0,0,0,.36-.87V24a3,3,0,0,1,.86,1.87A3.19,3.19,0,0,1,16,29.27a1.08,1.08,0,0,0-.63,1v.1C15.43,31.44,15.51,32.5,15.57,33.56Z"/></svg>