<svg id="Layer_1" data-name="Layer 1" xmlns="http://www.w3.org/2000/svg" viewBox="0 0 28.35 42.52"><defs><style>.cls-1{fill:#484551;}</style></defs><path class="cls-1" d="M24.49,37.33c0-.1,0-.2,0-.3v-.37q0-8.29,0-16.6v-1a1.79,1.79,0,0,1,0-.4c0-.1,0-.2,0-.3l-.1-.3a1.17,1.17,0,0,0-.06-.2l-2.06-6.12-1.46,4.1-.31.89-.33.93a1.14,1.14,0,0,0-.16.8s0,.08,0,.13q0,10.5,0,21c0,.18,0,.36,0,.56a.37.37,0,0,1,0,.11v2.21h4.46l-.05-5ZM21.37,17.24l.32-.89.61-1.72,1,2.86.11.34-1.15,0-1.07,0ZM21,41.69v-2c0-6.61,0-14.58,0-20.82a1.64,1.64,0,0,0,0-.22v0l1.8-.05h.75v.07c0,.23,0,.44,0,.65a.45.45,0,0,1,0,.11c0,.12,0,.23,0,.33v.49c0,4.51.09,11.71.13,17.34,0,1.49,0,2.87,0,4.06Z"/><path class="cls-1" d="M10.26,30.64v-.57a2.86,2.86,0,0,0-.06-.85l-.09-.35h-2V17.58a.67.67,0,0,1,.05-.39l.24-.38-.25-.17.17-.16.21-.2a1.14,1.14,0,0,0,.43-1s0-.09,0-.14l-.27-2.7-.15-1.55H6a.76.76,0,0,0-.83.8c0,.25,0,.5-.06.76a14.27,14.27,0,0,1-.2,2,2,2,0,0,0,.73,2.2v.4c0,.36,0,.7,0,1.05v.14c0,3.53,0,7.07,0,10.6H3.72l-.1.34a2.85,2.85,0,0,0-.06,1.22l0,.28h0l-.11.1V37l.08,5.58,6.08-.06h.58v-11a1.5,1.5,0,0,0-.13-.76ZM9.32,30H9.17a2.44,2.44,0,0,0-.59,0l-.3.08,0,.31a.77.77,0,0,0,.15.64.91.91,0,0,0,.71.27h.23V41.8H4.44V31.38H4.5a.9.9,0,0,0,1-.86l0-.35L5.24,30A1.7,1.7,0,0,0,4.56,30h-.1v-.15H6.52v-.47q0-5.6,0-11.21c0-.2,0-.39,0-.58,0-.37,0-.73,0-1.09v-.24l-.19-.14a1.2,1.2,0,0,1-.57-1.41A14.18,14.18,0,0,0,6,12.54c0-.22,0-.45,0-.68.46,0,.91,0,1.41,0h.2l.07.7c.09,1,.19,1.91.28,2.85,0,0,0,0-.13.17l-.14.14-.43.4-.15.18v.21s0,0,0,.06a1.2,1.2,0,0,0,.06.42.28.28,0,0,0,0,.09,1.88,1.88,0,0,0,0,.5V29.81H9.32Z"/><path class="cls-1" d="M16.42,30.11a4.26,4.26,0,0,0,.4-7.45l-.73-.51V25.6a8.09,8.09,0,0,0-.74.57c-.26.21-.52.42-.79.6l-.18-.16a11.82,11.82,0,0,0-1.13-.84c-.19-.13-.23-.22-.22-.49,0-.51,0-1,0-1.51v-.36a.73.73,0,0,0-.38-.73.74.74,0,0,0-.78.16,4.3,4.3,0,0,0-1.61,4.29,4.43,4.43,0,0,0,2.48,3.1.58.58,0,0,0,0,.19c0,1.63-.15,3.29-.27,4.89,0,.54-.07,1.07-.11,1.6l-.21,3.58-.05.93L12,42.55l5,0c0-.18-.16-1.61-.15-1.76,0-.69-.05-1.39-.09-2,0-.38-.07-.77-.08-1.16l0-.47c0-.57,0-1.13-.09-1.69s-.08-1.26-.13-1.88c-.06-1.07-.14-2.14-.21-3.2C16.28,30.18,16.28,30.18,16.42,30.11Zm-.85,3.46c0,.62.08,1.25.13,1.88s.05,1.11.09,1.67v.48c0,.39,0,.79.09,1.18,0,.65.1,1.32.08,2,0,.18.09.89.12,1.06a7.69,7.69,0,0,1-2.2.1,3.31,3.31,0,0,0-.44,0H13.1l0-1.33c.07-1.18.14-2.38.22-3.57,0-.53.06-1.06.11-1.59.1-1.61.22-3.28.26-5a1,1,0,0,1,0-.21c0-.06,0-.12,0-.18l.06-.37-.35-.15a3.52,3.52,0,0,1-2.26-2.6,3.35,3.35,0,0,1,.91-3.05c0,.46,0,.93,0,1.38a1.36,1.36,0,0,0,.65,1.3,10.44,10.44,0,0,1,1,.78c.14.12.3.24.44.37l.24.18.27-.14A7.49,7.49,0,0,0,16,26.89c.24-.2.46-.38.7-.55a.89.89,0,0,0,.37-.87V24a3,3,0,0,1,.86,1.87A3.19,3.19,0,0,1,16,29.27a1.07,1.07,0,0,0-.64,1v.1C15.43,31.44,15.5,32.5,15.57,33.57Z"/></svg>