<svg id="Layer_1" data-name="Layer 1" xmlns="http://www.w3.org/2000/svg" viewBox="0 0 28.24 28.35"><defs><style>.cls-1{fill:#484551;}</style></defs><path class="cls-1" d="M14.06.93A13.24,13.24,0,1,1,.83,14.17,13.24,13.24,0,0,1,14.06.93m0-.93A14.18,14.18,0,1,0,28.24,14.17,14.19,14.19,0,0,0,14.06,0Z"/><path class="cls-1" d="M15.6,16.73c-2.12.78-4.26,1.52-6.55.83A6.43,6.43,0,0,1,5,14.12,6.85,6.85,0,0,1,6.53,6.05a6.88,6.88,0,0,1,8.3-.46,6.78,6.78,0,0,1,2.51,7.82c-.09.24-.17.47-.25.71A4.44,4.44,0,0,1,15.6,16.73Zm-6.93-.64a5.47,5.47,0,0,0,6.86-1.83,5.64,5.64,0,0,0-.28-6.61,5.48,5.48,0,0,0-7-1.27A5.09,5.09,0,0,0,5.5,11.25,5.17,5.17,0,0,0,8.67,16.09Z"/><path class="cls-1" d="M17.75,15.85l3.75,3.52a9.79,9.79,0,0,1,.94.88,1.56,1.56,0,0,1,0,2.23,1.65,1.65,0,0,1-2.33.07c-1.44-1.49-2.82-3-4.21-4.59-.11-.12-.06-.39-.08-.59Z"/><path class="cls-1" d="M8.87,14.57c-.19.15-.48.46-.55.42a4.19,4.19,0,0,1-2-3.68A3.91,3.91,0,0,1,8.15,7.48c.08-.05.21,0,.32,0-.23.35-.43.73-.69,1.06A4.06,4.06,0,0,0,8.87,14.57Z"/></svg>