<svg id="Layer_1" data-name="Layer 1" xmlns="http://www.w3.org/2000/svg" viewBox="0 0 28.35 28.35"><defs><style>.cls-1{fill:#484551;}</style></defs><path class="cls-1" d="M14.17.93A13.24,13.24,0,1,1,.93,14.17,13.24,13.24,0,0,1,14.17.93m0-.93A14.18,14.18,0,1,0,28.35,14.17,14.19,14.19,0,0,0,14.17,0Z"/><g id="iXHN9E.tif"><path class="cls-1" d="M7.53,14.17V6.05c0-.28,0-.33.32-.33h9a.46.46,0,0,1,.35.14l3.45,3.46a.42.42,0,0,1,.14.34V22.31c0,.26-.06.32-.32.32H7.85c-.26,0-.32-.06-.32-.32Zm.42-8V22.21H20.4V9.75H17.12c-.29,0-.33,0-.33-.34V6.13Zm9.26.35V9.33h2.84Z"/><path class="cls-1" d="M20.49,22.88H7.85c-.4,0-.57-.17-.57-.57V6.05c0-.42.16-.58.57-.58h9a.67.67,0,0,1,.52.22l3.46,3.45a.68.68,0,0,1,.21.52V22.31C21.06,22.71,20.89,22.88,20.49,22.88ZM8.2,22h12V10h-3c-.43,0-.58-.16-.58-.59v-3H8.2ZM17.46,9.08h2l-2-2Z"/><path class="cls-1" d="M14.18,13h-4.1c-.05,0-.12,0-.15,0s-.17-.12-.18-.19.08-.14.15-.19.11,0,.16,0h8.21c.06,0,.14,0,.18,0s.14.14.13.2-.1.13-.16.18a.37.37,0,0,1-.15,0Z"/><path class="cls-1" d="M18.36,13.22H10.08a.48.48,0,0,1-.3-.06.53.53,0,0,1-.27-.35c0-.19.12-.33.23-.43a.45.45,0,0,1,.3-.07h8.23a.49.49,0,0,1,.34.08.54.54,0,0,1,.22.42.57.57,0,0,1-.27.36A.39.39,0,0,1,18.36,13.22ZM10,12.56v.16h0Zm8.39.13Z"/><path class="cls-1" d="M14.16,16.19H10.08c-.05,0-.12,0-.15,0s-.17-.12-.18-.19.1-.14.16-.2.1,0,.15,0h8.22s.11,0,.14,0,.16.14.16.2-.1.14-.17.19-.1,0-.15,0Z"/><path class="cls-1" d="M18.36,16.44H10.08a.44.44,0,0,1-.3-.06A.54.54,0,0,1,9.5,16a.56.56,0,0,1,.25-.4.43.43,0,0,1,.29-.07h8.24a.42.42,0,0,1,.31.07.53.53,0,0,1,.24.4.56.56,0,0,1-.27.38A.35.35,0,0,1,18.36,16.44Zm-.07-.5h0l0,0,0-.12Z"/><path class="cls-1" d="M14.16,19.41H9.93c-.12,0-.2-.09-.18-.2s.11-.14.18-.19.08,0,.13,0h8.23c.05,0,.12,0,.15,0s.14.13.14.2-.09.14-.15.19a.46.46,0,0,1-.17,0Z"/><path class="cls-1" d="M18.36,19.66H9.89a.46.46,0,0,1-.32-.19.35.35,0,0,1-.06-.31.54.54,0,0,1,.24-.32.37.37,0,0,1,.29-.08h8.25a.46.46,0,0,1,.31.07.51.51,0,0,1,.23.4.5.5,0,0,1-.25.38A.39.39,0,0,1,18.36,19.66Zm-.05-.5h0l0,0,0-.12Zm0,0Z"/></g></svg>