<svg id="Layer_1" data-name="Layer 1" xmlns="http://www.w3.org/2000/svg" viewBox="0 0 28.35 28.35"><defs><style>.cls-1{fill:#484551;}</style></defs><path class="cls-1" d="M14,23a8.87,8.87,0,0,1-8.69-7.31,1.52,1.52,0,0,1,0-3,8.82,8.82,0,0,1,17.44.41,1.32,1.32,0,0,1,.56-.13,1.24,1.24,0,0,1,0,2.47,1.19,1.19,0,0,1-.56-.14A8.86,8.86,0,0,1,14,23Zm-8.3-7.79,0,.21a8.36,8.36,0,0,0,16.61-.59l0-.53.35.39a.8.8,0,0,0,.58.26.78.78,0,0,0,0-1.55.79.79,0,0,0-.58.25l-.35.4,0-.53a8.37,8.37,0,0,0-16.61-.6l0,.21H5.45a1.06,1.06,0,1,0,0,2.11Z"/><circle class="cls-1" cx="21.05" cy="12.24" r="0.64"/><path class="cls-1" d="M19.11,21.28s-3.66,0-3.66-3.67h.46a3.12,3.12,0,0,0,3.2,3.21Z"/></svg>