<svg id="Layer_1" data-name="Layer 1" xmlns="http://www.w3.org/2000/svg" viewBox="0 0 56.69 28.35"><defs><style>.cls-1{fill:#484551;}</style></defs><g id="GNFHBM.tif"><path class="cls-1" d="M14.17,25.15v-1h1.59V17.71a.37.37,0,0,1,.16-.38l5.39-3.58.11-.06v1.75l5.33-3.55v1.77l5.32-3.54v1.75l.28-.17,4.48-3a.39.39,0,0,0,.21-.4V3.2h3.9V24.09h1.58v1.06ZM37.42,3.55V24.08h3.14V3.55ZM37,9l-.27.16q-2.22,1.49-4.45,3a.48.48,0,0,0-.24.46c0,3.72,0,7.45,0,11.17v.31h5ZM31.71,10.8l-.26.16c-1.49,1-3,2-4.45,3a.48.48,0,0,0-.25.46c0,3.13,0,6.27,0,9.4,0,.11,0,.21,0,.31h4.94ZM26.37,24.1V12.59l-.1.05c-1.56,1-3.11,2.07-4.66,3.12a.47.47,0,0,0-.16.37q0,3.84,0,7.68c0,.09,0,.19,0,.29Zm-5.31-9.74-.14.08Q18.6,16,16.28,17.54a.45.45,0,0,0-.15.34c0,2,0,4,0,5.95a2.11,2.11,0,0,0,0,.25h4.92Z"/><path class="cls-1" d="M35.62,22a7.09,7.09,0,0,1,0,.8.35.35,0,0,1-.22.24c-.55,0-1.1,0-1.65,0-.17,0-.24-.09-.24-.27,0-.53,0-1.07,0-1.61,0-.18.09-.26.25-.26h1.61c.19,0,.27.1.26.28S35.62,21.72,35.62,22Zm-.38.68V21.28H33.88v1.39Z"/><path class="cls-1" d="M33.5,18.42c0-.27,0-.53,0-.8s.08-.26.25-.26h1.61c.19,0,.26.1.26.28v1.58c0,.19-.08.28-.26.28H33.77c-.2,0-.28-.1-.27-.3S33.5,18.68,33.5,18.42Zm.38.68h1.36V17.73H33.88Z"/><path class="cls-1" d="M28.18,21.93c0-.25,0-.5,0-.74s.07-.29.26-.29h1.61c.16,0,.25.08.25.26v1.61A.23.23,0,0,1,30,23H28.45c-.19,0-.28-.08-.27-.27S28.18,22.21,28.18,21.93Zm.37.73h1.36V21.28H28.55Z"/><path class="cls-1" d="M28.18,18.44c0-.27,0-.54,0-.81s.08-.27.27-.27H30c.18,0,.27.07.27.27v1.61c0,.18-.09.26-.25.26H28.44c-.19,0-.27-.1-.26-.29S28.18,18.69,28.18,18.44Zm.38.67h1.36V17.73H28.56Z"/><path class="cls-1" d="M25,22c0,.26,0,.51,0,.77s-.06.3-.27.3H23.13c-.19,0-.27-.08-.27-.27,0-.53,0-1.06,0-1.59,0-.18.07-.28.26-.28h1.61c.19,0,.26.11.25.29S25,21.71,25,22Zm-1.75.69H24.6V21.28H23.23Z"/><path class="cls-1" d="M22.86,18.4c0-.25,0-.51,0-.77s.09-.27.27-.27h1.58c.19,0,.27.08.27.27v1.61c0,.18-.09.26-.25.26H23.11c-.18,0-.26-.1-.25-.29S22.86,18.67,22.86,18.4Zm1.74.72V17.73H23.24v1.39Z"/><path class="cls-1" d="M17.54,21.94c0-.24,0-.49,0-.74s.07-.3.27-.3H19.4c.18,0,.26.09.26.28,0,.53,0,1.05,0,1.58,0,.21-.09.28-.29.28H17.82c-.21,0-.29-.09-.28-.29S17.54,22.21,17.54,21.94Zm.38-.67v1.39h1.35V21.27Z"/><path class="cls-1" d="M17.54,18.41c0-.26,0-.52,0-.78s.06-.27.24-.27h1.64c.17,0,.24.09.24.27v1.61c0,.18-.09.26-.25.26H17.8c-.19,0-.27-.1-.26-.29S17.54,18.68,17.54,18.41Zm1.74-.67H17.92v1.38h1.36Z"/></g></svg>