<svg id="Layer_1" data-name="Layer 1" xmlns="http://www.w3.org/2000/svg" viewBox="0 0 28.35 28.35"><defs><style>.cls-1{fill:#484551;}</style></defs><path class="cls-1" d="M14.17.93A13.24,13.24,0,1,1,.93,14.17,13.24,13.24,0,0,1,14.17.93m0-.93A14.18,14.18,0,1,0,28.35,14.17,14.19,14.19,0,0,0,14.17,0Z"/><g id="XzaFK5.tif"><path class="cls-1" d="M28.35,14.19A14.18,14.18,0,1,1,14.2,0,14.19,14.19,0,0,1,28.35,14.19Zm-5.71.13A10.12,10.12,0,0,1,5.69,14L7.18,12.3,1.44,10.5A13.26,13.26,0,0,0,24.9,22,13.27,13.27,0,0,0,6.08,3.67a.56.56,0,0,1,0,.08L11,9.92a.24.24,0,0,0,.29.08,14.8,14.8,0,0,1,1.58-.33,9.8,9.8,0,0,1,6.4,1.41A11.2,11.2,0,0,1,22.64,14.32ZM1.5,10.26l.08,0c1.89.6,3.79,1.2,5.69,1.78a.38.38,0,0,0,.3-.08,10.32,10.32,0,0,1,3.22-1.84l.18-.08L5.91,3.82C4.35,4.68,1.92,8.25,1.5,10.26Zm9.78,3.32a3.05,3.05,0,0,0,1.4,3.3,3.1,3.1,0,0,0,4.11-4.49A3.06,3.06,0,0,0,15,11.21a3.14,3.14,0,0,0-2.67.6l-.24-.32c-.28-.36-.29-.37-.72-.22A8.59,8.59,0,0,0,8.84,12.6l5.25,1.56a6.55,6.55,0,0,0-.58-.84l-.61-.79a2.24,2.24,0,0,1,2.8-.08,2.24,2.24,0,0,1-1.85,4c-1.1-.22-1.7-1.09-1.75-2.58Zm5.65,3.48a9.17,9.17,0,0,0,4.16-2.75,9.3,9.3,0,0,0-4.25-3,3.91,3.91,0,0,1,.09,5.74Zm-5.25,0a3.93,3.93,0,0,1-1.15-3.73L8.7,12.78a.17.17,0,0,0-.15,0L7.23,14A9.33,9.33,0,0,0,11.68,17.08Z"/><path class="cls-1" d="M12.59,25.73a1.71,1.71,0,0,1-.32,0,1.59,1.59,0,0,1-.27-.12,2.48,2.48,0,0,1,.27,0,1.65,1.65,0,0,1,.32.07Z"/><path class="cls-1" d="M3.61,18.8c-.25-.39-.27-.48-.13-.58C3.52,18.42,3.7,18.58,3.61,18.8Z"/><path class="cls-1" d="M26,14.13c.17.11.17.46,0,.66Z"/><path class="cls-1" d="M14.35,25.79a1,1,0,0,1,.58,0v.08h-.58Z"/><path class="cls-1" d="M20,4l-.54-.24c.13-.14.29-.09.57.15Z"/><path class="cls-1" d="M16.18,25.76l-.62.09,0-.07c.05,0,.09-.09.13-.09S16,25.55,16.18,25.76Z"/><path class="cls-1" d="M16.64,25.54l.62-.14C17.21,25.61,16.86,25.7,16.64,25.54Z"/><path class="cls-1" d="M20.92,4.63a1.36,1.36,0,0,1-.45-.37C20.85,4.35,21,4.48,20.92,4.63Z"/><path class="cls-1" d="M18.46,25.18l-.61.17A.44.44,0,0,1,18.46,25.18Z"/><path class="cls-1" d="M19,24.88c.39-.28.44-.3.55-.17C19.32,24.79,19.16,24.93,19,24.88Z"/><path class="cls-1" d="M20,24.3c.19-.06.32-.25.6-.25C20.32,24.34,20.09,24.43,20,24.3Z"/><path class="cls-1" d="M5.94,22.16l.39.41-.1.07a3.76,3.76,0,0,1-.35-.34S5.91,22.23,5.94,22.16Z"/><path class="cls-1" d="M23.23,21.84l-.3.32s-.09,0-.14.06,0-.11,0-.14a2.16,2.16,0,0,1,.25-.27s.09,0,.14,0Z"/><path class="cls-1" d="M15.48,2.54c-.2.15-.39,0-.59,0C15.08,2.38,15.28,2.51,15.48,2.54Z"/><path class="cls-1" d="M2.67,14.8c.18.16.11.37.09.57C2.57,15.21,2.68,15,2.67,14.8Z"/><path class="cls-1" d="M17.26,2.8,17.8,3V3s-.12.06-.16,0-.34,0-.43-.18Z"/><path class="cls-1" d="M3,11.23a.68.68,0,0,1,0,.61H2.9a.11.11,0,0,1,0-.1C2.89,11.58,2.93,11.43,3,11.23Z"/><path class="cls-1" d="M24.57,8.46a1.57,1.57,0,0,1,.27.51l-.12,0-.26-.52Z"/><path class="cls-1" d="M18.92,3.42s-.07.06-.09.06l-.44-.17s0-.07,0-.1.05,0,.07,0l.44.17S18.9,3.39,18.92,3.42Z"/><path class="cls-1" d="M25.51,10.59l.17.57,0,.05c-.05,0-.12-.07-.12-.11S25.31,10.79,25.51,10.59Z"/><path class="cls-1" d="M13.71,2.47l.57,0,0,.11c-.18.11-.38,0-.57,0Z"/><path class="cls-1" d="M24.15,8l-.35-.51c.1,0,.18,0,.19,0s.26.26.25.45Z"/><path class="cls-1" d="M11.44,25.47a.25.25,0,0,1-.14,0,1.78,1.78,0,0,1-.33-.09c-.05,0-.07-.07-.11-.11s.1,0,.14,0l.43.12Z"/><path class="cls-1" d="M11.39,2.81c.14,0,.28-.08.42-.1s.09,0,.14,0-.06.09-.09.09-.31.15-.47.06Z"/><path class="cls-1" d="M7.68,4.67A1.82,1.82,0,0,1,7.21,5l-.07-.11.48-.32Z"/><path class="cls-1" d="M16.09,2.57l.56.09v.09a.76.76,0,0,1-.21,0l-.38-.11Z"/><path class="cls-1" d="M9.8,24.84l.42.17s.06.07.08.1-.1,0-.13,0A1.71,1.71,0,0,1,9.83,25s-.06-.08-.09-.12Z"/><path class="cls-1" d="M9.23,24.75l-.57-.3C8.8,24.31,9.13,24.46,9.23,24.75Z"/><path class="cls-1" d="M13.12,2.64l-.55.07,0,0s.06-.1.09-.1.34-.11.5,0Z"/><path class="cls-1" d="M25.8,15.9l.08-.55H26c0,.16,0,.33,0,.49s-.07.07-.1.1Z"/><path class="cls-1" d="M2.91,16.55c-.16-.1-.09-.3-.15-.45s0-.1.06-.15l.06,0,.11.54Z"/><path class="cls-1" d="M4.44,20.37c.22,0,.25.28.39.42C4.67,20.87,4.6,20.8,4.44,20.37Z"/><path class="cls-1" d="M24.53,19.81c0,.05,0,.1,0,.13s-.14.24-.21.36a.34.34,0,0,1-.12,0s0-.09,0-.12.15-.27.23-.4Z"/><path class="cls-1" d="M23.62,7c-.09,0-.16,0-.18,0s-.19-.22-.28-.33,0-.07,0-.11.09,0,.12,0Z"/><path class="cls-1" d="M24.72,19.33l.28-.58A.45.45,0,0,1,24.72,19.33Z"/><path class="cls-1" d="M2.88,12.46,2.8,13H2.7a3.05,3.05,0,0,1,0-.43c0-.06.06-.11.09-.16Z"/><path class="cls-1" d="M3.2,17.7a.58.58,0,0,1-.11-.18c0-.13,0-.26,0-.4.06.12.13.23.18.34a1.29,1.29,0,0,1,0,.19Z"/><path class="cls-1" d="M23.87,20.83c.06.24-.16.35-.27.51C23.52,21.08,23.76,21,23.87,20.83Z"/><path class="cls-1" d="M5.06,21.36c.22-.1.24.08.3.15a.84.84,0,0,1,.13.27l-.23-.17A3.11,3.11,0,0,1,5.06,21.36Z"/><path class="cls-1" d="M7.16,23.46c-.14-.11-.27-.21-.39-.32s0-.07,0-.1.07,0,.08,0l.39.36S7.2,23.41,7.16,23.46Z"/><path class="cls-1" d="M21.42,23.3c.07.21-.08.35-.43.49C21,23.52,21.3,23.51,21.42,23.3Z"/><path class="cls-1" d="M7.74,23.72c.45.25.46.26.39.4C7.72,23.92,7.67,23.86,7.74,23.72Z"/><path class="cls-1" d="M2.73,13.54v.64C2.57,14.12,2.55,13.8,2.73,13.54Z"/><path class="cls-1" d="M21.91,5.31c-.19,0-.27-.17-.41-.25s0-.1-.06-.15l.06,0,.45.36Z"/><path class="cls-1" d="M25.92,13.54,25.87,13H26c.12.17.06.38.08.57Z"/><path class="cls-1" d="M9.67,3.4a.4.4,0,0,1-.55.26Z"/><path class="cls-1" d="M25.82,11.77c0,.16.07.32.1.48a.12.12,0,0,1-.05.09s-.07,0-.08,0c0-.18-.06-.35-.08-.53Z"/><path class="cls-1" d="M8.13,4.21c.13-.07.25-.16.38-.22s.1,0,.14,0,0,.09-.05.11a2.43,2.43,0,0,1-.35.2s-.08,0-.13,0Z"/><path class="cls-1" d="M25.18,10.1c0-.21-.2-.37-.15-.64C25.29,9.8,25.33,10,25.18,10.1Z"/><path class="cls-1" d="M13.19,25.71l.56.06v.12l-.57,0Z"/><path class="cls-1" d="M3.91,19.25c.1.2.19.35.26.49a.07.07,0,0,1,0,.09.08.08,0,0,1-.08,0A.77.77,0,0,1,3.91,19.25Z"/><path class="cls-1" d="M25.69,17.11c-.14-.26,0-.56.15-.56Z"/><path class="cls-1" d="M22.42,22.68c-.16.13-.27.31-.48.34C22.09,22.71,22.26,22.6,22.42,22.68Z"/><path class="cls-1" d="M25.54,17.69a1.44,1.44,0,0,1-.26.58C25.23,18,25.36,17.7,25.54,17.69Z"/><path class="cls-1" d="M22.8,6.07c-.16,0-.16,0-.48-.31C22.44,5.65,22.52,5.71,22.8,6.07Z"/><path class="cls-1" d="M10.78,3c0,.15-.13.24-.49.28C10.29,3.12,10.32,3.11,10.78,3Z"/><path class="cls-1" d="M3.67,9.64a.41.41,0,0,1,.26-.58Z"/><path class="cls-1" d="M3.19,10.69c.07-.48.09-.52.27-.51C3.38,10.36,3.38,10.58,3.19,10.69Z"/><path class="cls-1" d="M4.12,8.53c-.07-.18.12-.29.18-.44S4.39,8,4.44,8l0,.05-.28.48Z"/><path class="cls-1" d="M6.28,5.73c0-.18.2-.25.3-.36s.1,0,.16,0l0,.06-.41.37Z"/><path class="cls-1" d="M5.46,6.57c.22-.38.31-.45.47-.36C5.76,6.33,5.69,6.56,5.46,6.57Z"/><path class="cls-1" d="M5.1,7c0,.3-.2.39-.26.58C4.69,7.44,4.72,7.37,5.1,7Z"/></g></svg>