<svg id="Layer_1" data-name="Layer 1" xmlns="http://www.w3.org/2000/svg" viewBox="0 0 28.35 28.35"><defs><style>.cls-1{fill:#484551;}</style></defs><g id="bHNDnD.tif"><path class="cls-1" d="M10.09,11c-.08-.23-.17-.44-.23-.66a1.32,1.32,0,0,1,.56-1.52,4.16,4.16,0,0,1,.42-.23,1,1,0,0,0,.54-1.37.33.33,0,0,1,.06-.39.31.31,0,0,1,.37,0,.42.42,0,0,1,.16.19A1.59,1.59,0,0,1,11.31,9c-.19.11-.38.21-.56.33a.63.63,0,0,0-.28.73,6.34,6.34,0,0,0,.21.61c.39-.19.76-.37,1.13-.53a3.93,3.93,0,0,1,.66-.22,1,1,0,0,1,1.18.59c.18.37.35.74.52,1.12a.23.23,0,0,0,.22.14,7.08,7.08,0,0,1,6.81,6,6.86,6.86,0,0,1-1.61,5.72A6.85,6.85,0,0,1,15.06,26a7.12,7.12,0,0,1-7.83-5.5,7,7,0,0,1,1.35-5.95.24.24,0,0,0,0-.3c-.18-.36-.34-.72-.51-1.09a1,1,0,0,1,.31-1.29,7,7,0,0,1,.89-.5Zm4.1,14.42A6.48,6.48,0,1,0,7.7,19,6.48,6.48,0,0,0,14.19,25.39Zm-.65-13.57c-.17-.37-.33-.71-.5-1.05a.33.33,0,0,0-.41-.19,3.09,3.09,0,0,0-.54.17L9.27,12.07a2.6,2.6,0,0,0-.5.31.32.32,0,0,0-.12.39c.15.37.33.72.5,1.09A7.12,7.12,0,0,1,13.54,11.82Z"/><path class="cls-1" d="M12,6.36c-.1-.08-.23-.13-.26-.22a.42.42,0,0,1,0-.33c.19-.31.4-.6.6-.91l.29-.42a.34.34,0,0,1,.46-.1.31.31,0,0,1,.08.45l-.9,1.33A1.35,1.35,0,0,1,12,6.36Z"/><path class="cls-1" d="M11.47,5.05c0,.3-.07.44-.26.47s-.34-.1-.37-.33c-.05-.41-.1-.82-.14-1.23,0-.23.09-.37.28-.39s.33.1.36.33C11.39,4.3,11.43,4.71,11.47,5.05Z"/><path class="cls-1" d="M14.14,7.15a.33.33,0,0,1-.38.31l-1.22-.27a.3.3,0,0,1-.23-.39.32.32,0,0,1,.39-.23l1.15.25A.34.34,0,0,1,14.14,7.15Z"/><path class="cls-1" d="M9.55,5.35c.43.21.87.41,1.3.64.06,0,.07.24,0,.33s-.18.13-.28.17a.21.21,0,0,1-.15,0L9.41,6a.32.32,0,0,1-.19-.38A.4.4,0,0,1,9.55,5.35Z"/><path class="cls-1" d="M11.21,7.15a1.62,1.62,0,0,1-.11.25l-.51.71a.33.33,0,0,1-.46.12.31.31,0,0,1-.07-.48c.17-.25.34-.49.52-.73a.27.27,0,0,1,.36-.12C11.05,7,11.12,7.07,11.21,7.15Z"/><path class="cls-1" d="M14.1,24.25a5.16,5.16,0,0,1-3.71-1.56.5.5,0,0,1-.14-.35.33.33,0,0,1,.2-.23.53.53,0,0,1,.35.1,5.1,5.1,0,0,0,1.58,1.06,4.84,4.84,0,0,0,1.95.34.87.87,0,0,1,.23,0,.29.29,0,0,1,.28.32.31.31,0,0,1-.3.31C14.39,24.26,14.25,24.25,14.1,24.25Z"/></g></svg>