<svg id="Layer_1" data-name="Layer 1" xmlns="http://www.w3.org/2000/svg" viewBox="0 0 28.35 28.35"><defs><style>.cls-1{fill:#484551;}</style></defs><path class="cls-1" d="M14.17.93A13.24,13.24,0,1,1,.93,14.17,13.24,13.24,0,0,1,14.17.93m0-.93A14.18,14.18,0,1,0,28.35,14.17,14.19,14.19,0,0,0,14.17,0Z"/><g id="aBoHK6.tif"><path class="cls-1" d="M10.06,6.76l1.07-.88c.23-.18.35-.17.55,0l4.86,5.16c.2.21.2.3,0,.54L14,14.36l-.18.21,2.12.85,2.68,1.09a.38.38,0,0,0,.4,0c.46-.3.93-.58,1.38-.88a.63.63,0,0,1,1,.71c-.27,1.16-.52,2.31-.78,3.47a.64.64,0,0,1-.51.54.61.61,0,0,1-.64-.33c-.33-.52-.66-1-1-1.55a.5.5,0,0,0-.31-.2l-6.46-1a.56.56,0,0,0-.59.21c-.43.5-.89,1-1.34,1.46-.22.24-.36.25-.59,0L3.38,12.75c-.21-.22-.2-.36,0-.55.42-.34.83-.69,1.25-1a.32.32,0,0,0,.14-.39c-.18-.8-.36-1.61-.52-2.42A3.5,3.5,0,0,1,5.49,4.89a1.94,1.94,0,0,1,2-.45A2.3,2.3,0,0,1,8.36,5C8.94,5.54,9.48,6.15,10.06,6.76Zm.57.27L4.6,12l5.48,5.81c.31-.32.6-.63.88-.95a.5.5,0,0,1,.5-.17l3,.45,4,.58a.59.59,0,0,1,.48.32c.17.31.37.59.58.93L20,16.49c-.33.21-.6.36-.86.55a.58.58,0,0,1-.62.05L13.39,15c-.43-.17-.46-.32-.14-.66L15.36,12ZM8.79,7.8,7.21,6.13a.39.39,0,0,0-.61,0,1.89,1.89,0,0,0-.7,2c.13.58.25,1.16.38,1.77Zm.83-.68C9,6.48,8.45,5.85,7.84,5.25a1.4,1.4,0,0,0-1.78-.09A2.81,2.81,0,0,0,4.79,7.42,8.68,8.68,0,0,0,5,8.93c.1.55.23,1.1.35,1.66.45-.27.46-.27.36-.73s-.21-1-.33-1.53a2.49,2.49,0,0,1,.77-2.58,1,1,0,0,1,1.52,0L9.22,7.44Zm.21,10.93L4.3,12.2l-.38.31,5.57,5.91ZM10.92,6.79l4.7,5,.38-.44L11.37,6.42Zm9.14,13,.85-3.8a.67.67,0,0,0-.49.55c-.18.87-.38,1.74-.59,2.61A.62.62,0,0,0,20.06,19.77Z"/><path class="cls-1" d="M20,20.37a.71.71,0,0,1-.58-.36c-.1-.17-.21-.34-.32-.51-.21-.35-.44-.7-.67-1.05a.43.43,0,0,0-.28-.17l-3.23-.49-3.23-.48a.53.53,0,0,0-.55.19c-.33.39-.68.77-1,1.14l-.3.32c-.13.14-.23.2-.33.2h0a.5.5,0,0,1-.34-.2L3.34,12.79a.44.44,0,0,1-.16-.33c0-.1.07-.19.2-.3L3.56,12l1.07-.87a.28.28,0,0,0,.13-.34c-.23-1-.39-1.72-.53-2.42A3.6,3.6,0,0,1,5.45,4.85a2,2,0,0,1,2.07-.46,2.44,2.44,0,0,1,.88.55c.41.4.79.81,1.19,1.25.16.16.32.33.47.5l.32-.25c.24-.21.48-.4.72-.59a.38.38,0,0,1,.62,0C13.34,7.61,15,9.32,16.57,11c.22.23.22.36,0,.61l-1.68,1.83-.84.91-.14.16h0l2.06.83.65.26c.67.26,1.36.54,2,.82a.32.32,0,0,0,.35,0l.68-.43.7-.45a.73.73,0,0,1,.87-.07.71.71,0,0,1,.23.83c-.25,1.08-.5,2.21-.78,3.47a.69.69,0,0,1-.55.58ZM11.58,17.2h.15l3.22.48,3.23.49a.55.55,0,0,1,.35.22c.24.34.46.7.68,1.05l.32.5a.56.56,0,0,0,1.06-.19c.28-1.26.53-2.39.78-3.47a.63.63,0,0,0-.19-.73c-.22-.15-.44-.13-.75.07l-.71.45-.67.43a.43.43,0,0,1-.45,0l-2-.82-.65-.26-2.13-.86-.07,0,.1-.11a1,1,0,0,1,.14-.15l.84-.92c.55-.61,1.11-1.21,1.67-1.82.2-.22.2-.29,0-.48L11.65,6c-.19-.2-.27-.21-.48,0l-.73.59-.39.32,0,0-.5-.54c-.4-.43-.78-.84-1.19-1.24a2.38,2.38,0,0,0-.84-.53,1.91,1.91,0,0,0-2,.44A3.48,3.48,0,0,0,4.33,8.36c.13.7.3,1.47.52,2.42a.37.37,0,0,1-.16.44c-.36.28-.72.58-1.07.87l-.18.15c-.11.09-.16.16-.16.23s0,.15.13.25L9.24,18.9c.11.11.19.16.26.16h0c.07,0,.15,0,.26-.17l.3-.32c.34-.37.7-.74,1-1.13A.59.59,0,0,1,11.58,17.2Zm8.51,2.67L20,19.8a.69.69,0,0,1-.24-.69c.23-.94.43-1.79.59-2.61a.73.73,0,0,1,.53-.58l.08,0Zm.76-3.82a.61.61,0,0,0-.38.48c-.17.81-.36,1.66-.59,2.61a.52.52,0,0,0,.15.53Zm-1.33,3-.07-.1c-.06-.11-.13-.2-.19-.3s-.27-.42-.39-.63a.57.57,0,0,0-.45-.3l-3.17-.46-1.43-.22-2.37-.35a.44.44,0,0,0-.45.15c-.2.23-.4.45-.62.68l-.26.28,0,0,0,0L4.53,12l0,0L10.3,7.23,10.63,7l0,0,4.76,5-.75.81-1.39,1.52c-.16.17-.22.28-.2.36s.12.14.32.23l1.34.54,3.83,1.55a.53.53,0,0,0,.57-.05c.18-.13.36-.24.57-.37l.3-.18.1-.07Zm-8.18-2.47h.13l2.36.36,1.44.21,3.16.46A.62.62,0,0,1,19,18c.12.21.25.41.39.63a2.14,2.14,0,0,1,.13.19l.5-2.21a1.06,1.06,0,0,1-.2.12c-.2.13-.38.24-.56.37a.63.63,0,0,1-.66.06l-3.84-1.55-1.33-.54c-.25-.1-.36-.19-.39-.3s0-.25.22-.44l1.4-1.52.68-.75L10.62,7.1l-.26.21L4.67,12l5.41,5.74.23-.24c.21-.23.42-.45.61-.67A.52.52,0,0,1,11.34,16.59Zm-1.85,1.9,0,0-5.6-5.94.46-.38,0,0L9.86,18l0,0-.17.18-.2.22ZM4,12.52l5.49,5.82.17-.18.1-.11L4.3,12.27Zm11.62-.68,0,0-4.74-5,.52-.43,4.7,5-.15.17-.26.3ZM11,6.79l4.62,4.9.23-.26.09-.1L11.37,6.49ZM5.3,10.66V10.6c0-.17-.08-.34-.11-.51-.09-.38-.17-.77-.24-1.15,0-.08,0-.16-.05-.25a7.85,7.85,0,0,1-.15-1.27A2.84,2.84,0,0,1,6,5.12a1.42,1.42,0,0,1,1.84.1c.43.41.85.86,1.25,1.29l.54.57,0,0-.22.18-.22.18,0,0,0,0-.53-.56c-.35-.36-.69-.73-1-1.09a.93.93,0,0,0-1.46,0,2.42,2.42,0,0,0-.75,2.53c.1.41.18.83.27,1.23l.06.3c.1.48.09.5-.39.78ZM6.9,4.93a1.36,1.36,0,0,0-.81.27A2.76,2.76,0,0,0,4.84,7.42,6.67,6.67,0,0,0,5,8.67c0,.09,0,.17,0,.25.06.38.15.77.23,1.15,0,.14.07.29.1.44.37-.22.37-.24.28-.64l-.06-.29c-.08-.41-.17-.83-.27-1.24a2.53,2.53,0,0,1,.79-2.63,1,1,0,0,1,1.59,0l1,1.09.5.53.19-.15.13-.11-.5-.53c-.4-.43-.82-.88-1.25-1.29A1.27,1.27,0,0,0,6.9,4.93Zm-.65,5,0-.08c0-.2-.09-.41-.13-.61-.08-.39-.16-.77-.25-1.16a1.94,1.94,0,0,1,.72-2,.44.44,0,0,1,.67,0c.37.38.73.77,1.09,1.16l.53.56,0,0ZM6.9,6a.45.45,0,0,0-.27.13A1.83,1.83,0,0,0,6,8.07c.08.38.17.77.25,1.16,0,.18.07.35.11.53l2.4-2-.45-.48L7.17,6.16A.38.38,0,0,0,6.9,6Z"/><path class="cls-1" d="M22.43,23.66q0,.38-.24.36c-.2,0-.25-.15-.26-.32a.25.25,0,0,1,.5,0Z"/><path class="cls-1" d="M22.19,24.07h0c-.19,0-.29-.13-.3-.36a.32.32,0,0,1,.08-.24.34.34,0,0,1,.21-.09h0a.29.29,0,0,1,.31.27h0a.53.53,0,0,1-.09.35A.26.26,0,0,1,22.19,24.07Zm0-.59h0a.17.17,0,0,0-.14.06.21.21,0,0,0-.05.16c0,.19.07.27.21.27h0a.17.17,0,0,0,.13,0,.43.43,0,0,0,.06-.27h0A.19.19,0,0,0,22.17,23.48Z"/><path class="cls-1" d="M23.91,21.69c-.16.13-.26.26-.36.26s-.25-.13-.25-.31.09-.29.23-.26S23.74,21.55,23.91,21.69Z"/><path class="cls-1" d="M23.53,22a.24.24,0,0,1-.17-.06.39.39,0,0,1-.11-.3.31.31,0,0,1,.1-.26.23.23,0,0,1,.2-.05.56.56,0,0,1,.25.18l.15.15,0,0,0,0-.15.13a.36.36,0,0,1-.23.14Zm0-.57-.08,0a.27.27,0,0,0-.06.19.32.32,0,0,0,.07.22.15.15,0,0,0,.13,0c.05,0,.11,0,.18-.12l.11-.09-.11-.1c-.08-.08-.14-.15-.21-.16Z"/><path class="cls-1" d="M23.09,20.54c.05-.05.13-.18.23-.19s.29.15.28.32a.36.36,0,0,1-.21.25C23.19,21,23.12,20.79,23.09,20.54Z"/><path class="cls-1" d="M23.35,21a.3.3,0,0,1-.16-.05.55.55,0,0,1-.15-.39v0l0,0,.05-.05c.06-.06.13-.14.21-.15a.28.28,0,0,1,.24.08.37.37,0,0,1,.1.29c0,.11-.14.29-.26.3Zm-.21-.42a.47.47,0,0,0,.11.29.17.17,0,0,0,.13,0c.05,0,.16-.13.17-.21a.26.26,0,0,0-.07-.21.18.18,0,0,0-.16-.05c-.05,0-.1.07-.14.12A.08.08,0,0,0,23.14,20.56Z"/><path class="cls-1" d="M22.07,20.49c-.16.12-.24.22-.34.24s-.35-.17-.3-.33.18-.24.24-.22S21.89,20.35,22.07,20.49Z"/><path class="cls-1" d="M21.69,20.79a.37.37,0,0,1-.31-.4.45.45,0,0,1,.21-.24.1.1,0,0,1,.09,0,.7.7,0,0,1,.28.2l.14.12,0,0,0,0-.14.11a.54.54,0,0,1-.22.14Zm0-.56a.41.41,0,0,0-.18.19.24.24,0,0,0,.08.19c.06.06.11.09.16.08a.58.58,0,0,0,.19-.13l.09-.07-.1-.09A.67.67,0,0,0,21.65,20.23Z"/><path class="cls-1" d="M22.09,18.59a2.12,2.12,0,0,1,.32.43s-.15.21-.24.22a.29.29,0,0,1-.32-.29C21.86,18.85,22,18.76,22.09,18.59Z"/><path class="cls-1" d="M22.15,19.29a.36.36,0,0,1-.25-.1.32.32,0,0,1-.1-.25.53.53,0,0,1,.14-.23l.11-.14,0-.06,0,0,.12.15a1,1,0,0,1,.2.29.09.09,0,0,1,0,.09.5.5,0,0,1-.27.2Zm-.06-.61-.08.1a.43.43,0,0,0-.11.17.21.21,0,0,0,.07.17.27.27,0,0,0,.2.07s.17-.12.19-.16a1.19,1.19,0,0,0-.18-.25Zm.27.36Z"/><path class="cls-1" d="M23.9,19.4a1.29,1.29,0,0,1-.23-.36c0-.06.14-.16.22-.24a1.34,1.34,0,0,1,.31.32c0,.05-.12.18-.19.27Z"/><path class="cls-1" d="M23.88,19.45l0,0-.07-.1a.91.91,0,0,1-.17-.28c0-.07.06-.14.15-.21l.09-.08,0,0,0,0,.09.09a.75.75,0,0,1,.22.25c0,.06,0,.14-.11.23l-.08.09v0h-.16Zm0-.59-.05.05c-.05,0-.12.1-.12.12a.75.75,0,0,0,.14.24.27.27,0,0,1,.07.08H24l.06-.07a.76.76,0,0,0,.1-.14.77.77,0,0,0-.2-.21Z"/><path class="cls-1" d="M22.9,20.12a1.92,1.92,0,0,1-.3-.45c0-.05.15-.21.24-.22a.28.28,0,0,1,.3.31C23.14,19.85,23,19.94,22.9,20.12Z"/><path class="cls-1" d="M22.9,20.2l0-.05L22.74,20a.75.75,0,0,1-.18-.3.15.15,0,0,1,0-.11.45.45,0,0,1,.25-.18.31.31,0,0,1,.24.08.37.37,0,0,1,.12.28.39.39,0,0,1-.13.23l-.12.16Zm0-.7h0a.4.4,0,0,0-.19.17,1.23,1.23,0,0,0,.17.25l.08.11.08-.1c.06-.07.11-.13.11-.17a.26.26,0,0,0-.09-.21A.19.19,0,0,0,22.87,19.5Z"/><path class="cls-1" d="M25.12,20.93c-.17.13-.27.25-.37.25s-.25-.15-.25-.31.09-.29.24-.25S25,20.78,25.12,20.93Z"/><path class="cls-1" d="M24.73,21.23a.25.25,0,0,1-.17-.06.38.38,0,0,1-.11-.3.33.33,0,0,1,.09-.26.26.26,0,0,1,.21,0,.56.56,0,0,1,.25.18l.15.15.05,0-.05,0L25,21.1c-.09.07-.16.13-.24.13Zm0-.57a.11.11,0,0,0-.08,0,.25.25,0,0,0-.07.18.35.35,0,0,0,.09.23.12.12,0,0,0,.12,0c.05,0,.11-.05.18-.11l.11-.09-.11-.11c-.08-.08-.14-.14-.2-.15Z"/><path class="cls-1" d="M21.56,21.48c.18-.12.27-.23.38-.24s.24.16.24.32-.1.29-.25.25S21.72,21.64,21.56,21.48Z"/><path class="cls-1" d="M22,21.87h-.08a.55.55,0,0,1-.24-.2l-.15-.14,0-.05.05,0,.16-.12a.52.52,0,0,1,.24-.13.26.26,0,0,1,.2.07.39.39,0,0,1,.1.31.33.33,0,0,1-.11.26A.28.28,0,0,1,22,21.87Zm-.35-.38a.94.94,0,0,0,.1.1.56.56,0,0,0,.2.17.16.16,0,0,0,.12,0,.26.26,0,0,0,.07-.19.33.33,0,0,0-.07-.23.15.15,0,0,0-.12,0,.56.56,0,0,0-.19.11Z"/><path class="cls-1" d="M21.77,22.55c.09-.07.17-.2.27-.21s.26.15.26.32a.22.22,0,0,1-.24.26C21.88,22.92,21.8,22.79,21.77,22.55Z"/><path class="cls-1" d="M22.07,23h0c-.24,0-.31-.21-.34-.41v0l0,0,.08-.07a.44.44,0,0,1,.22-.15.23.23,0,0,1,.21.06.39.39,0,0,1,.11.31.28.28,0,0,1-.08.24A.27.27,0,0,1,22.07,23Zm-.25-.4c0,.22.11.3.24.3h0a.17.17,0,0,0,.13,0,.2.2,0,0,0,.05-.17.34.34,0,0,0-.07-.24.14.14,0,0,0-.13,0,.41.41,0,0,0-.17.12Z"/><path class="cls-1" d="M24,22.67c-.05.22-.13.33-.29.32s-.25-.16-.26-.32.1-.29.25-.26S23.92,22.58,24,22.67Z"/><path class="cls-1" d="M23.74,23h0c-.14,0-.29-.07-.31-.37a.33.33,0,0,1,.1-.26.23.23,0,0,1,.21,0,.47.47,0,0,1,.24.18l.09.08,0,0v0C24,22.85,24,23,23.74,23Zm-.07-.58a.11.11,0,0,0-.08,0,.19.19,0,0,0-.07.17c0,.24.13.28.21.28h0c.1,0,.18-.05.23-.25l-.07-.08a.77.77,0,0,0-.19-.15Z"/><path class="cls-1" d="M21.64,17.82c-.15-.16-.28-.25-.31-.37s.15-.22.25-.23.34.08.31.28S21.76,17.68,21.64,17.82Z"/><path class="cls-1" d="M21.64,17.9l0,0-.13-.13a.72.72,0,0,1-.19-.26s0-.06,0-.11a.48.48,0,0,1,.27-.19h0a.38.38,0,0,1,.26.1.3.3,0,0,1,.07.24.45.45,0,0,1-.14.22.77.77,0,0,0-.12.13Zm0-.63h0c-.06,0-.2.14-.2.18a.77.77,0,0,0,.16.21l.1.09a.38.38,0,0,1,.09-.09c.06-.07.11-.12.11-.16a.17.17,0,0,0,0-.16A.29.29,0,0,0,21.61,17.27Z"/><path class="cls-1" d="M23.51,18.47c-.09.06-.22.19-.27.17a1.54,1.54,0,0,1-.34-.29c.08-.08.18-.23.25-.22a1.29,1.29,0,0,1,.36.23Z"/><path class="cls-1" d="M23.25,18.69h0a.73.73,0,0,1-.26-.2l-.09-.09,0,0,0,0,.07-.08c.08-.09.14-.16.22-.15a.88.88,0,0,1,.28.16l.1.07,0,0v.17l0,0-.09.06C23.37,18.64,23.31,18.69,23.25,18.69ZM23,18.35l.06.06a.73.73,0,0,0,.22.18.51.51,0,0,0,.14-.09l.07-.05v-.07l-.08-.06a.75.75,0,0,0-.24-.14L23,18.3S23,18.33,23,18.35Z"/><path class="cls-1" d="M22.38,17.49a2.21,2.21,0,0,1,.32.41s-.15.2-.24.21a.28.28,0,0,1-.33-.28C22.14,17.74,22.26,17.66,22.38,17.49Z"/><path class="cls-1" d="M22.42,18.17a.35.35,0,0,1-.24-.1.3.3,0,0,1-.1-.24.45.45,0,0,1,.14-.22,1,1,0,0,0,.12-.15l0-.05,0,.05.12.14a1.28,1.28,0,0,1,.21.28s0,.06,0,.07a.5.5,0,0,1-.28.21Zm0-.6-.08.1a.44.44,0,0,0-.12.17.2.2,0,0,0,.07.16.23.23,0,0,0,.2.06c.06,0,.17-.11.2-.15a1.24,1.24,0,0,0-.19-.24Zm.28.35Z"/><path class="cls-1" d="M24.79,22.13a.34.34,0,0,1-.1-.25c0-.17.08-.27.24-.27a.33.33,0,0,1,.19.07"/><path class="cls-1" d="M24.76,22.17a.43.43,0,0,1-.12-.29c0-.21.11-.32.29-.32h0a.32.32,0,0,1,.22.09l-.06.07a.28.28,0,0,0-.16-.06c-.08,0-.19,0-.19.22a.31.31,0,0,0,.09.21Z"/><path class="cls-1" d="M21.51,18.77c-.24-.05-.43-.08-.4-.29a.3.3,0,0,1,.22-.23c.16,0,.35.05.33.26S21.55,18.69,21.51,18.77Z"/><path class="cls-1" d="M21.53,18.82h0c-.24-.05-.47-.09-.44-.34a.35.35,0,0,1,.27-.28.38.38,0,0,1,.31.09.28.28,0,0,1,.07.22.36.36,0,0,1-.11.22l-.05.06Zm-.16-.52h0a.27.27,0,0,0-.18.19c0,.14.07.18.32.22l0,0a.33.33,0,0,0,.09-.16.18.18,0,0,0,0-.15A.32.32,0,0,0,21.37,18.3Z"/><path class="cls-1" d="M21.48,19.68c-.1.05-.24.18-.29.15s-.21-.2-.31-.32c.08-.07.19-.22.25-.2a1.42,1.42,0,0,1,.36.26Z"/><path class="cls-1" d="M21.21,19.89h-.05a1,1,0,0,1-.24-.23.39.39,0,0,0-.08-.1l0,0,0,0,.09-.09c.08-.08.14-.15.22-.13a1,1,0,0,1,.27.18l.1.09h0v.17h0l-.09.06A.45.45,0,0,1,21.21,19.89ZM21,19.52l.05.07a.79.79,0,0,0,.21.2.63.63,0,0,0,.14-.09l.08-.05v-.06l-.08-.07a.67.67,0,0,0-.24-.16s-.08.07-.12.1Z"/><path class="cls-1" d="M24.51,19.6c.08.12.2.23.22.36s-.13.23-.22.24-.29-.14-.28-.31.11-.19.17-.28Z"/><path class="cls-1" d="M24.48,20.26a.27.27,0,0,1-.19-.08.36.36,0,0,1-.11-.29.49.49,0,0,1,.11-.23.27.27,0,0,0,.07-.08v0h.17v0l.08.1a.85.85,0,0,1,.15.28.23.23,0,0,1-.06.16c0,.06-.13.14-.2.14Zm-.05-.61-.06.08a.33.33,0,0,0-.09.16.27.27,0,0,0,.08.22.16.16,0,0,0,.15,0s.08,0,.13-.1a.18.18,0,0,0,0-.08.57.57,0,0,0-.13-.24l-.06-.08Z"/></g></svg>