<svg id="Layer_1" data-name="Layer 1" xmlns="http://www.w3.org/2000/svg" viewBox="0 0 28.35 28.35"><defs><style>.cls-1{fill:#484551;}</style></defs><path class="cls-1" d="M14.17.93A13.24,13.24,0,1,1,.93,14.17,13.24,13.24,0,0,1,14.17.93m0-.93A14.18,14.18,0,1,0,28.35,14.17,14.19,14.19,0,0,0,14.17,0Z"/><path class="cls-1" d="M15.18,23.11a.52.52,0,1,1,0,1h-2a.52.52,0,1,1,0-1Z"/><path class="cls-1" d="M15.88,21.71a.52.52,0,1,1,0,1H12.47a.52.52,0,1,1,0-1Z"/><path class="cls-1" d="M15.88,20.31a.52.52,0,1,1,0,1H12.47a.52.52,0,1,1,0-1Z"/><path class="cls-1" d="M18.74,6.06a6.53,6.53,0,0,0-9.13,0A6.07,6.07,0,0,0,7.7,10.54a6.45,6.45,0,0,0,1.35,3.73c.66.9,1.11,1.56,1.35,2a7,7,0,0,1,.8,3.5V20h5.94v-.22a6.93,6.93,0,0,1,.77-3.5c.11-.2.58-.86,1.39-2a6.44,6.44,0,0,0,1.34-3.73A6.09,6.09,0,0,0,18.74,6.06Zm-3,12.85v-4.7l1.5-3H16.12l-1.4,2.89v4.81H13.64V14.17l-1.42-3H11.1l1.5,3v4.7h-.36a6.66,6.66,0,0,0-.94-3.19,4.57,4.57,0,0,0-.58-1l-.84-1.13a5.31,5.31,0,0,1-1.14-3.1,5.26,5.26,0,0,1,1.7-3.78,5.11,5.11,0,0,1,3.73-1.53,5.12,5.12,0,0,1,3.74,1.53,5.26,5.26,0,0,1,1.7,3.78,5.27,5.27,0,0,1-1.15,3.09l-.24.32a.21.21,0,0,0-.09.15l0,0a18,18,0,0,0-1.06,1.59,6.89,6.89,0,0,0-.94,3.2Z"/></svg>