<svg id="Layer_1" data-name="Layer 1" xmlns="http://www.w3.org/2000/svg" viewBox="0 0 28.35 28.35"><defs><style>.cls-1{fill:#484551;}</style></defs><path class="cls-1" d="M14.17.93A13.24,13.24,0,1,1,.93,14.17,13.24,13.24,0,0,1,14.17.93m0-.93A14.18,14.18,0,1,0,28.34,14.17,14.19,14.19,0,0,0,14.17,0Z"/><g id="LhmvBg.tif"><path class="cls-1" d="M20.19,14.11a5.69,5.69,0,0,1-2.47,4.82,7.69,7.69,0,0,1-3.32,1.32,12,12,0,0,0-2.34.52,3.55,3.55,0,0,0-1.25.81c-.66.67-1.32,1.33-2,2a1.19,1.19,0,0,1-1.75,0L4.84,21.34a1.19,1.19,0,0,1,0-1.88c.57-.57,1.12-1.16,1.71-1.7a4.38,4.38,0,0,0,1.34-2.58,16.6,16.6,0,0,1,.6-2.78,6.26,6.26,0,0,1,3.42-3.81,5.6,5.6,0,0,1,4.47,0,6,6,0,0,1,3.69,4.5A8,8,0,0,1,20.19,14.11Zm-9.52,7a4.13,4.13,0,0,1,1.76-.91c.49-.12,1-.21,1.47-.3a8.93,8.93,0,0,0,2.69-.77,5.77,5.77,0,0,0,2.7-2.75,5.15,5.15,0,0,0-.16-4.5,5.44,5.44,0,0,0-5-3.18,4.84,4.84,0,0,0-3.73,1.56,7,7,0,0,0-1.86,4.08A8.77,8.77,0,0,1,8,16.51c-.19.42-.45.81-.67,1.21Zm-3.73-3L6,19l3.32,3.33.94-.95ZM5.57,19.41l-.45.45a.68.68,0,0,0,0,1.06c.77.79,1.55,1.57,2.34,2.35a.67.67,0,0,0,.88.08A6.76,6.76,0,0,0,9,22.78Z"/><path class="cls-1" d="M22.75,14.41h-.86c-.22,0-.32-.09-.32-.25s.11-.24.33-.24h1.74c.16,0,.3.05.31.24s-.1.25-.3.25Z"/><path class="cls-1" d="M19.56,19.29a1,1,0,0,1,.22.14l1.27,1.27c.12.12.16.24,0,.37s-.25.09-.37,0c-.43-.42-.86-.85-1.28-1.29a.34.34,0,0,1-.07-.28C19.38,19.4,19.48,19.35,19.56,19.29Z"/><path class="cls-1" d="M13.94,5.59c0-.3,0-.6,0-.9s.06-.27.23-.29.26.12.26.29V6.5c0,.16-.08.28-.25.28s-.24-.11-.24-.28S13.94,5.9,13.94,5.59Z"/><path class="cls-1" d="M7.44,7.16a1.51,1.51,0,0,1,.21.14L8.91,8.56c.14.14.16.29.05.38a.26.26,0,0,1-.38,0c-.42-.43-.85-.85-1.26-1.28a.36.36,0,0,1-.08-.3C7.25,7.27,7.36,7.22,7.44,7.16Z"/><path class="cls-1" d="M19.6,9a.23.23,0,0,1-.22-.36.44.44,0,0,1,.09-.11L20.7,7.31l.05,0a.23.23,0,0,1,.34,0,.21.21,0,0,1,0,.32c-.45.46-.9.91-1.36,1.36A.3.3,0,0,1,19.6,9Z"/><path class="cls-1" d="M14.17,9.87a4.26,4.26,0,0,1,2.58.86c.05,0,.11.07.13.12s.06.19,0,.25a.3.3,0,0,1-.23.11.47.47,0,0,1-.2-.1,3.81,3.81,0,0,0-5.61,1.2c-.1.18-.24.24-.37.17s-.16-.23-.06-.4a4.26,4.26,0,0,1,3.14-2.16C13.77,9.89,14,9.89,14.17,9.87Z"/></g></svg>