<svg id="Layer_1" data-name="Layer 1" xmlns="http://www.w3.org/2000/svg" viewBox="0 0 28.35 28.35"><defs><style>.cls-1{fill:#484551;}</style></defs><path class="cls-1" d="M14.17.93A13.24,13.24,0,1,1,.93,14.17,13.24,13.24,0,0,1,14.17.93m0-.93A14.18,14.18,0,1,0,28.35,14.17,14.19,14.19,0,0,0,14.17,0Z"/><g id="NuqcHp.tif"><path class="cls-1" d="M21.68,14.41c-.06-.8-.16-1.6-.24-2.41a1.93,1.93,0,0,0-2.17-1.91,23.53,23.53,0,0,0-2.78.25c-.27,0-.54.1-.73.13L15,9.37c-.22-.31-.48-.39-.73-.23s-.3.46-.09.78l.46.76c-.74.24-.74.24-1.1-.37a.36.36,0,0,0,0-.09.48.48,0,0,0-.66-.19.45.45,0,0,0-.23.64l.26.53-.65.22c-.18-.21-.3-.46-.5-.54s-.43,0-.66,0c-.08,0-.16-.13-.25-.23-.63-.73-1-.83-1.79-.33S7.67,11.3,7,11.8a2.57,2.57,0,0,0-1,2.32,4.36,4.36,0,0,1,0,.62A.69.69,0,0,1,5.9,15a2.76,2.76,0,0,0-.15.43,7.12,7.12,0,0,0,0,.8c0,.24,0,.5.25.58a2.65,2.65,0,0,0,.63,0,9.59,9.59,0,0,0,3.62,1.67A.88.88,0,0,0,11.43,18c.24-.44.42-.91.64-1.4l.73.14c-.05.21-.1.39-.14.57a.52.52,0,0,0,.35.62.48.48,0,0,0,.61-.36c.08-.22.14-.45.2-.68l.78,0c-.1.32-.19.59-.27.86a.5.5,0,0,0,.33.64.49.49,0,0,0,.62-.34c.14-.37.26-.73.39-1.12l.84,0c-.19.5-.41,1-.56,1.49a.42.42,0,0,0,.32.5.43.43,0,0,0,.57-.18c.11-.21.19-.44.29-.66.19-.4.37-.79-.16-1.13l.29,0c1-.13,1.95-.19,2.9-.41A1.76,1.76,0,0,0,21.68,14.41Zm-11.07,3a.43.43,0,0,1-.4.11c-.64-.26-1.28-.56-1.92-.82a2.35,2.35,0,0,1-1.38-2.3,2,2,0,0,1,.81-2l1.89-1.3a.26.26,0,0,1,.41.07l.69,1a4.75,4.75,0,0,0-.69.54c-.28.31-.51.66-.78,1a.61.61,0,0,1-.29.22c-.26.05-.53.06-.79.09a.44.44,0,0,0-.4.51c0,.27.22.5.49.42.74-.22,1.18.13,1.64.66a5.33,5.33,0,0,0,1.21.75C11,16.68,10.81,17.07,10.61,17.44Zm9.54-1.88a3.45,3.45,0,0,1-.42.14,20,20,0,0,1-7.56,0,4.46,4.46,0,0,1-1.82-.88c.55-.12.71-.25.7-.55s-.18-.39-.73-.5a3.3,3.3,0,0,1,1.35-1A20.4,20.4,0,0,1,19,11a2.38,2.38,0,0,1,.38,0c.8.1,1,.3,1.1,1.1s.15,1.35.22,2a5.82,5.82,0,0,1,0,.59A.82.82,0,0,1,20.15,15.56Z"/><path class="cls-1" d="M2.85,16.29a.46.46,0,0,1-.41.54c-.27,0-.48-.14-.53-.46,0-.12,0-.23,0-.35s0-.22,0-.29l-.69,0c0,.12,0,.29,0,.46a1.3,1.3,0,0,1,0,.28A12.16,12.16,0,0,1,1,14.17a2.44,2.44,0,0,1,0-.27.4.4,0,0,1,.27-.15.51.51,0,0,1,.56.49c0,.23.05.45.07.63a1.6,1.6,0,0,1,.57,0c.25.07.31.31.33.55S2.83,16,2.85,16.29Z"/><path class="cls-1" d="M3.9,15.32c-.51.41-.9.25-1-.33-.05-.3-.1-.59-.14-.89a.51.51,0,0,1,.41-.59.53.53,0,0,1,.59.42c.08.36.15.74.22,1.13a1.8,1.8,0,0,1,.36-.19,2.66,2.66,0,0,1,.39,0c-.06-.3-.15-.67-.22-1s.06-.55.34-.62a.52.52,0,0,1,.64.41c.08.28.15.56.22.84.14.58-.18.88-.77.7,0,.4,0,.81,0,1.21s-.18.58-.49.58S4,16.73,4,16.36,3.92,15.7,3.9,15.32Z"/><path class="cls-1" d="M22.14,4.08c.28.29.29.55.09.77a.49.49,0,0,1-.71.06,10.69,10.69,0,0,1-.81-.7.47.47,0,0,1-.06-.68.45.45,0,0,1,.67-.11C21.63,3.65,21.91,3.89,22.14,4.08Z"/><path class="cls-1" d="M19.43,6.45a3.68,3.68,0,0,1,.33.35.46.46,0,0,1,0,.67.47.47,0,0,1-.71,0q-.39-.39-.75-.81A.5.5,0,0,1,19,6c.15.14.29.29.43.44Z"/><path class="cls-1" d="M22.09,19.66a1.06,1.06,0,0,1,0,.49,6.1,6.1,0,0,1-.58.94.45.45,0,0,1-.66.12.44.44,0,0,1-.18-.63c.18-.34.38-.68.59-1S21.79,19.3,22.09,19.66Z"/><path class="cls-1" d="M25.06,21.75a.79.79,0,0,0-.17-.2.47.47,0,0,0-.7.06c-.2.28-.47.6-.69.94a.46.46,0,0,0,.14.62.38.38,0,0,0,.18.09Z"/><path class="cls-1" d="M22.92,22.07a.49.49,0,0,1-.68.07.45.45,0,0,1-.15-.61,10.13,10.13,0,0,1,.69-1,.42.42,0,0,1,.62-.06.47.47,0,0,1,.21.62C23.4,21.44,23.13,21.77,22.92,22.07Z"/><path class="cls-1" d="M19.9,20.38c-.19,0-.43.06-.55,0a.64.64,0,0,1-.23-.54,5.66,5.66,0,0,1,.56-1.13.43.43,0,0,1,.61-.14.44.44,0,0,1,.28.56C20.4,19.52,20.15,19.91,19.9,20.38Z"/><path class="cls-1" d="M21,5.38a1.69,1.69,0,0,1,.1.65c0,.14-.26.29-.42.33-.36.08-1.35-.93-1.3-1.3a.49.49,0,0,1,.78-.33c.26.2.5.44.75.66Z"/><path class="cls-1" d="M18.37,19.62c-.21,0-.45,0-.57-.05a.65.65,0,0,1-.23-.53,6.27,6.27,0,0,1,.48-1.14.45.45,0,0,1,.57-.19.46.46,0,0,1,.35.53A12.86,12.86,0,0,1,18.37,19.62Z"/><path class="cls-1" d="M16.66,8.62c.13.18.28.36.4.55a.45.45,0,0,1-.15.66.44.44,0,0,1-.67-.08c-.23-.28-.45-.58-.65-.88a.48.48,0,0,1,.11-.7.46.46,0,0,1,.67.1c.1.11.19.24.28.35Z"/><path class="cls-1" d="M17.35,8.27A5.32,5.32,0,0,1,17,7.82a.47.47,0,0,1,.07-.7.45.45,0,0,1,.67,0q.38.41.72.84a.5.5,0,0,1-.07.71.52.52,0,0,1-.71-.07l-.32-.36Z"/><path class="cls-1" d="M19.59,12.48A.52.52,0,0,0,19,12q-.45,0-.9.09a1.43,1.43,0,0,0,.5,2.81l.65-.07c.4-.05.55-.21.51-.62C19.71,13.62,19.65,13.05,19.59,12.48ZM18,13.72a.58.58,0,0,1-.06-.43c.1-.35.41-.3.71-.31l.09.9C18.48,14,18.2,14,18,13.72Z"/></g></svg>