<svg id="Layer_1" data-name="Layer 1" xmlns="http://www.w3.org/2000/svg" viewBox="0 0 28.35 28.35"><defs><style>.cls-1{fill:#484551;}</style></defs><g id="FfBEuK.tif"><path class="cls-1" d="M21.31,12.37H20.05l-.38-.94.89-1.12a.43.43,0,0,0,0-.69c-.6-.61-1.21-1.21-1.82-1.81-.26-.27-.45-.27-.72,0l-.25.25-.54.52a.25.25,0,0,1-.11,0l-.5-.16A5.05,5.05,0,0,0,16,8.29c-.08,0-.08,0-.08-.11,0-.32,0-.64,0-1V7c0-.36-.14-.5-.5-.5H12.85c-.34,0-.48.14-.49.5v.21c0,.32,0,.64,0,1,0,.08,0,.09-.1.11l-.54.17a4.11,4.11,0,0,1-.46.15.16.16,0,0,1-.14,0l-.53-.52-.25-.25c-.28-.28-.47-.28-.75,0L7.82,9.6c-.27.28-.28.43,0,.73l.17.21.64.8c.08.09.08.12,0,.21a3.67,3.67,0,0,0-.3.74c0,.07,0,.08-.13.08H7c-.35,0-.51.15-.51.49v2.63c0,.33.15.48.49.48h1.2c.08,0,.08,0,.1.06s.12.37.19.56.11.32.16.48a.23.23,0,0,1,0,.12l-.53.54L7.8,18c-.26.27-.26.45,0,.71l1.82,1.82c.26.26.46.26.73,0l.28-.28.5-.5.07,0,.94.33.22.08v1.24c0,.36.15.5.51.5h2.59c.36,0,.5-.14.5-.5V20.1L16.2,20l.91-.33.09,0,.45.45.36.36a.42.42,0,0,0,.68,0c.62-.61,1.24-1.23,1.85-1.85.25-.24.24-.44,0-.69L20.48,18l-.73-.73c-.07-.06-.08-.09,0-.18.11-.29.22-.61.34-1,0-.08,0-.08.1-.08h1.16c.39,0,.53-.14.53-.52V12.9C21.84,12.52,21.69,12.37,21.31,12.37ZM21,15.16H19.93c-.42,0-.49.09-.61.46s-.28.87-.49,1.43a.48.48,0,0,0,.13.54l.76.72-1.39,1.4-.14-.13L17.62,19a.55.55,0,0,0-.68-.11,12.93,12.93,0,0,1-1.36.44.51.51,0,0,0-.43.56V21h-2V19.9c0-.37-.11-.46-.43-.56-.48-.15-1-.32-1.46-.5a.49.49,0,0,0-.54.12l-.54.55L10,19.7l-1.4-1.4.13-.13.54-.5c.29-.29.29-.36.16-.69l0-.06A10.78,10.78,0,0,1,9,15.57a.49.49,0,0,0-.53-.41h-.4c-.25,0-.5,0-.75,0v-2H8.38c.44,0,.5-.06.64-.48a8.18,8.18,0,0,1,.43-1A.56.56,0,0,0,9.39,11c-.21-.25-.42-.51-.62-.77L8.59,10,10,8.62l.66.67c.29.29.35.29.69.16l.05,0c.38-.14.78-.26,1.17-.38l.16,0c.34-.11.44-.19.44-.56V7.32h2v.9c0,.63,0,.68.59.82l.18.05A9.86,9.86,0,0,1,17,9.47a.48.48,0,0,0,.58-.1l.6-.6.15-.14L19.74,10l-.12.15-.6.76c-.27.33-.28.4-.11.76l0,0a9.36,9.36,0,0,1,.41,1.06.47.47,0,0,0,.49.38H21Z"/><path class="cls-1" d="M16.42,11.91A3.13,3.13,0,0,0,14.17,11h0A3.21,3.21,0,0,0,11,14.16a3.23,3.23,0,0,0,3.2,3.21h0a3.19,3.19,0,0,0,2.25-5.46Zm-2.25,4.65h0a2.4,2.4,0,0,1-2.39-2.4,2.37,2.37,0,0,1,.72-1.69,2.33,2.33,0,0,1,1.66-.69h0a2.4,2.4,0,0,1,2.38,2.4,2.39,2.39,0,0,1-2.38,2.38Z"/></g></svg>