<svg id="Layer_1" data-name="Layer 1" xmlns="http://www.w3.org/2000/svg" viewBox="0 0 56.69 28.35"><defs><style>.cls-1{fill:#484551;}</style></defs><path class="cls-1" d="M25.52,2.12a9.77,9.77,0,0,0-8.46,14.64h1.65a8.31,8.31,0,0,1-1.58-4.87,8.39,8.39,0,1,1,8.39,8.38v1.37a9.76,9.76,0,1,0,0-19.52Z"/><path class="cls-1" d="M25.44,21.64h-22A.68.68,0,0,1,2.79,21a.69.69,0,0,1,.69-.69h22a.69.69,0,0,1,.69.69A.68.68,0,0,1,25.44,21.64Z"/><path class="cls-1" d="M50.22,21.49l-4.57,4.42a.71.71,0,0,1-.58.31.69.69,0,0,1-.57-1.07l3.91-3.43H35.28a.69.69,0,0,1,0-1.38H48.41L44.5,16.92a.69.69,0,0,1,.19-1,.7.7,0,0,1,1,.19l4.5,4.32.07.1A.85.85,0,0,1,50.22,21.49Z"/></svg>