<svg id="Layer_1" data-name="Layer 1" xmlns="http://www.w3.org/2000/svg" viewBox="0 0 28.35 28.35"><defs><style>.cls-1{fill:#484551;}</style></defs><path class="cls-1" d="M20.77,21.36a25.2,25.2,0,0,0-1.16-3.57l-.15-.39c-.63-1.73-1.25-3.44-1.87-5.18,0,0,0,0,0-.05L16.71,9.8a22.78,22.78,0,0,1-.19-4.13c0-.13.14-.27.22-.4s.32-.38.31-.54a.6.6,0,0,0-.69-.51c-1.21.11-2.45,0-3.66,0v0a3.36,3.36,0,0,0-.84,0,.77.77,0,0,0-.51.41c0,.17.13.4.22.61s.23.3.23.46c0,1.13,0,2.27,0,3.4a1.8,1.8,0,0,1-.11.56l-1.6,4.38v0c-.79,2.2-1.64,4.39-2.34,6.63a2.43,2.43,0,0,0,.39,2.44l0,0a2.43,2.43,0,0,0,1,.55c2.27.59,4.61.22,6.94.31a15.87,15.87,0,0,0,2.58-.12A3.21,3.21,0,0,0,20,23.35a2,2,0,0,0,.67-1,2.13,2.13,0,0,0,.1-.42A3,3,0,0,0,20.77,21.36ZM10.61,14.64v0c.56-1.84,1.54-3.61,1.85-5.5,0-1.23,0-2.47,0-3.77h3.4a14.39,14.39,0,0,0,.8,6.44,0,0,0,0,0,0,0l.09.22c.5,1.29,1,2.6,1.46,3.91-2.84,0-6.34-.28-8.65,1.52C9.92,16.51,10.26,15.58,10.61,14.64Zm8.91,8.12h0a3.74,3.74,0,0,1-2,.53H16.08c-2.31-.11-4.66.31-6.9-.34-1.39-.46-.68-2.13-.37-3.05l.25-.69c1.77-3.07,6.24-2.46,9.33-2.54l1.46,4.08C20.18,21.66,20.07,22.34,19.52,22.76Z"/><path class="cls-1" d="M7.58,21.71a2,2,0,0,0,.55,1.45A2.17,2.17,0,0,1,7.58,21.71Z"/></svg>