<svg id="Layer_1" data-name="Layer 1" xmlns="http://www.w3.org/2000/svg" viewBox="0 0 28.35 28.35"><defs><style>.cls-1{fill:#484551;}</style></defs><g id="Ch2pcD.tif"><path class="cls-1" d="M2.24,11.47l1.16-.38Q8.71,9.35,14,7.63a.47.47,0,0,1,.33,0l11.55,3.76.22.09L20.4,13.34c0,.6,0,1.16,0,1.73a.31.31,0,0,0,.1.17.6.6,0,0,1,0,.88.46.46,0,0,0-.11.27c0,1.2.07,2.39.1,3.59,0,.11,0,.21,0,.32a.41.41,0,0,1-.42.44.39.39,0,0,1-.39-.44c0-.81,0-1.63.07-2.44,0-.5,0-1,0-1.49a.26.26,0,0,0-.09-.18.61.61,0,0,1,0-1,.23.23,0,0,0,.1-.17c0-.44,0-.89,0-1.33a.59.59,0,0,0,0-.17l.49-.17-.29-.14-5.76-1.89c-.14,0-.29-.08-.35.11s.1.23.24.28l1.51.49,3.86,1.26.21.08L18.43,14l-4.1,1.33a.45.45,0,0,1-.28,0L2.33,11.51Z"/><path class="cls-1" d="M19.15,14.56v.21c0,1,0,2,0,3a.33.33,0,0,1-.14.29,7.59,7.59,0,0,1-9.56.1.57.57,0,0,1-.24-.5c0-1,0-1.92,0-2.89v-.24l.46.13L14,16.12a.57.57,0,0,0,.34,0l4.57-1.48Z"/></g></svg>