<svg id="Layer_1" data-name="Layer 1" xmlns="http://www.w3.org/2000/svg" viewBox="0 0 28.35 28.35"><defs><style>.cls-1{fill:#484551;}</style></defs><g id="w5alkf.tif"><path class="cls-1" d="M19.81,4c.07.28.15.54.2.81a8.67,8.67,0,0,1,.18,1.33A13.36,13.36,0,0,1,20,9a15.38,15.38,0,0,1-.83,2.89,15.74,15.74,0,0,1-1.05,2.19c-.3.53-.61,1.06-.95,1.56s-.72.94-1.1,1.4a15.86,15.86,0,0,1-2.72,2.52l-.54.41-.34-.34-.44.72L11.42,20a1.68,1.68,0,0,1,0,.84,2.71,2.71,0,0,1-1,1.36,6.83,6.83,0,0,1-2.05,1.08l-.22.07H8.09c0-.36-.07-.71-.09-1.07a5.35,5.35,0,0,1,.22-1.95A2.51,2.51,0,0,1,9,19.13c.14-.11.31-.2.48-.31L9,18.55l.41-.67-.27-.1a.43.43,0,0,1,0-.05,16.12,16.12,0,0,1,1.1-4.54,18.92,18.92,0,0,1,2-3.64,15.26,15.26,0,0,1,2.58-2.92A13.39,13.39,0,0,1,18,4.56,8.62,8.62,0,0,1,19.81,4ZM17.26,8.37a1.61,1.61,0,1,0,.5,2.3A1.62,1.62,0,0,0,17.26,8.37ZM8.93,22l.37-.13a2.73,2.73,0,0,0,1.33-1,1.41,1.41,0,0,0,.26-1.11.22.22,0,0,0-.09-.14c-.24-.15-.48-.3-.73-.44a.2.2,0,0,0-.15,0,1.11,1.11,0,0,0-.57.54A4.44,4.44,0,0,0,8.93,22Z"/><path class="cls-1" d="M16.36,17.82a5.71,5.71,0,0,1-2,6.22.76.76,0,0,0,0-.14,5.84,5.84,0,0,0-.46-3.17,2.53,2.53,0,0,0-.18-.37c0-.07,0-.11,0-.16a14.45,14.45,0,0,0,2.33-2.09A3.79,3.79,0,0,0,16.36,17.82Z"/><path class="cls-1" d="M8.48,17.13a5.86,5.86,0,0,0-3.63,1.19,5.85,5.85,0,0,1,1.3-2.79A5.71,5.71,0,0,1,9.37,13.6,17.4,17.4,0,0,0,8.48,17.13Z"/></g></svg>