<svg id="Layer_1" data-name="Layer 1" xmlns="http://www.w3.org/2000/svg" viewBox="0 0 28.35 28.35"><defs><style>.cls-1{fill:#484551;}</style></defs><path class="cls-1" d="M11.12,22.62c.07-.64.13-1.24.19-1.84l.12-1.32c.06-.65.13-1.3.19-2l.18-2,.33-3.34c.07-.82.14-1.65.22-2.47.05-.55.1-1.11.16-1.67,0-.2,0-.22.24-.22l1.87,0a2.18,2.18,0,0,1,.43,0s.08.06.08.09c.06.55.1,1.1.16,1.64s.13,1.32.19,2,.11,1.17.16,1.75.12,1.21.17,1.81.13,1.28.19,1.92.12,1.3.19,1.95.11,1.14.16,1.71.11,1.25.17,1.88a.27.27,0,0,1-.08.24L14,25.4c-.08.08-.11.07-.19,0L11.4,23a2.5,2.5,0,0,1-.22-.24.33.33,0,0,1-.06-.12"/><path class="cls-1" d="M13.88,6.77l-1.61.16c-.07,0-.12,0-.15-.08-.24-.51-.49-1-.71-1.54a2.74,2.74,0,0,1-.24-1.2.74.74,0,0,1,.35-.62A3.57,3.57,0,0,1,12.82,3a5.47,5.47,0,0,1,1.76,0,3.87,3.87,0,0,1,1.51.51.88.88,0,0,1,.39,1,6.59,6.59,0,0,1-.8,2.18c-.17.32-.17.31-.53.27s-.76-.05-1.27-.09"/><path class="cls-1" d="M16.4,10.75c.21.6.41,1.2.62,1.79l1.35,3.92,1.07,3.12a.14.14,0,0,1,0,.11c-.23.42-.46.84-.71,1.27l-.79-.34-.54-.22a.16.16,0,0,1-.12-.16c0-.42-.09-.84-.13-1.25l-.27-2.84c-.06-.69-.13-1.37-.2-2.06s-.1-1.21-.16-1.81-.09-.92-.14-1.38c0-.05,0-.1,0-.15h0"/></svg>