<svg id="Layer_1" data-name="Layer 1" xmlns="http://www.w3.org/2000/svg" viewBox="0 0 28.35 28.35"><defs><style>.cls-1{fill:#484551;}</style></defs><path class="cls-1" d="M14.17.93A13.24,13.24,0,1,1,.93,14.17,13.24,13.24,0,0,1,14.17.93m0-.93A14.18,14.18,0,1,0,28.35,14.17,14.19,14.19,0,0,0,14.17,0Z"/><g id="_0ASN21.tif" data-name="0ASN21.tif"><path class="cls-1" d="M9.79,16.8c-.08.37-.19.73-.24,1.1A4.83,4.83,0,0,0,10,21c0,.07.07.13.1.19a.38.38,0,0,1-.2.61,6.67,6.67,0,0,1-1.08.31,4.88,4.88,0,0,1-1,.11.88.88,0,0,1-.94-1c0-1.48,0-2.95.08-4.43v-.24H6.24c-.31,0-.38-.07-.38-.38V11.58c0-.3.08-.38.39-.38a21.36,21.36,0,0,0,6.64-1,24.29,24.29,0,0,0,7.46-3.94l.06,0c.23-.17.43-.1.49.19s.14.72.18,1.08c.13,1,.27,1.93.36,2.9.07.78.09,1.56.13,2.35a2.25,2.25,0,0,1,0,.26l.56.06c.28,0,.35.09.35.36s0,.62,0,.92-.07.28-.25.3l-.53.05c-.09,0-.12,0-.13.14,0,.65,0,1.3-.09,2-.07.83-.15,1.65-.26,2.47s-.21,1.34-.32,2c0,.22-.12.32-.28.31a.49.49,0,0,1-.22-.1,24.07,24.07,0,0,0-7.72-4A21.75,21.75,0,0,0,9.79,16.8ZM20.44,6.89l-.1.06a24.66,24.66,0,0,1-4.26,2.58.19.19,0,0,0-.12.21V18a.21.21,0,0,0,.14.23,25,25,0,0,1,4.24,2.56l.1.07A39.5,39.5,0,0,0,20.44,6.89Zm-14,4.84V16a22.15,22.15,0,0,1,6.71,1V10.71A22.15,22.15,0,0,1,6.39,11.73Zm7.24-1.19V17.1a.14.14,0,0,0,.11.16l1.51.58.17.07V9.85Zm-4,10.8a5.77,5.77,0,0,1-.34-4.62l-1.76-.15a.23.23,0,0,0,0,.07l-.09,4.57a.42.42,0,0,0,.46.48A5.92,5.92,0,0,0,9.62,21.34ZM22,13.59l-.35,0v.64l.34,0A.53.53,0,0,0,22,14C22,13.89,22,13.75,22,13.59Z"/><path class="cls-1" d="M16.45,10.22c-.06-.06-.16-.12-.17-.19a.4.4,0,0,1,.07-.25s.09,0,.13-.08a25.1,25.1,0,0,0,3.4-2,.37.37,0,0,1,.27,0c.18,0,.2.27,0,.4l-.49.34a29.15,29.15,0,0,1-3,1.72Z"/><path class="cls-1" d="M7.68,12.38H7.11a.23.23,0,0,1-.23-.23.24.24,0,0,1,.24-.23l1.27,0a.24.24,0,0,1,.26.22.24.24,0,0,1-.24.24l-.73.05Z"/><path class="cls-1" d="M14,11.24a.23.23,0,0,1-.24-.17.21.21,0,0,1,.14-.27l.58-.22.54-.22a.25.25,0,0,1,.3.12.23.23,0,0,1-.11.31L14,11.23Z"/></g></svg>