<svg id="Layer_1" data-name="Layer 1" xmlns="http://www.w3.org/2000/svg" viewBox="0 0 28.35 28.35"><defs><style>.cls-1{fill:#484551;}</style></defs><g id="g8bMfs.tif"><polygon class="cls-1" points="22.75 10.91 22.68 11.02 18.11 17.92 17.36 17.43 21.98 10.43 22.75 10.91"/><polygon class="cls-1" points="16.71 17.49 16.05 18.12 11.82 13.78 12.48 13.16 16.71 17.49"/><polygon class="cls-1" points="10.91 13.76 6.5 17.85 5.88 17.19 10.29 13.1 10.91 13.76"/><path class="cls-1" d="M5.42,17.38a.87.87,0,1,1,0,1.73.87.87,0,0,1-.88-.87A.88.88,0,0,1,5.42,17.38Z"/><path class="cls-1" d="M17.14,17.71a.87.87,0,1,1,0,1.73.87.87,0,1,1,0-1.73Z"/><path class="cls-1" d="M12.27,12.69a.87.87,0,1,1-.87-.85A.86.86,0,0,1,12.27,12.69Z"/><path class="cls-1" d="M23,10.63a.86.86,0,1,1,.88-.87A.87.87,0,0,1,23,10.63Z"/></g></svg>