<svg id="Layer_1" data-name="Layer 1" xmlns="http://www.w3.org/2000/svg" viewBox="0 0 28.35 28.35"><defs><style>.cls-1{fill:#484551;}</style></defs><path class="cls-1" d="M14.17.93A13.24,13.24,0,1,1,.93,14.17,13.24,13.24,0,0,1,14.17.93m0-.93A14.18,14.18,0,1,0,28.35,14.17,14.19,14.19,0,0,0,14.17,0Z"/><path class="cls-1" d="M16.13,23a.51.51,0,0,1-.31-.11.5.5,0,0,1-.09-.7l6.22-8-6.22-8a.49.49,0,0,1,.09-.7.49.49,0,0,1,.7.08l6.7,8.58-6.7,8.59A.51.51,0,0,1,16.13,23Z"/><path class="cls-1" d="M11.81,23a.5.5,0,0,1-.3-.11.5.5,0,0,1-.09-.7l6.21-8-6.21-8a.49.49,0,0,1,.09-.7.49.49,0,0,1,.7.08l6.69,8.58-6.69,8.59A.53.53,0,0,1,11.81,23Z"/><path class="cls-1" d="M7.63,23a.53.53,0,0,1-.31-.11.5.5,0,0,1-.08-.7l6.21-8-6.21-8A.5.5,0,0,1,8,5.59l6.69,8.58L8,22.76A.53.53,0,0,1,7.63,23Z"/></svg>