<svg id="Layer_1" data-name="Layer 1" xmlns="http://www.w3.org/2000/svg" viewBox="0 0 28.35 28.35"><defs><style>.cls-1{fill:#484551;}</style></defs><path class="cls-1" d="M14.17.93A13.24,13.24,0,1,1,.93,14.17,13.24,13.24,0,0,1,14.17.93m0-.93A14.18,14.18,0,1,0,28.34,14.17,14.19,14.19,0,0,0,14.17,0Z"/><path class="cls-1" d="M14.17,8.54a2.22,2.22,0,1,1,2.22-2.22A2.22,2.22,0,0,1,14.17,8.54Zm0-3.44a1.22,1.22,0,1,0,1.22,1.22A1.23,1.23,0,0,0,14.17,5.1Z"/><path class="cls-1" d="M14.17,15.44a2.23,2.23,0,1,1,2.22-2.22A2.23,2.23,0,0,1,14.17,15.44Zm0-3.45a1.23,1.23,0,1,0,1.22,1.23A1.23,1.23,0,0,0,14.17,12Z"/><path class="cls-1" d="M21.06,15.44a2.23,2.23,0,1,1,2.23-2.22A2.23,2.23,0,0,1,21.06,15.44Zm0-3.45a1.23,1.23,0,1,0,1.23,1.23A1.23,1.23,0,0,0,21.06,12Z"/><path class="cls-1" d="M7.27,15.44A2.23,2.23,0,1,1,9.5,13.22,2.23,2.23,0,0,1,7.27,15.44Zm0-3.45A1.23,1.23,0,1,0,8.5,13.22,1.23,1.23,0,0,0,7.27,12Z"/><path class="cls-1" d="M14.17,22.33a2.22,2.22,0,1,1,2.22-2.22A2.22,2.22,0,0,1,14.17,22.33Zm0-3.44a1.22,1.22,0,1,0,1.22,1.22A1.23,1.23,0,0,0,14.17,18.89Z"/><path class="cls-1" d="M21.06,22.33a2.22,2.22,0,1,1,2.23-2.22A2.22,2.22,0,0,1,21.06,22.33Zm0-3.44a1.22,1.22,0,1,0,1.23,1.22A1.22,1.22,0,0,0,21.06,18.89Z"/><path class="cls-1" d="M7.27,22.33A2.22,2.22,0,1,1,9.5,20.11,2.22,2.22,0,0,1,7.27,22.33Zm0-3.44A1.22,1.22,0,1,0,8.5,20.11,1.22,1.22,0,0,0,7.27,18.89Z"/><line class="cls-1" x1="14.17" y1="8.04" x2="14.17" y2="11.49"/><rect class="cls-1" x="13.67" y="8.04" width="1" height="3.45"/><line class="cls-1" x1="7.27" y1="14.94" x2="7.27" y2="18.39"/><rect class="cls-1" x="6.77" y="14.94" width="1" height="3.45"/><line class="cls-1" x1="14.17" y1="14.94" x2="14.17" y2="18.39"/><rect class="cls-1" x="13.67" y="14.94" width="1" height="3.45"/><line class="cls-1" x1="21.06" y1="14.94" x2="21.06" y2="18.39"/><rect class="cls-1" x="20.56" y="14.94" width="1" height="3.45"/><line class="cls-1" x1="15.89" y1="13.22" x2="19.34" y2="13.22"/><rect class="cls-1" x="15.89" y="12.72" width="3.45" height="1"/><line class="cls-1" x1="12.44" y1="13.22" x2="9" y2="13.22"/><rect class="cls-1" x="9" y="12.72" width="3.45" height="1"/></svg>