<svg id="Layer_1" data-name="Layer 1" xmlns="http://www.w3.org/2000/svg" viewBox="0 0 28.35 28.35"><defs><style>.cls-1{fill:#484551;}</style></defs><path class="cls-1" d="M14.17.93A13.24,13.24,0,1,1,.93,14.17,13.24,13.24,0,0,1,14.17.93m0-.93A14.18,14.18,0,1,0,28.35,14.17,14.19,14.19,0,0,0,14.17,0Z"/><rect class="cls-1" x="0.93" y="13.67" width="17.95" height="1"/><path class="cls-1" d="M12.43,23a.56.56,0,0,1-.31-.11.5.5,0,0,1-.08-.7l6.21-8L12,6.21a.5.5,0,0,1,.79-.62l6.69,8.58-6.69,8.58A.51.51,0,0,1,12.43,23Z"/></svg>