<svg id="Layer_1" data-name="Layer 1" xmlns="http://www.w3.org/2000/svg" viewBox="0 0 28.35 28.35"><defs><style>.cls-1{fill:#484551;}</style></defs><g id="Lfu1e3.tif"><path class="cls-1" d="M6.79,15.28H5.67V9.69h4.88c-.32-.22-.64-.4-.93-.63a2.18,2.18,0,0,1,0-3.25,1,1,0,0,1,1.27-.19,7.14,7.14,0,0,1,1.21.85,8.21,8.21,0,0,1,1.57,1.81l0,0A8.63,8.63,0,0,1,15.9,5.68a9.87,9.87,0,0,1,1.9-1.37,1.89,1.89,0,0,1,1.55-.23,2.2,2.2,0,0,1,.65.37,2.94,2.94,0,0,1,1,2.91,2.35,2.35,0,0,1-.94,1.39,6.32,6.32,0,0,1-1.57.81.51.51,0,0,0-.22.11h4.39v5.64H21.53v7.94H6.79ZM15,22.71h6V15.5H15ZM7.38,15.47v7.24H13.2V15.47Zm7.55-5.19v4.43h7.18V10.28ZM13.2,14.72V10.28H6.27v4.44Zm2.26-5.13c.48-.06.91-.09,1.33-.16a7,7,0,0,0,2.89-1.12,1.81,1.81,0,0,0,.8-1.21,2.27,2.27,0,0,0-.88-2.23,1.22,1.22,0,0,0-.52-.26A1.36,1.36,0,0,0,18,4.84a11.18,11.18,0,0,0-3.36,3,3.8,3.8,0,0,0-.47.92.45.45,0,0,0,.34.65C14.84,9.49,15.18,9.53,15.46,9.59Zm-2.79.08c.22-.05.45-.09.67-.16a.24.24,0,0,0,.17-.33,4.8,4.8,0,0,0-.42-.85,8.07,8.07,0,0,0-1.67-1.78,5.17,5.17,0,0,0-.69-.46.59.59,0,0,0-.75.1,1.74,1.74,0,0,0-.58,1.6,1.58,1.58,0,0,0,.77,1.08A5,5,0,0,0,12.67,9.67Z"/></g></svg>