<svg id="Layer_1" data-name="Layer 1" xmlns="http://www.w3.org/2000/svg" viewBox="0 0 28.35 28.35"><defs><style>.cls-1{fill:#484551;}</style></defs><g id="_3Jm2Bk.tif" data-name="3Jm2Bk.tif"><path class="cls-1" d="M15.34,16.75H13l-.32,4.57H8A1.72,1.72,0,0,1,6.23,20a2.36,2.36,0,0,1,.08-1.09q.9-4.06,1.81-8.13c.18-.82.35-1.63.54-2.45A1.68,1.68,0,0,1,10.33,7H13.7l-.2,2.82h1.37L14.67,7h.18c1,0,2.06,0,3.09,0a1.75,1.75,0,0,1,1.79,1.44q1.11,5.1,2.26,10.19c.05.24.11.47.14.71a1.68,1.68,0,0,1-1.73,2H15.79c-.11,0-.14,0-.14-.15-.06-.92-.13-1.83-.19-2.75,0-.47-.06-.94-.1-1.41A2.45,2.45,0,0,0,15.34,16.75Zm-1.93-5.83-.3,4.26h2.13l-.3-4.26Z"/></g></svg>