<svg id="Layer_1" data-name="Layer 1" xmlns="http://www.w3.org/2000/svg" viewBox="0 0 28.35 28.35"><defs><style>.cls-1{fill:#484551;}</style></defs><path class="cls-1" d="M18.43,18.8H9.92a.37.37,0,0,1-.37-.38V9.92a.36.36,0,0,1,.37-.37h8.51a.37.37,0,0,1,.37.37v8.5A.38.38,0,0,1,18.43,18.8Zm-8.13-.75h7.75V10.3H10.3Z"/><path class="cls-1" d="M21.26,21.51h-3V21H21V18.26h.5v3A.25.25,0,0,1,21.26,21.51Z"/><rect class="cls-1" x="11.72" y="21.01" width="4.9" height="0.5"/><path class="cls-1" d="M10.09,21.51h-3a.25.25,0,0,1-.25-.25v-3h.5V21h2.75Z"/><rect class="cls-1" x="6.84" y="11.72" width="0.5" height="4.9"/><path class="cls-1" d="M7.34,10.09h-.5v-3a.25.25,0,0,1,.25-.25h3v.5H7.34Z"/><rect class="cls-1" x="11.72" y="6.84" width="4.9" height="0.5"/><path class="cls-1" d="M21.51,10.09H21V7.34H18.26v-.5h3a.25.25,0,0,1,.25.25Z"/><rect class="cls-1" x="21.01" y="11.72" width="0.5" height="4.9"/><rect class="cls-1" x="13" y="11.09" width="8.02" height="0.5" transform="translate(-3.04 15.35) rotate(-45)"/><path class="cls-1" d="M20.91,7.44a7.48,7.48,0,0,0-.67,2.35L19.7,8.64l-1.14-.53A7.75,7.75,0,0,0,20.91,7.44Z"/><rect class="cls-1" x="11.09" y="7.33" width="0.5" height="8.02" transform="translate(-4.7 11.34) rotate(-45)"/><path class="cls-1" d="M7.44,7.44a7.75,7.75,0,0,0,2.35.67l-1.15.53L8.11,9.79A7.75,7.75,0,0,0,7.44,7.44Z"/><rect class="cls-1" x="7.33" y="16.76" width="8.02" height="0.5" transform="translate(-8.71 13) rotate(-45)"/><path class="cls-1" d="M7.44,20.91a7.75,7.75,0,0,0,.67-2.35l.53,1.14,1.15.54A7.48,7.48,0,0,0,7.44,20.91Z"/><rect class="cls-1" x="16.76" y="13" width="0.5" height="8.02" transform="translate(-7.04 17.01) rotate(-45)"/><path class="cls-1" d="M20.91,20.91a7.48,7.48,0,0,0-2.35-.67l1.14-.54.54-1.14A7.48,7.48,0,0,0,20.91,20.91Z"/></svg>