<svg id="Layer_1" data-name="Layer 1" xmlns="http://www.w3.org/2000/svg" viewBox="0 0 28.35 28.35"><defs><style>.cls-1{fill:#484551;}</style></defs><path class="cls-1" d="M9.91,13.1l2-2c1.23-1.24,2.47-2.46,3.69-3.7a1.53,1.53,0,0,1,1.65-.46,1.59,1.59,0,0,1,1.14,1.3,1.48,1.48,0,0,1-.46,1.36l-2,1.95a1.75,1.75,0,0,1,1.19.93,1.62,1.62,0,0,1,0,1.44c1.29.51,1.65,1.29,1.15,2.5a3.82,3.82,0,0,1,.36.13A1.54,1.54,0,0,1,19.28,19c-1.35,1.4-2.72,2.77-4.14,4.09a6.05,6.05,0,0,1-3.78,1.61,3.9,3.9,0,0,1-3.14-1.06c-.38-.36-.75-.73-1.12-1.11a4.28,4.28,0,0,1-1-4.11,6.44,6.44,0,0,1,.2-.72,8.13,8.13,0,0,0,.06-5.44,1.19,1.19,0,0,1,1-1.69,2,2,0,0,1,1.26.52A3.91,3.91,0,0,1,9.91,13.1Zm-3.3,6.44a3.37,3.37,0,0,0,1,2.63c.33.31.64.64,1,.95a3.32,3.32,0,0,0,2.79.9,6.21,6.21,0,0,0,3.82-1.89c1.15-1.15,2.29-2.3,3.44-3.44a.91.91,0,0,0,0-1.36.87.87,0,0,0-1.32,0l-1.17,1.16c-.17.17-.35.32-.57.11s-.11-.42.08-.61c.6-.58,1.19-1.18,1.78-1.77a1,1,0,0,0,.28-1.09,1,1,0,0,0-1.54-.29c-.59.65-1.23,1.26-1.87,1.87a.54.54,0,0,1-.4.15c-.09,0-.25-.17-.24-.26a.78.78,0,0,1,.2-.42l2.47-2.48a.92.92,0,0,0-1.3-1.3l-.33.33L12.55,15c-.17.17-.35.22-.52,0s-.11-.36.06-.53c.6-.58,1.19-1.17,1.78-1.76l3.54-3.54a.89.89,0,0,0,.32-.92.94.94,0,0,0-1.63-.44l-5.62,5.61c-.19.19-.38.4-.58.58s-.51.11-.56-.22c0-.16-.05-.33-.07-.49a2.83,2.83,0,0,0-1.72-2.08.48.48,0,0,0-.64.47A2.12,2.12,0,0,0,7,12.1a18,18,0,0,1,.39,2.27,17.83,17.83,0,0,1-.12,2.42,1.7,1.7,0,0,1-.13.55A5.18,5.18,0,0,0,6.61,19.54Z"/><path class="cls-1" d="M11,24.82a4,4,0,0,1-2.85-1.11C7.79,23.39,7.43,23,7,22.6a4.4,4.4,0,0,1-1-4.22,3.59,3.59,0,0,1,.21-.74,8.13,8.13,0,0,0,.05-5.36,1.52,1.52,0,0,1,.17-1.37,1.15,1.15,0,0,1,1-.49h0A2.1,2.1,0,0,1,8.7,11,4,4,0,0,1,10,12.86l.54-.54L11.82,11l1.32-1.32,2.37-2.38a1.67,1.67,0,0,1,1.78-.49,1.73,1.73,0,0,1,1.22,1.4A1.61,1.61,0,0,1,18,9.67l-1.82,1.8a1.83,1.83,0,0,1,1.08.93,1.74,1.74,0,0,1,0,1.43,2.09,2.09,0,0,1,1.22,1,1.94,1.94,0,0,1-.06,1.45l.24.1a1.75,1.75,0,0,1,1.06,1.27,1.54,1.54,0,0,1-.39,1.38c-1.64,1.69-2.92,3-4.15,4.1a6.21,6.21,0,0,1-3.85,1.64ZM7.36,10.67a.9.9,0,0,0-.75.38,1.25,1.25,0,0,0-.14,1.15,8.32,8.32,0,0,1-.06,5.53,5,5,0,0,0-.2.7,4.16,4.16,0,0,0,1,4c.41.42.78.78,1.11,1.1a3.84,3.84,0,0,0,3.06,1A5.94,5.94,0,0,0,15.05,23c1.23-1.13,2.5-2.4,4.14-4.08a1.29,1.29,0,0,0,.32-1.16,1.51,1.51,0,0,0-.9-1.09l-.25-.1-.23-.08.05-.12A1.76,1.76,0,0,0,18.29,15a2,2,0,0,0-1.2-1L17,14l.05-.11a1.51,1.51,0,0,0,0-1.34,1.61,1.61,0,0,0-1.11-.86l-.21-.06,2.11-2.1a1.33,1.33,0,0,0,.42-1.25,1.45,1.45,0,0,0-1-1.2,1.42,1.42,0,0,0-1.53.43L13.32,9.85,12,11.16l-1.31,1.33-.84.85-.06-.21a3.8,3.8,0,0,0-1.25-2,1.85,1.85,0,0,0-1.18-.49ZM11,24.17a3.38,3.38,0,0,1-2.44-1l-.46-.45-.5-.5a3.42,3.42,0,0,1-1.09-2.72A5.44,5.44,0,0,1,7,17.29a1.81,1.81,0,0,0,.12-.51c0-.21,0-.42.05-.63a13.1,13.1,0,0,0,.07-1.77A10.34,10.34,0,0,0,7,12.82l-.15-.7a.27.27,0,0,0,0-.12,1.12,1.12,0,0,1,0-.32A.64.64,0,0,1,7,11.19a.67.67,0,0,1,.56-.09,2.94,2.94,0,0,1,1.81,2.18l0,.21c0,.1,0,.19,0,.28s.07.2.13.22a.25.25,0,0,0,.23-.08c.13-.11.26-.25.38-.37l.19-.2.47-.47L16,7.73a1.09,1.09,0,0,1,1.06-.33,1.15,1.15,0,0,1,.78.82,1,1,0,0,1-.35,1L15.81,11,14,12.81c-.59.59-1.18,1.18-1.78,1.76-.17.17-.13.27-.06.36a.23.23,0,0,0,.14.08h0a.31.31,0,0,0,.2-.11L14,13.35l.79-.78.22-.22a1,1,0,0,1,1.44,0,1,1,0,0,1,0,1.45L15.32,15,14,16.31a.61.61,0,0,0-.17.34.33.33,0,0,0,.14.12.43.43,0,0,0,.3-.11l.24-.23c.54-.53,1.1-1.07,1.62-1.63a1,1,0,0,1,.95-.3,1,1,0,0,1,.48,1.85c-.59.59-1.17,1.18-1.77,1.77-.08.08-.17.18-.17.27a.22.22,0,0,0,.08.16c.12.11.19.11.41-.11.38-.39.77-.78,1.16-1.16a1,1,0,0,1,1.5,0,1,1,0,0,1,0,1.54l-.57.57-2.86,2.86a6.31,6.31,0,0,1-3.9,1.94ZM7.39,11.33a.38.38,0,0,0-.22.06.37.37,0,0,0-.13.3,1.18,1.18,0,0,0,0,.25l0,.14c0,.23.09.46.14.69a10.67,10.67,0,0,1,.26,1.6,13.7,13.7,0,0,1-.07,1.81c0,.2,0,.41-.05.62a2,2,0,0,1-.15.59,5.32,5.32,0,0,0-.5,2.15h0a3.21,3.21,0,0,0,1,2.54l.51.5.46.45a3.23,3.23,0,0,0,2.69.87A6,6,0,0,0,15.15,22L18,19.17l.57-.57a.78.78,0,0,0,0-1.18.76.76,0,0,0-1.15,0c-.39.38-.77.77-1.16,1.16-.13.14-.42.43-.75.11a.47.47,0,0,1-.16-.34.65.65,0,0,1,.25-.45l1.77-1.76a.8.8,0,0,0-.36-1.43.78.78,0,0,0-.72.22c-.52.57-1.08,1.11-1.63,1.64l-.24.23A.7.7,0,0,1,14,17a.46.46,0,0,1-.36-.39.84.84,0,0,1,.24-.49l1.29-1.31,1.18-1.18a.79.79,0,0,0-1.12-1.11,2,2,0,0,0-.21.2l-.79.78-1.56,1.55a.6.6,0,0,1-.39.19.43.43,0,0,1-.31-.17.46.46,0,0,1,.07-.7l1.77-1.76,1.86-1.85,1.68-1.69a.75.75,0,0,0,.29-.8.81.81,0,0,0-1.43-.38L11,13.05l-.47.47-.19.19c-.13.13-.26.27-.4.39a.46.46,0,0,1-.47.12.47.47,0,0,1-.3-.41c0-.09,0-.19,0-.29a1.49,1.49,0,0,0,0-.21,2.67,2.67,0,0,0-1.63-2A.32.32,0,0,0,7.39,11.33Z"/><path class="cls-1" d="M19.53,11.16l.24.38-.33.21-.22-.38Z"/><path class="cls-1" d="M19.4,11.93l-.35-.6.52-.34.37.59Zm0-.52h0l.1.17.11-.08-.11-.16Z"/><path class="cls-1" d="M15.18,4l.35-.16.17.41-.32.15Z"/><path class="cls-1" d="M15.32,4.56,15,3.93l.59-.27.26.65Zm0-.51.08.18.11-.05L15.47,4Z"/><path class="cls-1" d="M14.76,4.75l-.26-.34.31-.24.24.38Z"/><path class="cls-1" d="M14.73,4.93l-.41-.55.53-.4.37.6Zm-.06-.5.12.15.09-.06-.1-.17Z"/><path class="cls-1" d="M13.81,5.8l-.38-.23.21-.33L14,5.5Z"/><path class="cls-1" d="M13.85,6l-.59-.35.34-.56.58.41Zm-.24-.44.16.1.07-.1-.17-.11Z"/><path class="cls-1" d="M13.22,5.94,13.4,6l.23.12-.11.32L13.1,6.3Z"/><path class="cls-1" d="M13.6,6.6l-.66-.23.21-.59.19.06.11,0L13.6,6l.18.1Zm-.34-.38.18.06,0-.1-.14-.07,0,0Z"/><path class="cls-1" d="M12.9,7.07l0-.39.43.1C13.34,7.13,13.34,7.13,12.9,7.07Z"/><path class="cls-1" d="M13.19,7.22l-.31,0-.12,0,.09-.64.67.16,0,.11c0,.19,0,.3-.13.37A.26.26,0,0,1,13.19,7.22ZM13,7a.62.62,0,0,0,.18,0,.41.41,0,0,0,0-.09l-.18,0Z"/><path class="cls-1" d="M21.5,9l-.1.34L21,9.23C21,8.85,21.05,8.83,21.5,9Z"/><path class="cls-1" d="M21.49,9.48l-.58-.16V9.23c0-.19,0-.33.09-.42s.28,0,.54,0l.11,0Zm-.34-.35.17,0,0-.11a.47.47,0,0,0-.21,0S21.15,9.06,21.15,9.13Z"/><path class="cls-1" d="M20.85,9.54l.41.17-.15.36-.4-.2Z"/><path class="cls-1" d="M21.17,10.24l-.62-.31.24-.56.63.28Zm-.3-.43L21,9.9l.06-.12-.18-.08Z"/><path class="cls-1" d="M19.08,11.92l-.37.13-.15-.4.33-.14Z"/><path class="cls-1" d="M18.64,12.21l-.24-.63.55-.24.3.65Zm.08-.49.07.17.12,0-.08-.18Z"/><path class="cls-1" d="M15.93,3.71l.39-.06.05.42L16,4.15Z"/><path class="cls-1" d="M16,4.3l-.17-.69.65-.11.08.67Zm.13-.49.05.19.11,0,0-.19Z"/><path class="cls-1" d="M14.49,5l-.26.24-.35-.32.3-.26Z"/><path class="cls-1" d="M14.23,5.4l-.53-.49.48-.44.09.09.31.34.08.09Zm-.16-.49.16.15L14.31,5l-.14-.16Z"/><path class="cls-1" d="M20.89,10.42l-.23.31-.34-.26.2-.31Z"/><path class="cls-1" d="M20.68,10.9l-.53-.41.34-.5.58.41Zm-.19-.46.15.11.07-.1-.16-.11Z"/><path class="cls-1" d="M19.82,11l.27-.24.3.35-.27.27Z"/><path class="cls-1" d="M20.1,11.51l-.45-.57.45-.41.46.54ZM20,11l.14.17.09-.09-.14-.16Z"/><path class="cls-1" d="M21.15,8.18h.39v.34h-.39Z"/><path class="cls-1" d="M21.67,8.64H21V8.05h.65Zm-.4-.25h.15V8.3h-.15Z"/></svg>