<svg id="Layer_1" data-name="Layer 1" xmlns="http://www.w3.org/2000/svg" viewBox="0 0 28.35 28.35"><defs><style>.cls-1{fill:#484551;}</style></defs><path class="cls-1" d="M14.17.93A13.24,13.24,0,1,1,.93,14.17,13.24,13.24,0,0,1,14.17.93m0-.93A14.18,14.18,0,1,0,28.35,14.17,14.19,14.19,0,0,0,14.17,0Z"/><path class="cls-1" d="M14.1,15.36c-.29-.2-.57-.38-.83-.58a6.19,6.19,0,0,0-.55-.47c-1.29-.7-2.6-1.39-3.9-2.08a.81.81,0,0,1-.47-.88A.74.74,0,0,1,9,10.68a1.25,1.25,0,0,1,.7.15c1.32.68,2.64,1.39,4,2.09a1.22,1.22,0,0,0,1.31,0c2.41-1.45,4.84-2.87,7.26-4.31l.39-.23a.83.83,0,0,1,1.15.29.8.8,0,0,1-.32,1.14q-1.89,1.14-3.8,2.26c-1.33.78-2.66,1.56-4,2.36-.26.15-.47.38-.72.54a9.06,9.06,0,0,1-.83.42"/><path class="cls-1" d="M4.76,13.89H5.5c.22,0,.5,0,.51.27s-.27.29-.49.29H3.91c-.2,0-.45,0-.46-.27s.27-.29.48-.29h.83"/><path class="cls-1" d="M23.62,14.45c-.32,0-.64,0-.95,0-.13,0-.24-.17-.36-.25.12-.1.24-.28.37-.29.61,0,1.23,0,1.85,0,.13,0,.24.17.36.25-.12.1-.23.27-.37.29a6.74,6.74,0,0,1-.9,0"/><path class="cls-1" d="M7.27,18.51a2.17,2.17,0,0,0-.35.15c-.54.3-1.07.62-1.62.91-.1.05-.28,0-.43,0,.06-.15.08-.35.19-.42.52-.33,1.06-.64,1.6-.93.27-.15.48-.05.47.19a.93.93,0,0,0,.14.14"/><path class="cls-1" d="M5.07,8.87A1.57,1.57,0,0,1,5.3,9c.55.32,1.11.62,1.64,1,.1.06.11.26.16.4-.14,0-.32.11-.42.06-.56-.3-1.1-.62-1.64-1a.49.49,0,0,1-.17-.36c0-.06.13-.13.2-.2"/><path class="cls-1" d="M10.25,21.65c-.06.13-.08.21-.12.28-.3.52-.6,1.05-.92,1.55-.07.11-.25.14-.38.21,0-.16-.13-.35-.07-.46.29-.56.61-1.1.94-1.64a.44.44,0,0,1,.33-.16c.08,0,.15.15.22.22"/><path class="cls-1" d="M10,7.15s-.1.17-.18.18a.39.39,0,0,1-.32-.1c-.36-.58-.7-1.18-1-1.78a.41.41,0,0,1,.1-.34.33.33,0,0,1,.32,0C9.29,5.77,9.64,6.39,10,7a.58.58,0,0,1,0,.14"/><path class="cls-1" d="M21.41,18.31c.11,0,.18.05.24.08.55.32,1.11.63,1.65,1,.09.06.11.24.17.37-.14,0-.32.14-.42.09-.57-.29-1.13-.62-1.69-1a.48.48,0,0,1-.14-.34c0-.07.13-.14.19-.2"/><path class="cls-1" d="M19.43,23.48c0,.05-.09.18-.17.2a.36.36,0,0,1-.31-.09c-.36-.58-.71-1.17-1-1.78a.33.33,0,0,1,.09-.34.35.35,0,0,1,.34.06c.37.6.71,1.21,1,1.82,0,0,0,0,0,.13"/><path class="cls-1" d="M19.68,5.32a3,3,0,0,1-.14.3c-.28.49-.54,1-.85,1.47-.08.12-.29.17-.44.25,0-.17-.09-.37,0-.5.28-.54.58-1.06.91-1.57a.49.49,0,0,1,.36-.16c.06,0,.13.14.19.21"/><path class="cls-1" d="M14.42,4.76c0,.32,0,.64,0,1,0,.11-.15.21-.24.31-.09-.1-.25-.19-.26-.29q0-1,0-2c0-.1.17-.2.26-.3.09.11.23.21.24.32,0,.33,0,.66,0,1"/><path class="cls-1" d="M14.42,23.61a7.51,7.51,0,0,1,0,.95c0,.12-.17.22-.26.33-.09-.1-.24-.21-.24-.32,0-.63,0-1.26,0-1.9,0-.12.16-.23.25-.34.09.11.24.21.25.34a7.37,7.37,0,0,1,0,.94"/></svg>