<svg id="Layer_1" data-name="Layer 1" xmlns="http://www.w3.org/2000/svg" viewBox="0 0 85.04 85.04"><defs><style>.cls-1{fill:#464646;}</style></defs><path class="cls-1" d="M42.52,29.28A13.24,13.24,0,1,1,29.28,42.52,13.24,13.24,0,0,1,42.52,29.28m0-.93A14.17,14.17,0,1,0,56.69,42.52,14.18,14.18,0,0,0,42.52,28.35Z"/><path class="cls-1" d="M44.05,45.07c-2.12.79-4.26,1.53-6.54.83a6.35,6.35,0,0,1-4.07-3.44A6.82,6.82,0,0,1,35,34.4a6.89,6.89,0,0,1,8.3-.47,6.79,6.79,0,0,1,2.5,7.83l-.24.71A4.45,4.45,0,0,1,44.05,45.07Zm-6.92-.64A5.46,5.46,0,0,0,44,42.61,5.65,5.65,0,0,0,43.71,36a5.47,5.47,0,0,0-7-1.26A5.07,5.07,0,0,0,34,39.6,5.13,5.13,0,0,0,37.13,44.43Z"/><path class="cls-1" d="M46.2,44.2,50,47.71c.31.3.66.56.93.88a1.58,1.58,0,0,1,0,2.24,1.65,1.65,0,0,1-2.33.06c-1.44-1.49-2.83-3-4.21-4.58-.11-.12-.06-.39-.09-.59Z"/><path class="cls-1" d="M37.32,42.92c-.19.15-.48.46-.54.42a4.17,4.17,0,0,1-2-3.69,3.89,3.89,0,0,1,1.85-3.82.85.85,0,0,1,.32,0c-.22.36-.43.73-.68,1.07A4.07,4.07,0,0,0,37.32,42.92Z"/></svg>