<svg id="Layer_1" data-name="Layer 1" xmlns="http://www.w3.org/2000/svg" viewBox="0 0 28.35 28.35"><defs><style>.cls-1{fill:#484551;}</style></defs><path class="cls-1" d="M14.17.93A13.24,13.24,0,1,1,.93,14.17,13.24,13.24,0,0,1,14.17.93m0-.93A14.18,14.18,0,1,0,28.35,14.17,14.19,14.19,0,0,0,14.17,0Z"/><g id="tlyjmP.tif"><path class="cls-1" d="M15.54,18.51H12.9a9.17,9.17,0,0,1,.33-3.34,2.38,2.38,0,0,1,1-1.24c.62-.38,1.24-.77,1.88-1.1a2.46,2.46,0,0,0,1.41-2.31,3.63,3.63,0,0,0-.09-1.09,2.89,2.89,0,0,0-2.15-2.1,3.42,3.42,0,0,0-3.12.48,3.08,3.08,0,0,0-1.28,2.58v.14H8.33a5.14,5.14,0,0,1,.08-1.3,5.58,5.58,0,0,1,4.65-4.45A6.05,6.05,0,0,1,18,6,5.24,5.24,0,0,1,20,10.21a5.73,5.73,0,0,1-.43,2.32,3.49,3.49,0,0,1-1.36,1.65c-.35.22-.71.43-1.07.64a4.66,4.66,0,0,0-1.16.86,1.78,1.78,0,0,0-.46,1.18v1.65Z"/><path class="cls-1" d="M16,22.5a1.74,1.74,0,0,1-3.47,0,1.74,1.74,0,0,1,3.47,0Z"/></g></svg>