<svg id="Layer_1" data-name="Layer 1" xmlns="http://www.w3.org/2000/svg" viewBox="0 0 471.22 468.83"><defs><style>.cls-1{fill:#fff;}.cls-2{fill:none;}.cls-3{fill:#dd4047;}.cls-4{fill:#2257ae;}.cls-5{fill:#1c101d;}</style></defs><rect class="cls-1" width="471.22" height="468.83"/><polygon class="cls-2" points="104.73 51.86 106.22 51.86 104.75 51.7 104.73 51.86"/><polygon class="cls-3" points="155.44 57.16 106.22 51.86 104.73 51.86 104.16 57.16 74.23 334.92 62.6 333.67 92.12 58.45 92.25 57.16 92.82 51.86 39.99 51.86 39.99 387.56 105.89 387.56 106.11 385.55 124.79 387.56 375.68 387.56 375.68 80.89 374.99 80.82 155.44 57.16"/><polygon class="cls-3" points="264.55 57.16 374.99 69.01 375.68 69.08 375.68 51.86 215.09 51.86 264.55 57.16 264.55 57.16"/><polygon class="cls-4" points="104.75 51.7 106.22 51.86 215.09 51.86 113.77 41 94.21 38.9 92.82 51.86 104.73 51.86 104.75 51.7"/><polygon class="cls-4" points="375.68 69.08 375.68 80.89 387.73 82.19 388.99 70.51 375.68 69.08"/><polygon class="cls-5" points="92.12 58.45 62.6 333.67 74.23 334.92 104.16 57.16 104.73 51.86 92.82 51.86 92.25 57.16 92.12 58.45"/><polygon class="cls-5" points="374.99 69.01 264.55 57.16 264.55 57.16 215.09 51.86 106.22 51.86 155.44 57.16 374.99 80.82 375.68 80.89 375.68 69.08 374.99 69.01"/><polygon class="cls-5" points="105.89 387.56 124.79 387.56 106.11 385.55 105.89 387.56"/><polygon class="cls-4" points="419.61 132.82 389.09 416.04 124.79 387.56 105.89 387.56 104.85 397.23 118.85 398.73 229.29 410.57 380.07 426.74 399.63 428.84 401.58 410.57 401.72 409.29 431.23 134.07 419.61 132.82"/><path class="cls-1" d="M231.6,284.78h11.68v68.44H231.6Z"/><path class="cls-1" d="M137.34,353.82a35.48,35.48,0,0,1-11-1.84A41.66,41.66,0,0,1,116,347l2.4-9.16a36.94,36.94,0,0,0,9.84,5.18,31,31,0,0,0,10.09,1.75q4.78,0,7.32-2.61a9.73,9.73,0,0,0,2.52-7.06,7.77,7.77,0,0,0-2.78-6.37q-2.78-2.26-10.14-5-9.66-3.42-14.33-7.78t-4.66-12.06q0-8.91,5.56-14.25t15.14-5.35a32.35,32.35,0,0,1,10.78,1.84,29.45,29.45,0,0,1,8.9,4.84l-1.88,8.81a37.41,37.41,0,0,0-8.86-4.77,25.11,25.11,0,0,0-8.68-1.65,9.86,9.86,0,0,0-6.89,2.3,8.33,8.33,0,0,0-2.52,6.48,7.65,7.65,0,0,0,2.65,6.22q2.66,2.21,10.69,5.11,9.93,3.42,14.29,7.83t4.37,12q0,9.15-5.87,14.84T137.34,353.82Z"/><path class="cls-1" d="M172.23,353.22V284.78h11.64v26.43h20.45V284.78H216v68.44H204.32V320.28H183.87v32.94Z"/><path class="cls-1" d="M258.87,353.22V284.78h38.59v9.06H270.51v24h22.42v9.07H270.51v26.35Z"/><path class="cls-1" d="M323.55,353.22V293.84h-16v-9.06h43.63v9.06h-16v59.38Z"/><path class="cls-1" d="M188.28,265.23V205.86h-16v-9.07h43.63v9.07h-16v59.37Z"/><polygon class="cls-1" points="231.6 196.79 231.6 265.23 236.61 265.23 243.28 265.23 243.28 203.62 243.28 196.79 231.6 196.79"/><path class="cls-1" d="M263.24,265.23V196.79h11.63v59.37h22.59v9.07Z"/><path class="cls-1" d="M323.55,265.23V205.86h-16v-9.07h43.63v9.07h-16v59.37Z"/></svg>