<svg id="Layer_1" data-name="Layer 1" xmlns="http://www.w3.org/2000/svg" viewBox="0 0 828.27 345.54"><defs><style>.cls-1{fill:#fff;}.cls-2{fill:#1c101d;}.cls-3{fill:#dd4047;}.cls-4{fill:#2257ae;}</style></defs><rect class="cls-1" width="828.27" height="345.54"/><polygon class="cls-2" points="739.02 204.34 734.46 203.85 724.6 202.8 719.28 202.22 719.22 202.82 719.1 203.91 734.7 203.91 734.7 209.56 738.42 209.96 739.02 204.34"/><polygon class="cls-2" points="753.24 245.61 753.17 246.28 747.69 297.34 747.56 298.55 753.24 298.55 753.24 245.61"/><polygon class="cls-2" points="294.81 204.34 290.25 203.85 280.4 202.8 275.08 202.22 275.02 202.82 274.9 203.91 290.49 203.91 290.49 209.56 294.21 209.96 294.81 204.34"/><polygon class="cls-2" points="309.04 245.61 308.97 246.28 303.49 297.34 303.36 298.55 309.04 298.55 309.04 245.61"/><polygon class="cls-2" points="68.72 204.34 64.16 203.85 54.3 202.8 48.99 202.22 48.92 202.82 48.81 203.91 64.4 203.91 64.4 209.56 68.12 209.96 68.72 204.34"/><polygon class="cls-2" points="82.95 245.61 82.88 246.28 77.39 297.34 77.27 298.55 82.95 298.55 82.95 245.61"/><polygon class="cls-2" points="361.7 124.02 367.35 124.63 375.87 45.15 451.91 53.31 451.91 47.59 420.01 44.17 370.26 44.17 370.22 44.55 361.7 124.02"/><polygon class="cls-3" points="82.95 298.55 82.95 298.48 82.94 298.55 82.95 298.55"/><rect class="cls-3" x="143.95" y="189.46" width="18.62" height="109.09"/><rect class="cls-3" x="561.8" y="189.46" width="18.62" height="109.09"/><polygon class="cls-3" points="217.06 189.46 198.51 189.46 198.51 298.55 253.06 298.55 253.06 284.09 217.06 284.09 217.06 189.46"/><polygon class="cls-3" points="309.04 298.55 309.04 298.22 309.01 298.55 309.04 298.55"/><path class="cls-3" d="M399.77,235.14q-12.82-4.62-17-8.15t-4.23-9.91q0-6.66,4-10.32t11-3.67a40.13,40.13,0,0,1,13.84,2.63,59.32,59.32,0,0,1,14.11,7.6l3-14a46.86,46.86,0,0,0-14.18-7.71,51.43,51.43,0,0,0-17.18-2.93q-15.27,0-24.14,8.52t-8.86,22.71q0,12.27,7.43,19.22t22.84,12.41q11.73,4.37,16.16,8T411,269.64q0,7.1-4,11.25t-11.66,4.16a49.44,49.44,0,0,1-16.09-2.8A58.94,58.94,0,0,1,363.5,274l-3.82,14.59a65.65,65.65,0,0,0,16.5,8,56.43,56.43,0,0,0,17.59,2.93q17,0,26.39-9.06t9.34-23.66q0-12.13-7-19.16T399.77,235.14Z"/><polygon class="cls-3" points="507.2 231.59 474.61 231.59 474.61 189.46 456.07 189.46 456.07 298.55 474.61 298.55 474.61 246.05 507.2 246.05 507.2 298.55 525.75 298.55 525.75 189.46 507.2 189.46 507.2 231.59"/><polygon class="cls-3" points="620.07 298.55 638.62 298.55 638.62 256.55 674.34 256.55 674.34 242.09 638.62 242.09 638.62 203.91 681.57 203.91 681.57 189.46 620.07 189.46 620.07 298.55"/><polygon class="cls-3" points="753.17 246.28 753.24 245.61 753.24 203.91 778.74 203.91 778.74 189.46 709.2 189.46 709.2 203.91 719.1 203.91 719.22 202.82 719.28 202.22 724.6 202.8 734.46 203.85 739.02 204.34 738.42 209.96 734.7 209.56 734.7 298.55 747.56 298.55 747.69 297.34 753.17 246.28"/><polygon class="cls-3" points="308.97 246.28 309.04 245.61 309.04 203.91 334.54 203.91 334.54 189.46 264.99 189.46 264.99 203.91 274.9 203.91 275.02 202.82 275.08 202.22 280.4 202.8 290.25 203.85 294.81 204.34 294.21 209.96 290.49 209.56 290.49 298.55 303.36 298.55 303.49 297.34 308.97 246.28"/><polygon class="cls-3" points="82.88 246.28 82.95 245.61 82.95 203.91 108.45 203.91 108.45 189.46 38.9 189.46 38.9 203.91 48.81 203.91 48.92 202.82 48.99 202.22 54.3 202.8 64.16 203.85 68.72 204.34 68.12 209.96 64.4 209.56 64.4 298.55 77.27 298.55 77.39 297.34 82.88 246.28"/><polygon class="cls-3" points="451.91 53.31 375.87 45.15 367.35 124.63 361.7 124.02 370.22 44.55 370.26 44.17 354.96 44.17 354.96 141.12 451.91 141.12 451.91 53.31"/><polygon class="cls-3" points="451.91 44.17 420.01 44.17 451.91 47.59 451.91 44.17"/><polygon class="cls-4" points="719.1 203.91 718.68 207.84 734.48 209.54 734.7 209.56 734.7 203.91 719.1 203.91"/><polygon class="cls-4" points="783.75 200.29 782.81 209.04 757.46 206.32 753.24 245.61 753.24 298.55 747.56 298.55 747.36 300.42 734.54 299.04 733.94 304.66 752.38 306.64 762.48 212.54 787.83 215.26 789.37 200.89 783.75 200.29"/><polygon class="cls-4" points="274.9 203.91 274.48 207.84 290.28 209.54 290.49 209.56 290.49 203.91 274.9 203.91"/><polygon class="cls-4" points="339.55 200.29 338.61 209.04 313.26 206.32 309.04 245.61 309.04 298.55 303.36 298.55 303.16 300.42 290.34 299.04 289.73 304.66 308.17 306.64 318.27 212.54 343.63 215.26 345.17 200.89 339.55 200.29"/><polygon class="cls-4" points="48.81 203.91 48.38 207.84 64.18 209.54 64.4 209.56 64.4 203.91 48.81 203.91"/><polygon class="cls-4" points="113.46 200.29 112.52 209.04 87.16 206.32 82.95 245.61 82.95 298.55 77.27 298.55 77.06 300.42 64.24 299.04 63.64 304.66 82.08 306.64 92.18 212.54 117.53 215.26 119.08 200.89 113.46 200.29"/><polygon class="cls-4" points="376.47 39.51 370.83 38.9 370.26 44.17 420.01 44.17 376.47 39.51"/><polygon class="cls-4" points="460.19 152.5 468.71 73.02 463.06 72.42 454.54 151.9 375.06 143.37 374.46 149.02 453.94 157.54 459.58 158.15 460.19 152.5"/><polygon class="cls-4" points="455.35 53.67 455.95 48.03 451.91 47.59 451.91 53.31 455.35 53.67"/></svg>