<svg id="Layer_1" data-name="Layer 1" xmlns="http://www.w3.org/2000/svg" viewBox="0 0 972.14 200.11"><defs><style>.cls-1{fill:#1c101d;}.cls-2{fill:#dd4047;}.cls-3{fill:#2257ae;}</style></defs><polygon class="cls-1" points="700.12 55.65 695.56 55.16 685.7 54.1 680.38 53.53 680.32 54.12 680.2 55.22 695.8 55.22 695.8 60.87 699.52 61.27 700.12 55.65"/><polygon class="cls-1" points="714.34 96.92 714.27 97.58 708.79 148.65 708.66 149.85 714.34 149.85 714.34 96.92"/><polygon class="cls-1" points="255.91 55.65 251.35 55.16 241.5 54.1 236.18 53.53 236.12 54.12 236 55.22 251.59 55.22 251.59 60.87 255.31 61.27 255.91 55.65"/><polygon class="cls-1" points="270.14 96.92 270.07 97.58 264.59 148.65 264.46 149.85 270.14 149.85 270.14 96.92"/><polygon class="cls-1" points="29.82 55.65 25.26 55.16 15.4 54.1 10.09 53.53 10.02 54.12 9.91 55.22 25.5 55.22 25.5 60.87 29.22 61.27 29.82 55.65"/><polygon class="cls-1" points="44.05 96.92 43.97 97.58 38.49 148.65 38.37 149.85 44.05 149.85 44.05 96.92"/><polygon class="cls-2" points="44.05 149.85 44.05 149.79 44.04 149.85 44.05 149.85"/><rect class="cls-2" x="105.05" y="40.76" width="18.62" height="109.09"/><rect class="cls-2" x="522.9" y="40.76" width="18.62" height="109.09"/><polygon class="cls-2" points="178.16 40.76 159.61 40.76 159.61 149.85 214.16 149.85 214.16 135.4 178.16 135.4 178.16 40.76"/><polygon class="cls-2" points="270.14 149.85 270.14 149.53 270.11 149.85 270.14 149.85"/><path class="cls-2" d="M360.87,86.44q-12.83-4.6-17-8.14t-4.23-9.92q0-6.64,4-10.32t11-3.66A40.11,40.11,0,0,1,368.44,57a59.68,59.68,0,0,1,14.11,7.6l3-14a47.08,47.08,0,0,0-14.18-7.71,51.43,51.43,0,0,0-17.18-2.93q-15.27,0-24.14,8.53t-8.86,22.7q0,12.27,7.43,19.23t22.84,12.41q11.73,4.36,16.16,8t4.43,10.16q0,7.09-4,11.25t-11.66,4.16a49.64,49.64,0,0,1-16.09-2.79,59.24,59.24,0,0,1-15.68-8.25l-3.82,14.59a66,66,0,0,0,16.5,8,56.45,56.45,0,0,0,17.59,2.94q17,0,26.39-9.07t9.34-23.66q0-12.14-7-19.16T360.87,86.44Z"/><polygon class="cls-2" points="468.3 82.9 435.71 82.9 435.71 40.76 417.17 40.76 417.17 149.85 435.71 149.85 435.71 97.35 468.3 97.35 468.3 149.85 486.85 149.85 486.85 40.76 468.3 40.76 468.3 82.9"/><polygon class="cls-2" points="581.17 149.85 599.72 149.85 599.72 107.85 635.44 107.85 635.44 93.4 599.72 93.4 599.72 55.22 642.67 55.22 642.67 40.76 581.17 40.76 581.17 149.85"/><polygon class="cls-2" points="714.27 97.58 714.34 96.92 714.34 55.22 739.84 55.22 739.84 40.76 670.3 40.76 670.3 55.22 680.2 55.22 680.32 54.12 680.38 53.53 685.7 54.1 695.56 55.16 700.12 55.65 699.52 61.27 695.8 60.87 695.8 149.85 708.66 149.85 708.79 148.65 714.27 97.58"/><polygon class="cls-2" points="270.07 97.58 270.14 96.92 270.14 55.22 295.64 55.22 295.64 40.76 226.09 40.76 226.09 55.22 236 55.22 236.12 54.12 236.18 53.53 241.5 54.1 251.35 55.16 255.91 55.65 255.31 61.27 251.59 60.87 251.59 149.85 264.46 149.85 264.59 148.65 270.07 97.58"/><polygon class="cls-2" points="43.97 97.58 44.05 96.92 44.05 55.22 69.55 55.22 69.55 40.76 0 40.76 0 55.22 9.91 55.22 10.02 54.12 10.09 53.53 15.4 54.1 25.26 55.16 29.82 55.65 29.22 61.27 25.5 60.87 25.5 149.85 38.37 149.85 38.49 148.65 43.97 97.58"/><polygon class="cls-3" points="680.2 55.22 679.78 59.15 695.58 60.84 695.8 60.87 695.8 55.22 680.2 55.22"/><polygon class="cls-3" points="744.85 51.59 743.91 60.35 718.56 57.63 714.34 96.92 714.34 149.85 708.66 149.85 708.46 151.72 695.64 150.35 695.04 155.97 713.48 157.94 723.58 63.85 748.93 66.57 750.47 52.2 744.85 51.59"/><polygon class="cls-3" points="236 55.22 235.58 59.15 251.38 60.84 251.59 60.87 251.59 55.22 236 55.22"/><polygon class="cls-3" points="300.65 51.59 299.71 60.35 274.36 57.63 270.14 96.92 270.14 149.85 264.46 149.85 264.26 151.72 251.44 150.35 250.83 155.97 269.27 157.94 279.37 63.85 304.73 66.57 306.27 52.2 300.65 51.59"/><polygon class="cls-3" points="9.91 55.22 9.48 59.15 25.28 60.84 25.5 60.87 25.5 55.22 9.91 55.22"/><polygon class="cls-3" points="74.56 51.59 73.62 60.35 48.26 57.63 44.05 96.92 44.05 149.85 38.37 149.85 38.16 151.72 25.34 150.35 24.74 155.97 43.18 157.94 53.28 63.85 78.63 66.57 80.17 52.2 74.56 51.59"/><path class="cls-3" d="M815.61,117.16l-.24-3.24a9.68,9.68,0,0,1-7.92,4c-5.46,0-10-4.5-10-11s4.5-11,10-11a9.86,9.86,0,0,1,7.92,4l.24-3.24h3.9v20.45ZM801.87,107c0,5,3.3,7.61,6.6,7.61,3.06,0,6.9-2.28,6.9-7.61s-3.84-7.68-6.9-7.68C805.17,99.29,801.87,101.93,801.87,107Z"/><path class="cls-3" d="M848.55,117.16l-.24-3.24a9.68,9.68,0,0,1-7.92,4c-5.46,0-10-4.5-10-11s4.5-11,10-11a9.52,9.52,0,0,1,7.68,3.71V81.17h4.38v36ZM834.81,107c0,5,3.3,7.61,6.6,7.61,3.06,0,6.9-2.28,6.9-7.61s-3.84-7.68-6.9-7.68C838.11,99.29,834.81,101.93,834.81,107Z"/><path class="cls-3" d="M873.87,117.34h-3.3l-9.18-20.63h4.32l6.54,15.42,6.48-15.42h4.32Z"/><path class="cls-3" d="M892,89.75V85h4.38v4.8Zm0,27.41V96.71h4.38v20.45Z"/><path class="cls-3" d="M926.19,106.37h-14.7c-.36,3.29,1,8.16,7.74,8.16a10.67,10.67,0,0,0,6.9-2.89v3.49C924.39,116.92,921,118,918,118c-6.6,0-10.8-4.68-10.8-11,0-6.65,4.62-11,10.2-11,5.34,0,9.12,3.84,9.12,8.21A9.49,9.49,0,0,1,926.19,106.37Zm-8.76-7.26a5.58,5.58,0,0,0-5.58,4.37h10.32a2.24,2.24,0,0,0,.06-.47C922.23,101,920.61,99.11,917.43,99.11Z"/><path class="cls-3" d="M943.83,118a15.23,15.23,0,0,1-7.8-2.29l.84-3.29a13.75,13.75,0,0,0,7,2.34c2.4,0,3.9-1,3.9-2.94,0-1.5-1.14-2.53-4.5-3.3-4.5-1.08-6.3-3.49-6.3-6.3,0-3.24,2.1-6.24,7.32-6.24a13.7,13.7,0,0,1,6.54,1.92l-.78,3.05a11.8,11.8,0,0,0-5.76-1.85c-2.52,0-3.48,1.08-3.48,2.58s1.32,2.34,3.78,2.93c4.86,1.15,7,3.49,7,6.66C951.63,115.24,948.81,118,943.83,118Z"/><rect class="cls-3" x="971.02" y="197.7" width="1.12" height="1.12"/><polygon class="cls-3" points="965.61 61.08 951.28 194.1 827.14 180.72 818.37 179.78 818.26 180.72 818.26 180.72 817.78 185.27 824.35 185.97 876.22 191.53 947.04 199.13 956.23 200.11 957.14 191.53 957.21 190.93 971.07 61.66 965.61 61.08"/><polygon class="cls-3" points="824.87 8.58 927.99 19.69 928.32 19.72 933.98 20.33 934.57 14.85 928.32 14.18 927.99 14.14 876.12 8.58 876.12 8.58 852.89 6.09 805.3 0.98 796.12 0 795.46 6.09 795.2 8.58 795.13 9.18 781.27 138.45 786.73 139.03 800.79 8.58 801.05 6.09 801.06 6.01 801.76 6.09 824.87 8.58"/></svg>