<svg id="Layer_1" data-name="Layer 1" xmlns="http://www.w3.org/2000/svg" viewBox="0 0 961.13 183.15"><defs><style>.cls-1{fill:#2257ae;}.cls-2{fill:#1c101d;}.cls-3{fill:#dd4047;}</style></defs><path class="cls-1" d="M835.8,109.18l-.24-3.24a9.7,9.7,0,0,1-7.92,4c-5.46,0-10-4.5-10-11s4.5-11,10-11a9.86,9.86,0,0,1,7.92,4l.24-3.24h3.9v20.46ZM822.06,99c0,5,3.3,7.62,6.6,7.62,3.06,0,6.9-2.28,6.9-7.62s-3.84-7.68-6.9-7.68C825.36,91.3,822.06,93.94,822.06,99Z"/><path class="cls-1" d="M863.82,110a9.53,9.53,0,0,1-7.68-3.72v14.64h-4.38V88.72h3.9L855.9,92a9.7,9.7,0,0,1,7.92-4c5.46,0,10,4.5,10,11S869.28,110,863.82,110ZM862.74,91.3c-3,0-6.84,2.28-6.84,7.62s3.84,7.68,6.84,7.68c3.36,0,6.66-2.64,6.66-7.68S866.1,91.3,862.74,91.3Z"/><path class="cls-1" d="M896.76,110a9.53,9.53,0,0,1-7.68-3.72v14.64H884.7V88.72h3.9l.24,3.24a9.7,9.7,0,0,1,7.92-4c5.46,0,10,4.5,10,11S902.22,110,896.76,110ZM895.68,91.3c-3,0-6.84,2.28-6.84,7.62s3.84,7.68,6.84,7.68c3.36,0,6.66-2.64,6.66-7.68S899,91.3,895.68,91.3Z"/><path class="cls-1" d="M923.64,110a15.26,15.26,0,0,1-7.8-2.28l.84-3.3a13.75,13.75,0,0,0,7,2.34c2.4,0,3.9-1,3.9-2.94,0-1.5-1.14-2.52-4.5-3.3-4.5-1.08-6.3-3.48-6.3-6.3,0-3.24,2.1-6.24,7.32-6.24a13.7,13.7,0,0,1,6.54,1.92l-.78,3.06a11.7,11.7,0,0,0-5.76-1.86c-2.52,0-3.48,1.08-3.48,2.58S922,96,924.42,96.58c4.86,1.14,7,3.48,7,6.66C931.44,107.26,928.62,110,923.64,110Z"/><polygon class="cls-1" points="955.67 44.11 941.34 177.13 817.2 163.76 808.42 162.81 808.32 163.76 808.32 163.76 807.84 168.3 814.41 169 866.28 174.57 937.1 182.16 946.28 183.15 947.21 174.57 947.27 173.96 961.13 44.7 955.67 44.11"/><polygon class="cls-1" points="831.6 8.58 934.71 19.69 935.04 19.72 940.7 20.33 941.29 14.85 935.04 14.18 934.71 14.14 882.84 8.58 882.84 8.58 859.61 6.09 812.02 0.98 802.84 0 802.19 6.09 801.92 8.58 801.85 9.18 787.99 138.45 793.45 139.03 807.51 8.58 807.78 6.09 807.79 6.01 808.48 6.09 831.6 8.58"/><polygon class="cls-2" points="700.12 47.66 695.56 47.17 685.7 46.12 680.38 45.55 680.32 46.14 680.2 47.23 695.8 47.23 695.8 52.88 699.52 53.28 700.12 47.66"/><polygon class="cls-2" points="714.34 88.93 714.27 89.6 708.79 140.66 708.66 141.87 714.34 141.87 714.34 88.93"/><polygon class="cls-2" points="255.91 47.66 251.35 47.17 241.5 46.12 236.18 45.55 236.12 46.14 236 47.23 251.59 47.23 251.59 52.88 255.31 53.28 255.91 47.66"/><polygon class="cls-2" points="270.14 88.93 270.07 89.6 264.59 140.66 264.46 141.87 270.14 141.87 270.14 88.93"/><polygon class="cls-2" points="29.82 47.66 25.26 47.17 15.4 46.12 10.09 45.55 10.02 46.14 9.91 47.23 25.5 47.23 25.5 52.88 29.22 53.28 29.82 47.66"/><polygon class="cls-2" points="44.05 88.93 43.97 89.6 38.49 140.66 38.37 141.87 44.05 141.87 44.05 88.93"/><polygon class="cls-3" points="44.05 141.87 44.05 141.8 44.04 141.87 44.05 141.87"/><rect class="cls-3" x="105.05" y="32.78" width="18.62" height="109.09"/><rect class="cls-3" x="522.9" y="32.78" width="18.62" height="109.09"/><polygon class="cls-3" points="178.16 32.78 159.61 32.78 159.61 141.87 214.16 141.87 214.16 127.42 178.16 127.42 178.16 32.78"/><polygon class="cls-3" points="270.14 141.87 270.14 141.54 270.11 141.87 270.14 141.87"/><path class="cls-3" d="M360.87,78.46q-12.83-4.62-17-8.15T339.6,60.4c0-4.44,1.34-7.87,4-10.32s6.34-3.67,11-3.67A40.13,40.13,0,0,1,368.44,49a59.32,59.32,0,0,1,14.11,7.6l3-14a46.86,46.86,0,0,0-14.18-7.71A51.43,51.43,0,0,0,354.19,32q-15.27,0-24.14,8.52t-8.86,22.71q0,12.27,7.43,19.22t22.84,12.41q11.73,4.37,16.16,8T372.05,113q0,7.1-4,11.25t-11.66,4.16a49.4,49.4,0,0,1-16.09-2.8,58.94,58.94,0,0,1-15.68-8.25l-3.82,14.59a65.65,65.65,0,0,0,16.5,8,56.43,56.43,0,0,0,17.59,2.93q17,0,26.39-9.06t9.34-23.66q0-12.13-7-19.16T360.87,78.46Z"/><polygon class="cls-3" points="468.3 74.92 435.71 74.92 435.71 32.78 417.17 32.78 417.17 141.87 435.71 141.87 435.71 89.37 468.3 89.37 468.3 141.87 486.85 141.87 486.85 32.78 468.3 32.78 468.3 74.92"/><polygon class="cls-3" points="581.17 141.87 599.72 141.87 599.72 99.87 635.44 99.87 635.44 85.42 599.72 85.42 599.72 47.23 642.67 47.23 642.67 32.78 581.17 32.78 581.17 141.87"/><polygon class="cls-3" points="714.27 89.6 714.34 88.93 714.34 47.23 739.84 47.23 739.84 32.78 670.3 32.78 670.3 47.23 680.2 47.23 680.32 46.14 680.38 45.55 685.7 46.12 695.56 47.17 700.12 47.66 699.52 53.28 695.8 52.88 695.8 141.87 708.66 141.87 708.79 140.66 714.27 89.6"/><polygon class="cls-3" points="270.07 89.6 270.14 88.93 270.14 47.23 295.64 47.23 295.64 32.78 226.09 32.78 226.09 47.23 236 47.23 236.12 46.14 236.18 45.55 241.5 46.12 251.35 47.17 255.91 47.66 255.31 53.28 251.59 52.88 251.59 141.87 264.46 141.87 264.59 140.66 270.07 89.6"/><polygon class="cls-3" points="43.97 89.6 44.05 88.93 44.05 47.23 69.55 47.23 69.55 32.78 0 32.78 0 47.23 9.91 47.23 10.02 46.14 10.09 45.55 15.4 46.12 25.26 47.17 29.82 47.66 29.22 53.28 25.5 52.88 25.5 141.87 38.37 141.87 38.49 140.66 43.97 89.6"/><polygon class="cls-1" points="680.2 47.23 679.78 51.16 695.58 52.86 695.8 52.88 695.8 47.23 680.2 47.23"/><polygon class="cls-1" points="744.85 43.61 743.91 52.36 718.56 49.64 714.34 88.93 714.34 141.87 708.66 141.87 708.46 143.74 695.64 142.36 695.04 147.98 713.48 149.96 723.58 55.87 748.93 58.59 750.47 44.21 744.85 43.61"/><polygon class="cls-1" points="236 47.23 235.58 51.16 251.38 52.86 251.59 52.88 251.59 47.23 236 47.23"/><polygon class="cls-1" points="300.65 43.61 299.71 52.36 274.36 49.64 270.14 88.93 270.14 141.87 264.46 141.87 264.26 143.74 251.44 142.36 250.83 147.98 269.27 149.96 279.37 55.87 304.73 58.59 306.27 44.21 300.65 43.61"/><polygon class="cls-1" points="9.91 47.23 9.48 51.16 25.28 52.86 25.5 52.88 25.5 47.23 9.91 47.23"/><polygon class="cls-1" points="74.56 43.61 73.62 52.36 48.26 49.64 44.05 88.93 44.05 141.87 38.37 141.87 38.16 143.74 25.34 142.36 24.74 147.98 43.18 149.96 53.28 55.87 78.63 58.59 80.17 44.21 74.56 43.61"/></svg>