<svg id="Layer_1" data-name="Layer 1" xmlns="http://www.w3.org/2000/svg" viewBox="0 0 969.45 204.15"><defs><style>.cls-1{fill:#1c101d;}.cls-2{fill:#dd4047;}.cls-3{fill:#2257ae;}</style></defs><polygon class="cls-1" points="700.12 56.66 695.56 56.17 685.7 55.12 680.38 54.55 680.32 55.14 680.2 56.23 695.8 56.23 695.8 61.88 699.52 62.28 700.12 56.66"/><polygon class="cls-1" points="714.34 97.93 714.27 98.6 708.79 149.66 708.66 150.87 714.34 150.87 714.34 97.93"/><polygon class="cls-1" points="255.91 56.66 251.35 56.17 241.5 55.12 236.18 54.55 236.12 55.14 236 56.23 251.59 56.23 251.59 61.88 255.31 62.28 255.91 56.66"/><polygon class="cls-1" points="270.14 97.93 270.07 98.6 264.59 149.66 264.46 150.87 270.14 150.87 270.14 97.93"/><polygon class="cls-1" points="29.82 56.66 25.26 56.17 15.4 55.12 10.09 54.55 10.02 55.14 9.91 56.23 25.5 56.23 25.5 61.88 29.22 62.28 29.82 56.66"/><polygon class="cls-1" points="44.05 97.93 43.97 98.6 38.49 149.66 38.37 150.87 44.05 150.87 44.05 97.93"/><polygon class="cls-2" points="44.05 150.87 44.05 150.8 44.04 150.87 44.05 150.87"/><rect class="cls-2" x="105.05" y="41.78" width="18.62" height="109.09"/><rect class="cls-2" x="522.9" y="41.78" width="18.62" height="109.09"/><polygon class="cls-2" points="178.16 41.78 159.61 41.78 159.61 150.87 214.16 150.87 214.16 136.41 178.16 136.41 178.16 41.78"/><polygon class="cls-2" points="270.14 150.87 270.14 150.54 270.11 150.87 270.14 150.87"/><path class="cls-2" d="M360.87,87.46q-12.83-4.62-17-8.15T339.6,69.4c0-4.44,1.34-7.87,4-10.32s6.34-3.67,11-3.67A40.13,40.13,0,0,1,368.44,58a59.32,59.32,0,0,1,14.11,7.6l3-14a46.86,46.86,0,0,0-14.18-7.71A51.43,51.43,0,0,0,354.19,41q-15.27,0-24.14,8.52t-8.86,22.71q0,12.27,7.43,19.22t22.84,12.41q11.73,4.37,16.16,8T372.05,122q0,7.1-4,11.25t-11.66,4.16a49.4,49.4,0,0,1-16.09-2.8,58.94,58.94,0,0,1-15.68-8.25l-3.82,14.59a65.65,65.65,0,0,0,16.5,8,56.43,56.43,0,0,0,17.59,2.93q17,0,26.39-9.06t9.34-23.66q0-12.13-7-19.16T360.87,87.46Z"/><polygon class="cls-2" points="468.3 83.92 435.71 83.92 435.71 41.78 417.17 41.78 417.17 150.87 435.71 150.87 435.71 98.37 468.3 98.37 468.3 150.87 486.85 150.87 486.85 41.78 468.3 41.78 468.3 83.92"/><polygon class="cls-2" points="581.17 150.87 599.72 150.87 599.72 108.87 635.44 108.87 635.44 94.42 599.72 94.42 599.72 56.23 642.67 56.23 642.67 41.78 581.17 41.78 581.17 150.87"/><polygon class="cls-2" points="714.27 98.6 714.34 97.93 714.34 56.23 739.84 56.23 739.84 41.78 670.3 41.78 670.3 56.23 680.2 56.23 680.32 55.14 680.38 54.55 685.7 55.12 695.56 56.17 700.12 56.66 699.52 62.28 695.8 61.88 695.8 150.87 708.66 150.87 708.79 149.66 714.27 98.6"/><polygon class="cls-2" points="270.07 98.6 270.14 97.93 270.14 56.23 295.64 56.23 295.64 41.78 226.09 41.78 226.09 56.23 236 56.23 236.12 55.14 236.18 54.55 241.5 55.12 251.35 56.17 255.91 56.66 255.31 62.28 251.59 61.88 251.59 150.87 264.46 150.87 264.59 149.66 270.07 98.6"/><polygon class="cls-2" points="43.97 98.6 44.05 97.93 44.05 56.23 69.55 56.23 69.55 41.78 0 41.78 0 56.23 9.91 56.23 10.02 55.14 10.09 54.55 15.4 55.12 25.26 56.17 29.82 56.66 29.22 62.28 25.5 61.88 25.5 150.87 38.37 150.87 38.49 149.66 43.97 98.6"/><polygon class="cls-3" points="680.2 56.23 679.78 60.16 695.58 61.86 695.8 61.88 695.8 56.23 680.2 56.23"/><polygon class="cls-3" points="744.85 52.61 743.91 61.36 718.56 58.64 714.34 97.93 714.34 150.87 708.66 150.87 708.46 152.74 695.64 151.36 695.04 156.98 713.48 158.96 723.58 64.86 748.93 67.59 750.47 53.21 744.85 52.61"/><polygon class="cls-3" points="236 56.23 235.58 60.16 251.38 61.86 251.59 61.88 251.59 56.23 236 56.23"/><polygon class="cls-3" points="300.65 52.61 299.71 61.36 274.36 58.64 270.14 97.93 270.14 150.87 264.46 150.87 264.26 152.74 251.44 151.36 250.83 156.98 269.27 158.96 279.37 64.86 304.73 67.59 306.27 53.21 300.65 52.61"/><polygon class="cls-3" points="9.91 56.23 9.48 60.16 25.28 61.86 25.5 61.88 25.5 56.23 9.91 56.23"/><polygon class="cls-3" points="74.56 52.61 73.62 61.36 48.26 58.64 44.05 97.93 44.05 150.87 38.37 150.87 38.16 152.74 25.34 151.36 24.74 156.98 43.18 158.96 53.28 64.86 78.63 67.59 80.17 53.21 74.56 52.61"/><path class="cls-3" d="M815.08,117.25a9.53,9.53,0,0,1-7.68-3.72v14.64H803V96h3.9l.24,3.24a9.7,9.7,0,0,1,7.92-4c5.46,0,10,4.5,10,11S820.54,117.25,815.08,117.25ZM814,98.59c-3,0-6.84,2.28-6.84,7.62s3.84,7.68,6.84,7.68c3.36,0,6.66-2.64,6.66-7.68S817.36,98.59,814,98.59Z"/><path class="cls-3" d="M853.72,105.67H839c-.36,3.3,1,8.16,7.74,8.16a10.71,10.71,0,0,0,6.9-2.88v3.48c-1.74,1.8-5.16,2.82-8.16,2.82-6.6,0-10.8-4.68-10.8-11,0-6.66,4.62-11,10.2-11,5.34,0,9.12,3.84,9.12,8.22A9.41,9.41,0,0,1,853.72,105.67ZM845,98.41a5.58,5.58,0,0,0-5.58,4.38H849.7a2.27,2.27,0,0,0,.06-.48C849.76,100.33,848.14,98.41,845,98.41Z"/><path class="cls-3" d="M883.12,105.67h-14.7c-.36,3.3,1,8.16,7.74,8.16a10.71,10.71,0,0,0,6.9-2.88v3.48c-1.74,1.8-5.16,2.82-8.16,2.82-6.6,0-10.8-4.68-10.8-11,0-6.66,4.62-11,10.2-11,5.34,0,9.12,3.84,9.12,8.22A9.41,9.41,0,0,1,883.12,105.67Zm-8.76-7.26a5.58,5.58,0,0,0-5.58,4.38H879.1a2.27,2.27,0,0,0,.06-.48C879.16,100.33,877.54,98.41,874.36,98.41Z"/><path class="cls-3" d="M906.82,117.25a9.53,9.53,0,0,1-7.68-3.72v14.64h-4.38V96h3.9l.24,3.24a9.7,9.7,0,0,1,7.92-4c5.46,0,10,4.5,10,11S912.28,117.25,906.82,117.25Zm-1.08-18.66c-3,0-6.84,2.28-6.84,7.62s3.84,7.68,6.84,7.68c3.36,0,6.66-2.64,6.66-7.68S909.1,98.59,905.74,98.59Z"/><path class="cls-3" d="M933.7,117.25a15.26,15.26,0,0,1-7.8-2.28l.84-3.3a13.75,13.75,0,0,0,7,2.34c2.4,0,3.9-1,3.9-2.94,0-1.5-1.14-2.52-4.5-3.3-4.5-1.08-6.3-3.48-6.3-6.3,0-3.24,2.1-6.24,7.32-6.24a13.7,13.7,0,0,1,6.54,1.92l-.78,3.06a11.7,11.7,0,0,0-5.76-1.86c-2.52,0-3.48,1.08-3.48,2.58s1.32,2.34,3.78,2.94c4.86,1.14,7,3.48,7,6.66C941.5,114.55,938.68,117.25,933.7,117.25Z"/><polygon class="cls-3" points="963.99 65.11 949.66 198.13 825.52 184.76 816.75 183.81 816.64 184.76 816.64 184.76 816.16 189.3 822.73 190 874.6 195.57 945.42 203.16 954.61 204.15 955.52 195.57 955.59 194.96 969.45 65.7 963.99 65.11"/><polygon class="cls-3" points="822.91 8.58 926.03 19.69 926.36 19.72 932.02 20.33 932.61 14.85 926.36 14.18 926.03 14.14 874.16 8.58 874.16 8.58 850.93 6.09 803.34 0.98 794.16 0 793.51 6.09 793.24 8.58 793.17 9.18 779.31 138.45 784.77 139.03 798.83 8.58 799.1 6.09 799.11 6.01 799.8 6.09 822.91 8.58"/></svg>