<svg id="Layer_1" data-name="Layer 1" xmlns="http://www.w3.org/2000/svg" viewBox="0 0 961.13 183.15"><defs><style>.cls-1{fill:#2257ae;}.cls-2{fill:#1c101d;}.cls-3{fill:#dd4047;}</style></defs><path class="cls-1" d="M826.5,107.47v-36h4.38v36Z"/><path class="cls-1" d="M859.92,107.47l-.24-3.24a9.7,9.7,0,0,1-7.92,4c-5.46,0-10-4.5-10-11s4.5-11,10-11a9.86,9.86,0,0,1,7.92,4l.24-3.24h3.9v20.46Zm-13.74-10.2c0,5,3.3,7.62,6.6,7.62,3.06,0,6.9-2.28,6.9-7.62s-3.84-7.68-6.9-7.68C849.48,89.59,846.18,92.23,846.18,97.27Z"/><path class="cls-1" d="M887.94,108.25a9.7,9.7,0,0,1-7.92-4l-.24,3.24h-3.9v-36h4.38V90a9.53,9.53,0,0,1,7.68-3.72c5.46,0,10,4.56,10,11S893.4,108.25,887.94,108.25Zm-1.08-18.66c-3,0-6.84,2.28-6.84,7.68s3.84,7.62,6.84,7.62c3.36,0,6.66-2.58,6.66-7.62S890.22,89.59,886.86,89.59Z"/><path class="cls-1" d="M914.82,108.25A15.26,15.26,0,0,1,907,106l.84-3.3a13.75,13.75,0,0,0,7,2.34c2.4,0,3.9-1,3.9-2.94,0-1.5-1.14-2.52-4.5-3.3-4.5-1.08-6.3-3.48-6.3-6.3,0-3.24,2.1-6.24,7.32-6.24a13.7,13.7,0,0,1,6.54,1.92l-.78,3.06a11.7,11.7,0,0,0-5.76-1.86c-2.52,0-3.48,1.08-3.48,2.58s1.32,2.34,3.78,2.94c4.86,1.14,7,3.48,7,6.66C922.62,105.55,919.8,108.25,914.82,108.25Z"/><polygon class="cls-1" points="955.67 44.11 941.34 177.13 817.2 163.76 808.42 162.81 808.32 163.76 808.32 163.76 807.84 168.3 814.41 169 866.28 174.57 937.1 182.16 946.28 183.15 947.21 174.57 947.27 173.96 961.13 44.7 955.67 44.11"/><polygon class="cls-1" points="831.6 8.58 934.71 19.69 935.04 19.72 940.7 20.33 941.29 14.85 935.04 14.18 934.71 14.14 882.84 8.58 882.84 8.58 859.61 6.09 812.02 0.98 802.84 0 802.19 6.09 801.92 8.58 801.85 9.18 787.99 138.45 793.45 139.03 807.51 8.58 807.78 6.09 807.79 6.01 808.48 6.09 831.6 8.58"/><polygon class="cls-2" points="700.12 45.99 695.56 45.5 685.7 44.44 680.38 43.87 680.32 44.46 680.2 45.56 695.8 45.56 695.8 51.21 699.52 51.61 700.12 45.99"/><polygon class="cls-2" points="714.34 87.26 714.27 87.92 708.79 138.99 708.66 140.19 714.34 140.19 714.34 87.26"/><polygon class="cls-2" points="255.91 45.99 251.35 45.5 241.5 44.44 236.18 43.87 236.12 44.46 236 45.56 251.59 45.56 251.59 51.21 255.31 51.61 255.91 45.99"/><polygon class="cls-2" points="270.14 87.26 270.07 87.92 264.59 138.99 264.46 140.19 270.14 140.19 270.14 87.26"/><polygon class="cls-2" points="29.82 45.99 25.26 45.5 15.4 44.44 10.09 43.87 10.02 44.46 9.91 45.56 25.5 45.56 25.5 51.21 29.22 51.61 29.82 45.99"/><polygon class="cls-2" points="44.05 87.26 43.97 87.92 38.49 138.99 38.37 140.19 44.05 140.19 44.05 87.26"/><polygon class="cls-3" points="44.05 140.19 44.05 140.13 44.04 140.19 44.05 140.19"/><rect class="cls-3" x="105.05" y="31.1" width="18.62" height="109.09"/><rect class="cls-3" x="522.9" y="31.1" width="18.62" height="109.09"/><polygon class="cls-3" points="178.16 31.1 159.61 31.1 159.61 140.19 214.16 140.19 214.16 125.74 178.16 125.74 178.16 31.1"/><polygon class="cls-3" points="270.14 140.19 270.14 139.87 270.11 140.19 270.14 140.19"/><path class="cls-3" d="M360.87,76.79q-12.83-4.62-17-8.15t-4.23-9.91q0-6.66,4-10.32t11-3.67a40.13,40.13,0,0,1,13.84,2.63A59,59,0,0,1,382.55,55l3-14a46.85,46.85,0,0,0-14.18-7.7,51.18,51.18,0,0,0-17.18-2.93q-15.27,0-24.14,8.52t-8.86,22.7q0,12.27,7.43,19.23t22.84,12.41q11.73,4.36,16.16,8t4.43,10.16q0,7.08-4,11.25t-11.66,4.15a49.64,49.64,0,0,1-16.09-2.79,58.94,58.94,0,0,1-15.68-8.25l-3.82,14.59a66.34,66.34,0,0,0,16.5,8,56.73,56.73,0,0,0,17.59,2.93q17,0,26.39-9.07t9.34-23.66q0-12.14-7-19.16T360.87,76.79Z"/><polygon class="cls-3" points="468.3 73.24 435.71 73.24 435.71 31.1 417.17 31.1 417.17 140.19 435.71 140.19 435.71 87.69 468.3 87.69 468.3 140.19 486.85 140.19 486.85 31.1 468.3 31.1 468.3 73.24"/><polygon class="cls-3" points="581.17 140.19 599.72 140.19 599.72 98.19 635.44 98.19 635.44 83.74 599.72 83.74 599.72 45.56 642.67 45.56 642.67 31.1 581.17 31.1 581.17 140.19"/><polygon class="cls-3" points="714.27 87.92 714.34 87.26 714.34 45.56 739.84 45.56 739.84 31.1 670.3 31.1 670.3 45.56 680.2 45.56 680.32 44.46 680.38 43.87 685.7 44.44 695.56 45.5 700.12 45.99 699.52 51.61 695.8 51.21 695.8 140.19 708.66 140.19 708.79 138.99 714.27 87.92"/><polygon class="cls-3" points="270.07 87.92 270.14 87.26 270.14 45.56 295.64 45.56 295.64 31.1 226.09 31.1 226.09 45.56 236 45.56 236.12 44.46 236.18 43.87 241.5 44.44 251.35 45.5 255.91 45.99 255.31 51.61 251.59 51.21 251.59 140.19 264.46 140.19 264.59 138.99 270.07 87.92"/><polygon class="cls-3" points="43.97 87.92 44.05 87.26 44.05 45.56 69.55 45.56 69.55 31.1 0 31.1 0 45.56 9.91 45.56 10.02 44.46 10.09 43.87 15.4 44.44 25.26 45.5 29.82 45.99 29.22 51.61 25.5 51.21 25.5 140.19 38.37 140.19 38.49 138.99 43.97 87.92"/><polygon class="cls-1" points="680.2 45.56 679.78 49.49 695.58 51.19 695.8 51.21 695.8 45.56 680.2 45.56"/><polygon class="cls-1" points="744.85 41.94 743.91 50.69 718.56 47.97 714.34 87.26 714.34 140.19 708.66 140.19 708.46 142.06 695.64 140.69 695.04 146.31 713.48 148.29 723.58 54.19 748.93 56.91 750.47 42.54 744.85 41.94"/><polygon class="cls-1" points="236 45.56 235.58 49.49 251.38 51.19 251.59 51.21 251.59 45.56 236 45.56"/><polygon class="cls-1" points="300.65 41.94 299.71 50.69 274.36 47.97 270.14 87.26 270.14 140.19 264.46 140.19 264.26 142.06 251.44 140.69 250.83 146.31 269.27 148.29 279.37 54.19 304.73 56.91 306.27 42.54 300.65 41.94"/><polygon class="cls-1" points="9.91 45.56 9.48 49.49 25.28 51.19 25.5 51.21 25.5 45.56 9.91 45.56"/><polygon class="cls-1" points="74.56 41.94 73.62 50.69 48.26 47.97 44.05 87.26 44.05 140.19 38.37 140.19 38.16 142.06 25.34 140.69 24.74 146.31 43.18 148.29 53.28 54.19 78.63 56.91 80.17 42.54 74.56 41.94"/></svg>