<svg id="Layer_1" data-name="Layer 1" xmlns="http://www.w3.org/2000/svg" viewBox="0 0 391.25 389.94"><defs><style>.cls-1{fill:none;}.cls-2{fill:#dd4047;}.cls-3{fill:#2257ae;}.cls-4{fill:#1c101d;}.cls-5{fill:#fff;}</style></defs><polygon class="cls-1" points="64.74 12.96 66.23 12.96 64.76 12.8 64.74 12.96"/><polygon class="cls-2" points="115.45 18.27 66.23 12.96 64.74 12.96 64.17 18.27 34.24 296.02 22.62 294.77 52.13 19.55 52.27 18.27 52.84 12.96 0 12.96 0 348.66 65.9 348.66 66.12 346.65 84.8 348.66 335.7 348.66 335.7 41.99 335 41.92 115.45 18.27"/><polygon class="cls-2" points="224.56 18.27 335 30.11 335.7 30.18 335.7 12.96 175.11 12.96 224.56 18.27 224.56 18.27"/><polygon class="cls-3" points="64.76 12.8 66.23 12.96 175.11 12.96 73.78 2.1 54.23 0 52.84 12.96 64.74 12.96 64.76 12.8"/><polygon class="cls-3" points="335.7 30.18 335.7 41.99 347.75 43.29 349 31.61 335.7 30.18"/><polygon class="cls-4" points="52.13 19.55 22.62 294.77 34.24 296.02 64.17 18.27 64.74 12.96 52.84 12.96 52.27 18.27 52.13 19.55"/><polygon class="cls-4" points="335 30.11 224.56 18.27 224.56 18.27 175.11 12.96 66.23 12.96 115.45 18.27 335 41.92 335.7 41.99 335.7 30.18 335 30.11"/><polygon class="cls-4" points="65.9 348.66 84.8 348.66 66.12 346.65 65.9 348.66"/><polygon class="cls-3" points="379.62 93.92 349.11 377.14 84.8 348.66 65.9 348.66 64.87 358.33 78.87 359.83 189.31 371.67 340.09 387.84 359.64 389.94 361.6 371.67 361.74 370.38 391.25 95.17 379.62 93.92"/><path class="cls-5" d="M191.62,245.88H203.3v68.44H191.62Z"/><path class="cls-5" d="M97.35,314.92a35.37,35.37,0,0,1-11-1.84,41.56,41.56,0,0,1-10.36-5l2.4-9.16a37.24,37.24,0,0,0,9.84,5.18,31.08,31.08,0,0,0,10.1,1.75q4.78,0,7.31-2.61a9.73,9.73,0,0,0,2.52-7.06,7.73,7.73,0,0,0-2.78-6.37q-2.77-2.26-10.14-5-9.66-3.42-14.33-7.78T76.22,265q0-8.9,5.56-14.24t15.15-5.35a32.39,32.39,0,0,1,10.78,1.84A29.51,29.51,0,0,1,116.6,252l-1.88,8.81a37.55,37.55,0,0,0-8.85-4.77,25.16,25.16,0,0,0-8.69-1.65,9.83,9.83,0,0,0-6.88,2.3,8.31,8.31,0,0,0-2.53,6.48,7.68,7.68,0,0,0,2.65,6.22q2.65,2.2,10.7,5.11,9.91,3.42,14.29,7.83t4.36,12q0,9.15-5.86,14.84T97.35,314.92Z"/><path class="cls-5" d="M132.25,314.32V245.88h11.63v26.43h20.45V245.88H176v68.44H164.33V281.38H143.88v32.94Z"/><path class="cls-5" d="M218.89,314.32V245.88h38.58v9.06h-27v24h22.42V288H230.52v26.35Z"/><path class="cls-5" d="M283.56,314.32V254.94h-16v-9.06H311.2v9.06h-16v59.38Z"/><path class="cls-5" d="M148.29,226.33V167h-16v-9.07h43.63V167h-16v59.37Z"/><polygon class="cls-5" points="191.62 157.89 191.62 226.33 196.62 226.33 203.3 226.33 203.3 164.72 203.3 157.89 191.62 157.89"/><path class="cls-5" d="M223.25,226.33V157.89h11.64v59.37h22.58v9.07Z"/><path class="cls-5" d="M283.56,226.33V167h-16v-9.07h43.63V167h-16v59.37Z"/></svg>