<svg id="Layer_1" data-name="Layer 1" xmlns="http://www.w3.org/2000/svg" viewBox="0 0 830.44 431.01"><defs><style>.cls-1{fill:#fff;}.cls-2{fill:#1c101d;}.cls-3{fill:#dd4047;}.cls-4{fill:#2257ae;}</style></defs><rect class="cls-1" width="830.44" height="431.01"/><path d="M221.6,391a16.71,16.71,0,0,1-8.4-2.52v-2.75a15.57,15.57,0,0,0,8.7,2.63c3.72,0,7.68-2.1,7.68-8.88v-3.71c-1.62,2.75-5.1,4.08-8,4.08-5.82,0-10.2-4.74-10.2-11s4.38-11,10.2-11c3,0,6.66,1.32,8.28,4.5l.18-3.72h2.64v20.63C232.64,389,226.52,391,221.6,391Zm.48-30.59c-4.14,0-7.68,3.06-7.68,8.4s3.54,8.46,7.68,8.46,7.68-3.06,7.68-8.46S226.1,360.43,222.08,360.43Z"/><path d="M254.48,379.92a11.07,11.07,0,1,1,11.1-11.09A11,11,0,0,1,254.48,379.92Zm0-19.49c-4.56,0-8,3.42-8,8.4s3.48,8.46,8,8.46,8-3.54,8-8.46S259.1,360.43,254.48,360.43Z"/><path d="M286,379.92a11.07,11.07,0,1,1,11.1-11.09A11,11,0,0,1,286,379.92Zm0-19.49c-4.56,0-8,3.42-8,8.4s3.48,8.46,8,8.46,8-3.54,8-8.46S290.6,360.43,286,360.43Z"/><path d="M325.28,379.08l-.18-3.71c-1.62,3.12-5.28,4.5-8.28,4.5-5.82,0-10.2-4.68-10.2-11s4.38-11,10.2-11c2.94,0,6.42,1.32,8,4.08V343.09h3.06v36Zm-15.6-10.25c0,5.34,3.54,8.46,7.68,8.46s7.68-3.06,7.68-8.46-3.66-8.4-7.68-8.4S309.68,363.49,309.68,368.83Z"/><path d="M366.08,379.87c-2.94,0-6.42-1.33-8-4.08v15H355V358.63h2.64l.18,3.72c1.62-3.18,5.28-4.5,8.28-4.5,5.82,0,10.2,4.62,10.2,11S371.9,379.87,366.08,379.87Zm-.54-19.44c-4,0-7.68,2.94-7.68,8.4s3.66,8.46,7.68,8.46,7.68-3.12,7.68-8.46S369.62,360.43,365.54,360.43Z"/><path d="M390.26,358.63v11.82c0,4.92,2,6.66,5.46,6.66s7.2-3.42,7.2-7V358.63H406v20.45h-2.7l-.18-3.83a9.8,9.8,0,0,1-8.22,4.62c-5.22,0-7.68-3.37-7.68-9.06V358.63Z"/><path d="M429.26,379.87c-3,0-6.66-1.38-8.28-4.5l-.12,3.71h-2.7v-36h3.06v18.84c1.62-2.76,5.1-4.08,8-4.08,5.82,0,10.2,4.62,10.2,11S435.08,379.87,429.26,379.87Zm-8.22-11c0,5.4,3.66,8.46,7.68,8.46s7.68-3.12,7.68-8.46-3.6-8.4-7.68-8.4S421,363.37,421,368.83Z"/><path d="M450.44,379.08v-36h3.06v36Z"/><path d="M465.68,351.67V348h3.06v3.66Zm0,27.41V358.63h3.06v20.45Z"/><path d="M490.4,379.8c-6.12,0-10.68-4.55-10.68-11s4.56-10.92,10.68-10.92a11.33,11.33,0,0,1,7,2.1v2.76a10.91,10.91,0,0,0-6.66-2.28c-4.62,0-7.92,3.36-7.92,8.34s3.3,8.39,7.92,8.39a11,11,0,0,0,6.66-2.27v2.81A11.55,11.55,0,0,1,490.4,379.8Z"/><path d="M528.56,361v18.05H525.5V361H521v-2.4h4.5v-6.9h3.06v6.9h4.5V361Z"/><path d="M560.24,368H545.12c-.36,4.26,1.62,9.23,8.4,9.23a11,11,0,0,0,6.66-2.51v2.51c-1.68,1.57-4.44,2.58-7.92,2.58-6,0-10.26-4.8-10.26-11.15,0-6.66,4.8-10.8,9.84-10.8s8.64,3.36,8.64,8A14,14,0,0,1,560.24,368Zm-8.34-7.68a6.5,6.5,0,0,0-6.6,5.46h12.18C557.78,362.65,555.56,360.31,551.9,360.31Z"/><path d="M581.18,379.8c-6.12,0-10.68-4.55-10.68-11s4.56-10.92,10.68-10.92a11.33,11.33,0,0,1,7,2.1v2.76a10.91,10.91,0,0,0-6.66-2.28c-4.62,0-7.92,3.36-7.92,8.34s3.3,8.39,7.92,8.39a11,11,0,0,0,6.66-2.27v2.81A11.55,11.55,0,0,1,581.18,379.8Z"/><path d="M614.66,379.08V367.27c0-4.92-2-6.66-5.46-6.66s-7.2,3.42-7.2,7v11.45h-3.06v-36H602v19.26a9.52,9.52,0,0,1,8-4.5c5.22,0,7.68,3.36,7.68,9.06v12.17Z"/><polygon class="cls-2" points="740.11 205.43 735.54 204.94 725.69 203.88 720.37 203.31 720.31 203.9 720.19 205 735.78 205 735.78 210.65 739.5 211.05 740.11 205.43"/><polygon class="cls-2" points="754.33 246.7 754.26 247.37 748.78 298.43 748.65 299.63 754.33 299.63 754.33 246.7"/><polygon class="cls-2" points="295.9 205.43 291.34 204.94 281.48 203.88 276.17 203.31 276.1 203.9 275.99 205 291.58 205 291.58 210.65 295.3 211.05 295.9 205.43"/><polygon class="cls-2" points="310.13 246.7 310.05 247.37 304.57 298.43 304.44 299.63 310.13 299.63 310.13 246.7"/><polygon class="cls-2" points="69.81 205.43 65.25 204.94 55.39 203.88 50.07 203.31 50.01 203.9 49.89 205 65.49 205 65.49 210.65 69.2 211.05 69.81 205.43"/><polygon class="cls-2" points="84.03 246.7 83.96 247.37 78.48 298.43 78.35 299.63 84.03 299.63 84.03 246.7"/><polygon class="cls-2" points="362.79 125.11 368.43 125.72 376.95 46.24 452.99 54.39 452.99 48.68 421.1 45.26 371.35 45.26 371.31 45.63 362.79 125.11"/><polygon class="cls-3" points="84.04 299.63 84.04 299.57 84.03 299.63 84.04 299.63"/><rect class="cls-3" x="145.04" y="190.54" width="18.62" height="109.09"/><rect class="cls-3" x="562.88" y="190.54" width="18.62" height="109.09"/><polygon class="cls-3" points="218.15 190.54 199.6 190.54 199.6 299.63 254.15 299.63 254.15 285.18 218.15 285.18 218.15 190.54"/><polygon class="cls-3" points="310.13 299.63 310.13 299.31 310.09 299.63 310.13 299.63"/><path class="cls-3" d="M400.86,236.23q-12.83-4.62-17.05-8.15t-4.23-9.91q0-6.66,4-10.32t11-3.67a40.18,40.18,0,0,1,13.85,2.63,59.16,59.16,0,0,1,14.11,7.6l3-14a47,47,0,0,0-14.18-7.7,51.23,51.23,0,0,0-17.18-2.93q-15.29,0-24.14,8.52T361.18,221q0,12.27,7.43,19.23t22.84,12.41q11.73,4.36,16.16,8T412,270.73q0,7.08-4,11.25t-11.66,4.15a49.6,49.6,0,0,1-16.09-2.79,58.85,58.85,0,0,1-15.69-8.25l-3.81,14.59a66.34,66.34,0,0,0,16.5,8,56.73,56.73,0,0,0,17.59,2.93q17,0,26.38-9.07t9.34-23.66q0-12.14-6.95-19.16T400.86,236.23Z"/><polygon class="cls-3" points="508.29 232.68 475.7 232.68 475.7 190.54 457.15 190.54 457.15 299.63 475.7 299.63 475.7 247.13 508.29 247.13 508.29 299.63 526.84 299.63 526.84 190.54 508.29 190.54 508.29 232.68"/><polygon class="cls-3" points="621.16 299.63 639.7 299.63 639.7 257.63 675.43 257.63 675.43 243.18 639.7 243.18 639.7 205 682.66 205 682.66 190.54 621.16 190.54 621.16 299.63"/><polygon class="cls-3" points="754.26 247.37 754.33 246.7 754.33 205 779.83 205 779.83 190.54 710.28 190.54 710.28 205 720.19 205 720.31 203.9 720.37 203.31 725.69 203.88 735.54 204.94 740.11 205.43 739.5 211.05 735.78 210.65 735.78 299.63 748.65 299.63 748.78 298.43 754.26 247.37"/><polygon class="cls-3" points="310.05 247.37 310.13 246.7 310.13 205 335.63 205 335.63 190.54 266.08 190.54 266.08 205 275.99 205 276.1 203.9 276.17 203.31 281.48 203.88 291.34 204.94 295.9 205.43 295.3 211.05 291.58 210.65 291.58 299.63 304.44 299.63 304.57 298.43 310.05 247.37"/><polygon class="cls-3" points="83.96 247.37 84.03 246.7 84.03 205 109.53 205 109.53 190.54 39.99 190.54 39.99 205 49.89 205 50.01 203.9 50.07 203.31 55.39 203.88 65.25 204.94 69.81 205.43 69.2 211.05 65.49 210.65 65.49 299.63 78.35 299.63 78.48 298.43 83.96 247.37"/><polygon class="cls-3" points="452.99 54.39 376.95 46.24 368.43 125.72 362.79 125.11 371.31 45.63 371.35 45.26 356.05 45.26 356.05 142.2 452.99 142.2 452.99 54.39"/><polygon class="cls-3" points="452.99 45.26 421.1 45.26 452.99 48.68 452.99 45.26"/><polygon class="cls-4" points="720.19 205 719.77 208.93 735.57 210.63 735.78 210.65 735.78 205 720.19 205"/><polygon class="cls-4" points="784.84 201.38 783.9 210.13 758.55 207.41 754.33 246.7 754.33 299.63 748.65 299.63 748.45 301.5 735.63 300.13 735.02 305.75 753.46 307.73 763.56 213.63 788.91 216.35 790.46 201.98 784.84 201.38"/><polygon class="cls-4" points="275.99 205 275.56 208.93 291.36 210.63 291.58 210.65 291.58 205 275.99 205"/><polygon class="cls-4" points="340.63 201.38 339.7 210.13 314.34 207.41 310.13 246.7 310.13 299.63 304.44 299.63 304.24 301.5 291.42 300.13 290.82 305.75 309.26 307.73 319.36 213.63 344.71 216.35 346.25 201.98 340.63 201.38"/><polygon class="cls-4" points="49.89 205 49.47 208.93 65.27 210.63 65.49 210.65 65.49 205 49.89 205"/><polygon class="cls-4" points="114.54 201.38 113.6 210.13 88.25 207.41 84.03 246.7 84.03 299.63 78.35 299.63 78.15 301.5 65.33 300.13 64.73 305.75 83.17 307.73 93.27 213.63 118.62 216.35 120.16 201.98 114.54 201.38"/><polygon class="cls-4" points="377.56 40.59 371.91 39.99 371.35 45.26 421.1 45.26 377.56 40.59"/><polygon class="cls-4" points="461.27 153.59 469.8 74.11 464.15 73.5 455.63 152.98 376.15 144.46 375.54 150.11 455.02 158.63 460.67 159.23 461.27 153.59"/><polygon class="cls-4" points="456.43 54.76 457.04 49.11 452.99 48.68 452.99 54.39 456.43 54.76"/></svg>