<svg id="Layer_1" data-name="Layer 1" xmlns="http://www.w3.org/2000/svg" viewBox="0 0 471.22 468.83"><defs><style>.cls-1{fill:#fff;}.cls-2{fill:none;}.cls-3{fill:#dd4047;}.cls-4{fill:#2257ae;}.cls-5{fill:#1c101d;}</style></defs><rect class="cls-1" width="471.22" height="468.83"/><polygon class="cls-2" points="104.73 51.86 106.22 51.86 104.75 51.7 104.73 51.86"/><polygon class="cls-3" points="155.44 57.16 106.22 51.86 104.73 51.86 104.16 57.16 74.23 334.92 62.6 333.67 92.12 58.45 92.25 57.16 92.82 51.86 39.99 51.86 39.99 387.56 105.89 387.56 106.11 385.55 124.79 387.56 375.68 387.56 375.68 80.89 374.99 80.82 155.44 57.16"/><polygon class="cls-3" points="264.55 57.16 374.99 69.01 375.68 69.08 375.68 51.86 215.09 51.86 264.55 57.16 264.55 57.16"/><polygon class="cls-4" points="104.75 51.7 106.22 51.86 215.09 51.86 113.77 41 94.21 38.9 92.82 51.86 104.73 51.86 104.75 51.7"/><polygon class="cls-4" points="375.68 69.08 375.68 80.89 387.73 82.19 388.99 70.51 375.68 69.08"/><polygon class="cls-5" points="92.12 58.45 62.6 333.67 74.23 334.92 104.16 57.16 104.73 51.86 92.82 51.86 92.25 57.16 92.12 58.45"/><polygon class="cls-5" points="374.99 69.01 264.55 57.16 264.55 57.16 215.09 51.86 106.22 51.86 155.44 57.16 374.99 80.82 375.68 80.89 375.68 69.08 374.99 69.01"/><polygon class="cls-5" points="105.89 387.56 124.79 387.56 106.11 385.55 105.89 387.56"/><polygon class="cls-4" points="419.61 132.82 389.09 416.04 124.79 387.56 105.89 387.56 104.85 397.23 118.85 398.73 229.29 410.57 380.07 426.74 399.63 428.84 401.58 410.57 401.72 409.29 431.23 134.07 419.61 132.82"/></svg>